<?xml version="1.0" standalone="no"?>
<!DOCTYPE svg PUBLIC "-//W3C//DTD SVG 1.1//EN" "http://www.w3.org/Graphics/SVG/1.1/DTD/svg11.dtd" >
<svg>
<metadata>
Created by FontForge 20090914 at Tue Sep 10 12:28:11 2013
 By www-data
Simplesnails ver 4.0 &#194;&#169; Designed by Poemhaiku &#60;2012&#62;. All Rights Reserved.

[ Feel free to use this font for personal use, however credit where it's due and please link back to me if you do.
Contact me at: Haikuume@gmail.com if you notice any errors or for purchasing commercial license(s). Thank you so much! ]
 .
</metadata>
<defs>
<font id="Simplesnailsver4.0" horiz-adv-x="1331" >
  <font-face 
    font-family="Simplesnails ver 4.0 "
    font-weight="400"
    font-stretch="normal"
    units-per-em="2048"
    panose-1="2 0 5 0 0 0 0 0 0 0"
    ascent="1638"
    descent="-410"
    x-height="709.002"
    cap-height="1526"
    bbox="-1524 -1143 3109 2293"
    underline-thickness="150"
    underline-position="-142"
    unicode-range="U+0020-U+2211"
  />
<missing-glyph horiz-adv-x="2795" 
d="M1972 1346c73.333 -14.667 120.667 -56 142 -124s-8.66699 -168.667 -90 -302c-78.667 -132 -215 -275.667 -409 -431c-298.667 -242.667 -496.667 -421.334 -594 -536.001c-6.66699 -30 -38 22 -94 156s-113.833 265.5 -173.5 394.5s-84.667 245.5 -75 349.5
s70.834 191 183.501 261c47.333 32 105.333 44.333 174 37c69.333 -14.667 129 -65 179 -151l47 -92l140 159c115.333 112.667 243.666 198.334 384.999 257.001z" />
    <glyph glyph-name=".notdef" horiz-adv-x="2795" 
d="M1972 1346c73.333 -14.667 120.667 -56 142 -124s-8.66699 -168.667 -90 -302c-78.667 -132 -215 -275.667 -409 -431c-298.667 -242.667 -496.667 -421.334 -594 -536.001c-6.66699 -30 -38 22 -94 156s-113.833 265.5 -173.5 394.5s-84.667 245.5 -75 349.5
s70.834 191 183.501 261c47.333 32 105.333 44.333 174 37c69.333 -14.667 129 -65 179 -151l47 -92l140 159c115.333 112.667 243.666 198.334 384.999 257.001z" />
    <glyph glyph-name="space" unicode=" " horiz-adv-x="437" 
 />
    <glyph glyph-name="space" unicode="&#xa0;" horiz-adv-x="437" 
 />
    <glyph glyph-name="exclam" unicode="!" horiz-adv-x="357" 
d="M536 1408c-144 -430 -223 -701 -237 -813s-28 -178 -42 -198s-25.667 -29.667 -35 -29h-10c0 7.33301 -3 17.666 -9 30.999c9.33301 112.667 24.833 229.834 46.5 351.501s54.5 263.5 98.5 425.5s102.833 273 176.5 333s77.5 26.333 11.5 -101zM216 160l20 -1
c13.333 -3.33301 19.666 -10.666 18.999 -21.999c-3.33301 -46 -40.666 -91 -111.999 -135l-10 1c-13.333 0.666992 -19.666 7.66699 -18.999 21l2 21c55.333 77.333 88.666 115.666 99.999 114.999z" />
    <glyph glyph-name="quotedbl" unicode="&#x22;" horiz-adv-x="767" 
d="M312 1546l43 114.999c18 46.667 40.667 67.334 68 62.001c9.33301 -10.667 17.333 -17.667 24 -21l-4 -9c-56 -240 -91 -422.667 -105 -548c-11.333 -17.333 -29 -25.333 -53 -24c-34 41.333 -25 183 27 425zM503 1546l43 114.999c18 46.667 40.667 67.334 68 62.001
c9.33301 -10.667 17.333 -17.667 24 -21l-4 -9c-56 -240 -91 -422.667 -105 -548c-11.333 -17.333 -29 -25.333 -53 -24c-34 41.333 -25 183 27 425z" />
    <glyph glyph-name="numbersign" unicode="#" horiz-adv-x="1297" 
d="M460 1051l51.998 29.9961l30 -43c-26 -94 -52 -181 -78 -261l111 -8h13c95.333 -28.667 166.333 66.666 213 285.999l60 35c32 6 36.333 -23 13 -87l-52 -142l-17 -74c10.667 -46.667 105.334 -51 284.001 -13v-39c-12.667 -33.333 -43 -54.666 -91 -63.999l-65 -13h-116
c-31.333 0 -67 -77.667 -107 -233v-39c-10 -46.667 14 -64 72 -52h116l104 22l-8 -57c-58 -38.667 -169 -63 -333 -73c-17.333 -114 -41.666 -219.667 -72.999 -317l-99 -19l56 172c32 126.667 10.333 174.334 -65 143.001h-65c-72 26 -112.667 -42 -122 -204
c-19.333 -74 -42.333 -115.667 -69 -125l-47 5l13 129l29 212l-196 -9l12 105c109.333 -17.333 174.333 -7.66602 195 29.001c34 38.667 55.333 87.334 64 146.001l18 70c0 52 -47.333 70.667 -142 56c-34.667 0 -52 8.66699 -52 26v26c19.333 32 96 62 230 90
c46.667 56.667 84 153.334 112 290.001zM376.998 397.996v-39c9.33301 -17.333 51 -27.5 125 -30.5s120.333 92.5 139 286.5v13c0 12 -13 25 -39 39l-96 -9c-72.667 -26 -115.667 -112.667 -129 -260z" />
    <glyph glyph-name="dollar" unicode="$" horiz-adv-x="1014" 
d="M637 1373c38 -1.33301 78.3301 -20.0049 120.997 -56.0049s66.5 -72.833 71.5 -110.5s-5.83301 -62.334 -32.5 -74.001s-55.334 -5.5 -86.001 18.5c-4 70 -30.667 110.667 -80 122c-29.333 -128.667 -54.666 -293.667 -75.999 -495
c134.667 -106.667 206 -220.167 214 -340.5s-25.5 -218.666 -100.5 -294.999s-143.5 -118.5 -205.5 -126.5c-32.667 -172.667 -53.667 -268.667 -63 -288s-20.666 -18.666 -33.999 2.00098s-12.333 114 3 280c-132.667 4 -234 40 -304 108s-101.667 149.667 -95 245
c19.333 90.667 59.666 136.334 120.999 137.001c-14 -159.333 12.333 -265.5 79 -318.5s125.334 -70.833 176.001 -53.5c41.333 18 64.666 86.333 69.999 205s17.333 250.334 36 395.001c-62 37.333 -128.5 97.333 -199.5 180s-80.833 182.334 -29.5 299.001
s162.333 175.334 333 176.001c18.667 126.667 39.334 201 62.001 223s34.334 16.167 35.001 -17.5s-4.66602 -105.5 -15.999 -215.5zM519.997 1192c16.667 67.333 0.833008 98.832 -47.5 94.499s-88.166 -22.166 -119.499 -53.499s-49.833 -72.333 -55.5 -123
s5.66602 -99.5 33.999 -146.5s61 -84.5 98 -112.5s67.167 85.667 90.5 341zM546.996 673.994c-9.33301 -31.333 -18.3359 -82.834 -27.0029 -154.501s-13.667 -129.5 -15 -173.5s-4.66602 -87.833 -9.99902 -131.5s5.83398 -66.167 33.501 -67.5s61.667 21.834 102 69.501
s59.833 110.167 58.5 187.5s-48.666 167.333 -141.999 270z" />
    <glyph glyph-name="percent" unicode="%" horiz-adv-x="1007" 
d="M991 1569c0.666992 -14 4.66797 -21.0039 12.001 -21.0039c-110 -130 -205.833 -269.833 -287.5 -419.5s-167.167 -323.167 -256.5 -520.5s-133.666 -302 -132.999 -314l2 -32c21.333 -28 84.666 -34.333 189.999 -19c34 102 83.333 193.667 148 275
c65.333 88.667 136 117 212 85c50.667 -18 77 -48.333 79 -91l-14 -140c-36 -148.667 -105.333 -260.334 -208 -335.001c-41.333 -33.333 -79.666 -50.666 -114.999 -51.999c-56.667 0 -86.334 27 -89.001 81c12 49.333 17 92 15 128
c-191.333 -13.333 -306.333 -60.833 -345 -142.5s-69 -120.167 -91 -115.5c-36.667 2 -55.334 12.333 -56.001 31l-2 42c94 148 186.667 323.333 278 526s170.5 361.667 237.5 477s117.167 215.333 150.5 300c-0.666992 10.667 -89.667 9.33398 -267 -3.99902
c-19.333 -97.333 -46 -165.666 -80 -204.999c-68 -104 -137 -148.667 -207 -134c-21.333 6 -33 26.667 -35 62c-9.33301 198 54.334 353.667 191.001 467c75.333 -67.333 136.666 -103.166 183.999 -107.499s109 0.833984 185 15.501s162.667 64.667 260 150
c12 8 26 12.333 42 13zM213.001 1157c-4 -41.333 10.333 -58 43 -50c64 67.333 98.667 140 104 218v10c-0.666992 14.667 -8.33398 21.667 -23.001 21l-21 -1c-21.333 -0.666992 -55.666 -66.667 -102.999 -198zM640.001 213.996l-0.999023 -52
c14 -28.667 26.667 -42.667 38 -42l32 1c89.333 72 139.666 168.667 150.999 290l-3 64c-0.666992 14 -8 20.667 -22 20l-32 -2c-60 -13.333 -114.333 -106.333 -163 -279z" />
    <glyph glyph-name="ampersand" unicode="&#x26;" horiz-adv-x="1251" 
d="M494 345c25.333 -37.333 55.666 -78 90.999 -122c26 2.66699 73.5 40.667 142.5 114s145.833 166 230.5 278l45 9c-132 -191.333 -241.333 -324 -328 -398c-16 -16 -25.667 -34.667 -29 -56c38.667 -54 98.334 -72 179.001 -54c37.333 -16 48.833 -38.833 34.5 -68.5
s-47.666 -44.5 -99.999 -44.5s-105.833 31 -160.5 93l-59 -3c-158 -114.667 -266.5 -163.334 -325.5 -146.001s-85.833 57.333 -80.5 120s80.666 150.667 225.999 264c-50.667 74 -69.667 155.667 -57 245s77 146.333 193 171s189.333 -3.66602 220 -84.999
s-43.333 -187 -222 -317zM467 405c94.667 57.333 145.334 117.668 152.001 181.001s-22 92.666 -86 87.999s-106.833 -33 -128.5 -85s-0.833984 -113.333 62.499 -184zM499 153.002l-93 112.998c-78.667 -44.667 -127.5 -93.167 -146.5 -145.5s-1.66699 -77.166 52 -74.499
s116.167 38.334 187.5 107.001z" />
    <glyph glyph-name="quotesingle" unicode="'" horiz-adv-x="434" 
d="M331 1647c46.667 -60.667 56.6689 -118.667 30.002 -174s-49.334 -106.166 -68.001 -152.499s-38.667 -91.333 -60 -135s-37.333 -66.334 -48 -68.001s-11.5 20.333 -2.5 66s19.667 93.834 32 144.501s22.666 96.667 30.999 138s18 78.166 29 110.499
s29.833 55.833 56.5 70.5z" />
    <glyph glyph-name="parenleft" unicode="(" horiz-adv-x="689" 
d="M334 -510c-2.66699 -54 -47 -21.3311 -133 98.002s-139.5 286.666 -160.5 501.999s-1.5 428.833 58.5 640.5s131.167 383.334 213.5 515.001s160.833 234.5 235.5 308.5s116.334 102.833 125.001 86.5s-21.5 -65.5 -90.5 -147.5s-146.167 -219.333 -231.5 -412
s-141 -399.334 -167 -620.001s-24.833 -407.334 3.5 -560.001s77.166 -289.667 146.499 -411z" />
    <glyph glyph-name="parenright" unicode=")" horiz-adv-x="605" 
d="M328 1666c36 -22.667 89.1689 -124.498 159.502 -305.498s97 -390.333 80 -628s-61.667 -435.834 -134 -594.501s-146.333 -284 -222 -376s-160.834 -175.333 -255.501 -250s-144 -99 -148 -73s13.667 54.5 53 85.5s103 97.833 191 200.5s168.333 240.5 241 413.5
s118.5 352.833 137.5 539.5s13.667 357.334 -16 512.001s-55.334 257.667 -77.001 309s-37.667 97.666 -48 138.999s2.5 50.666 38.5 27.999z" />
    <glyph glyph-name="asterisk" unicode="*" horiz-adv-x="818" 
d="M542 1173l0.00195312 -7.00586c64 -114 95 -178.667 93 -194s-12.667 -21.666 -32 -18.999s-50.5 36.334 -93.5 101.001s-68.667 94.834 -77 90.501s-23.833 -24 -46.5 -59s-42.667 -71.167 -60 -108.5s-33.833 -60.666 -49.5 -69.999s-28.667 -8.16602 -39 3.50098
s-9.83301 28 1.5 49s33.833 59.333 67.5 115s50.5 84.834 50.5 87.501s-2.66699 5.16699 -8 7.5s-25.166 3.33301 -59.499 3s-69.833 -4.66602 -106.5 -12.999s-59.167 -8 -67.5 1s-6.83301 21.667 4.5 38s59 28.166 143 35.499s126 12.166 126 14.499
s-10.667 30.833 -32 85.5s-37.333 92.167 -48 112.5s-14 40 -10 59s17.667 25.667 41 20s46.333 -42.167 69 -109.5s36.5 -102.166 41.5 -104.499s10 -3.5 15 -3.5s31.333 32.667 79 98s83.167 96.5 106.5 93.5s24.166 -19 2.49902 -48s-51.167 -66.167 -88.5 -111.5
s-56 -72 -56 -80s4.83301 -11.667 14.5 -11s38.334 1.5 86.001 2.5s81.167 0.666992 100.5 -1s28.166 -8.16699 26.499 -19.5s-26.834 -20.333 -75.501 -27s-88.334 -17 -119.001 -31z" />
    <glyph glyph-name="plus" unicode="+" horiz-adv-x="874" 
d="M480 730l-26.999 -114l-12 -87c12 -0.666992 99.333 -2.66699 262 -6c-30.667 -50 -82.334 -76.167 -155.001 -78.5s-115.334 -6.83301 -128.001 -13.5l-27 -144l-16 -98c-6.66699 -61.333 -25.167 -75.333 -55.5 -42s-43.5 78.333 -39.5 135l16 148c-48 -2 -72 -1 -72 3
l-65 -6h-46c-36.667 0 -55 9 -55 27c20 41.333 103 61 249 59c30.667 174.667 73 266.667 127 276c36.667 0 51.334 -19.667 44.001 -59z" />
    <glyph glyph-name="comma" unicode="," horiz-adv-x="373" 
d="M208 241c46.667 -23.333 54.6709 -72.832 24.0039 -148.499s-73.334 -146.834 -128.001 -213.501c-44.667 -58 -101.334 -109.333 -170.001 -154c-19.333 16 -12.333 37.333 21 64s68.166 63.5 104.499 110.5s59.166 96.167 68.499 147.5l3 53
c-6 19.333 -10.333 39.833 -13 61.5s2.5 41 15.5 58s37.833 24.167 74.5 21.5z" />
    <glyph glyph-name="hyphen" unicode="-" horiz-adv-x="804" 
d="M534 374c-57.333 -2 -114.5 -4.16406 -171.5 -6.49707s-120 -7 -189 -14s-80.833 3.66699 -35.5 32s97.333 43.666 156 45.999s99.667 3.16602 123 2.49902s45.333 -1 66 -1c129.333 10.667 182 7.66699 158 -9s-59.667 -33.334 -107 -50.001z" />
    <glyph glyph-name="hyphen" unicode="&#xad;" horiz-adv-x="804" 
d="M534 374c-57.333 -2 -114.5 -4.16406 -171.5 -6.49707s-120 -7 -189 -14s-80.833 3.66699 -35.5 32s97.333 43.666 156 45.999s99.667 3.16602 123 2.49902s45.333 -1 66 -1c129.333 10.667 182 7.66699 158 -9s-59.667 -33.334 -107 -50.001z" />
    <glyph glyph-name="period" unicode="." horiz-adv-x="445" 
d="M200 195h27c13.333 0 27 -13.667 41 -41v-27c-6.66699 -91.333 -34 -137 -82 -137c-24 0 -46.667 22.667 -68 68c32 91.333 59.333 137 82 137z" />
    <glyph glyph-name="slash" unicode="/" horiz-adv-x="328" 
d="M528 1339c-5.33301 -56.667 -47 -197.667 -125 -423l-241 -602c-87.333 -286 -150.333 -433.333 -189 -442s-25.5 83.333 39.5 276s123.5 348.667 175.5 468c242 718 373.333 1033.67 394 947c3.33301 -94 -14.667 -168.667 -54 -224z" />
    <glyph glyph-name="zero" unicode="0" horiz-adv-x="677" 
d="M441 1475c93.333 -4.66699 146.665 -44.667 159.998 -120c22 -146 10 -343 -36 -591c-62.667 -260 -138.667 -450.333 -228 -571c-34.667 -82 -91.667 -142.667 -171 -182s-155.166 -29 -227.499 31s-94.166 208.667 -65.499 446c122.667 556.667 312 885.667 568 987z
M19.999 227c26 -110 63.6689 -153.167 113.002 -129.5s102.666 83.167 159.999 178.5c75.333 109.333 131.333 256 168 440c33.333 130.667 52.833 244 58.5 340s5.16699 165.167 -1.5 207.5s-19.334 74.5 -38.001 96.5s-50.667 30.667 -96 26
c-108.667 -48 -204 -220.667 -286 -518c-71.333 -232 -97.333 -445.667 -78 -641z" />
    <glyph glyph-name="one" unicode="1" horiz-adv-x="597" 
d="M579 1440c-77.333 -183.333 -129.336 -323.997 -156.003 -421.997l-70.5 -265.5c-20.333 -79 -39.666 -179.833 -57.999 -302.5s-33.5 -236.167 -45.5 -340.5s-28.333 -155.5 -49 -153.5s-36.334 11.667 -47.001 29s-14.667 58.333 -12 123s7.33398 120.167 14.001 166.5
s19.834 111.666 39.501 195.999l65.5 284.5l35 125l-68 -69c-98.667 -124 -167.5 -204.833 -206.5 -242.5s-74.333 -65 -106 -82s-43.167 -11.833 -34.5 15.5s26.5 54.666 53.5 81.999s63.833 67.666 110.5 120.999c114.667 131.333 233.334 340 356.001 626
c23.333 54.667 51 88.5 83 101.5s64 15.5 96 7.5z" />
    <glyph glyph-name="two" unicode="2" horiz-adv-x="970" 
d="M337 228c74.667 -108 164.67 -165.503 270.003 -172.503s201.666 54.833 288.999 185.5c51.333 -2.66699 37.666 -46.834 -41.001 -132.501s-156.834 -130.167 -234.501 -133.5s-147.334 8.5 -209.001 35.5s-119.5 74.5 -173.5 142.5
c-142 -129.333 -256.167 -185 -342.5 -167s-106 85.667 -59 203s109.667 217.5 188 300.5s132.833 100.833 163.5 53.5s65.667 -118.333 105 -213c113.333 124 213.333 258.833 300 404.5s131.834 271.334 135.501 377.001s-32.5 170.834 -108.5 195.501
s-147.667 3.66699 -215 -63s-100.333 -128 -99 -184c-5.33301 -54 -22.833 -77.167 -52.5 -69.5s-30.834 53.334 -3.50098 137.001s83.5 155.834 168.5 216.501s176.667 79 275 55s151.333 -95.5 159 -214.5s-32.166 -254 -119.499 -405s-219.333 -334.833 -396 -551.5z
M186.003 251.997c-8.66699 21.333 -28 60.833 -58 118.5s-67.5 52.5 -112.5 -15.5s-73.5 -145.333 -85.5 -232s29.833 -92.167 125.5 -16.5s139.167 124.167 130.5 145.5z" />
    <glyph glyph-name="three" unicode="3" horiz-adv-x="726" 
d="M446 1015c85.333 -31.333 137.001 -91.998 155.001 -181.998s0.5 -203 -52.5 -339s-133.667 -252 -242 -348s-211 -142.667 -308 -140s-152.167 36.834 -165.5 102.501s3.66699 125.334 51 179.001s88.5 75.5 123.5 65.5s53 -30.833 54 -62.5
s-18.333 -58.334 -58 -80.001s-60.167 -46.667 -61.5 -75s22 -42 70 -41s105.5 25 172.5 72s127.833 111.333 182.5 193s89.667 171.667 105 270s12.666 163.833 -8.00098 196.5s-44.834 50.834 -72.501 54.501s-59.167 -6.83301 -94.5 -31.5s-59.333 -50 -72 -76
s-33.5 -41.833 -62.5 -47.5s-39.833 12.166 -32.5 53.499s49 90.333 125 147c148.667 168 224 273.667 226 317s-4.66699 69.666 -20 78.999s-31.666 12.666 -48.999 9.99902s-33.5 -12.834 -48.5 -30.501s-34.5 -23.834 -58.5 -18.501l-10 25
c52 84 103.833 130.5 155.5 139.5s93.167 3.16699 124.5 -17.5s48.333 -50.667 51 -90s-2.83301 -75.166 -16.5 -107.499s-40.5 -70.333 -80.5 -114s-67.667 -78.167 -83 -103.5z" />
    <glyph glyph-name="four" unicode="4" horiz-adv-x="775" 
d="M89 879c107.333 140 193.006 293.326 257.006 459.993c16.667 60 61.667 99 135 117c60.667 -42.667 -47 -253.334 -323 -632.001c-58.667 -85.333 -95.334 -141.666 -110.001 -168.999c-2.66699 -33.333 23.333 -43 78 -29c69.333 15.333 127.166 33.833 173.499 55.5
s85.166 60.834 116.499 117.501l157 431c44 126.667 98 205.334 162 236.001s50.333 -37.666 -41 -204.999l-119 -253l-35 -114c-50.667 -128.667 -36 -170.667 44 -126l91 41l111 63l-16 -66c-63.333 -50.667 -119 -87.667 -167 -111
c-54.667 -23.333 -95.667 -48.666 -123 -75.999c-32 -136 -51.833 -237 -59.5 -303s-13.834 -123.333 -18.501 -172s-20.334 -103 -47.001 -163c-64.667 -33.333 -94.334 -14.333 -89.001 57s26 197.333 62 378c38 137.333 38.5 196.666 1.5 177.999
s-108.667 -43.667 -215 -75s-164.833 -50.666 -175.5 -57.999s-26 -13.166 -46 -17.499s-36.833 1.83398 -50.5 18.501s-18.667 32.334 -15 47.001s32 58.167 85 130.5z" />
    <glyph glyph-name="five" unicode="5" horiz-adv-x="792" 
d="M914 1443l45.002 1l23 -30l-32 -39c-151.333 -29.333 -343 -60.666 -575 -93.999c-114 -90.667 -164 -189 -150 -295l138 40c130 -31.333 194.667 -110 194 -236l5 -107c6.66699 -96 -20.333 -214.333 -81 -355c-48 -74 -95.667 -131.333 -143 -172
c-104.667 -117.333 -224 -176 -358 -176c-95.333 0 -153.333 47.667 -174 143c-9.33301 94 35 173.333 133 238h33c0 -14 3.66699 -21 11 -21c-29.333 -56 -44 -92.333 -44 -109v-44c20 -58 46.333 -92.333 79 -103h83c79.333 3.33301 165.333 74.666 258 213.999
c55.333 79.333 91.666 174.666 108.999 285.999c17.333 223.333 -39.334 325.333 -170.001 306c-33.333 0 -81.666 -32 -144.999 -96s-100.666 -67.667 -111.999 -11c15.333 72 46 181 92 327c53.333 186.667 139.666 283.334 258.999 290.001l242 7
c163.333 14.667 256.666 26.667 279.999 36z" />
    <glyph glyph-name="six" unicode="6" horiz-adv-x="718" 
d="M564 1434c96 -20.667 123.997 -106.668 83.9971 -258.001c-80 -70.667 -100.333 -34.667 -61 108l-34 39l-53 9c-141.333 -21.333 -283.666 -236 -426.999 -644c-36 -88.667 -66 -220.667 -90 -396c90.667 173.333 188.167 306.666 292.5 399.999s190.5 146 258.5 158
c38.667 -15.333 58.667 -56.666 60 -123.999c-46 -186 -114.667 -340 -206 -462c-33.333 -69.333 -90.666 -138.333 -171.999 -207c-76 -51.333 -148.833 -70.166 -218.5 -56.499s-109.5 74.167 -119.5 181.5c-15.333 260.667 77.334 569 278.001 925
c126 220.667 262 329.667 408 327zM33.9971 213.999c2 -58 36.333 -89.001 103 -93.001c88.667 38.667 167.667 113.667 237 225c68.667 137.333 105.667 241.333 111 312l3 49c0.666992 12.667 -5.33301 19.334 -18 20.001l-20 1c-35.333 2 -100.333 -50 -195 -156
c-143.333 -162 -217 -281.333 -221 -358z" />
    <glyph glyph-name="seven" unicode="7" horiz-adv-x="699" 
d="M776 1473c8.66699 -70 -29.666 -162.669 -114.999 -278.002s-165.333 -244.666 -240 -387.999s-135.167 -274.666 -181.5 -393.999s-71.333 -223.166 -75 -311.499s-30.834 -126.833 -81.501 -115.5c-36 32 -50.833 77.167 -44.5 135.5s24.5 135.666 54.5 231.999
s109.833 254.5 239.5 474.5l252 431c38.333 67.333 -28.834 98 -201.501 92s-266.667 -9 -282 -9s-36.166 4.33301 -62.499 13s-37.833 38.667 -34.5 90c150 -4 279 -3 387 3s182.667 11.667 224 17s95 8 161 8z" />
    <glyph glyph-name="eight" unicode="8" horiz-adv-x="654" 
d="M533 1481l10.9971 0.998047c64 2.66699 97.667 -33.666 101 -108.999c-40 -221.333 -143.667 -416.333 -311 -585c6.66699 -42.667 39.667 -157 99 -343c4 -130 -21.667 -232.5 -77 -307.5s-122.166 -124.167 -200.499 -147.5s-155.666 -18.166 -231.999 15.501
s-106.333 103.167 -90 208.5s103.833 236.333 262.5 393c58.667 56 94.334 102 107.001 138c-36 74 -65.333 173.333 -88 298c0 210.667 97 351.667 291 423l42 -9c26 14.667 54.333 22.667 85 24zM326.997 888.998c148 167.333 219.332 312.999 213.999 436.999
c-1.33301 38.667 -16.666 59.334 -45.999 62.001c-60 -2.66699 -112.333 -33.5 -157 -92.5s-69 -117 -73 -174s-3.5 -102.833 1.5 -137.5s9.5 -62.5 13.5 -83.5s19.667 -24.833 47 -11.5zM-33.0039 187.997c6.66699 -72.667 35.001 -110.667 85.001 -114
c79.333 -19.333 150.666 24 213.999 130c32.667 72.667 47 137 43 193c-28.667 183.333 -69.667 249.333 -123 198c-136.667 -141.333 -209.667 -277 -219 -407z" />
    <glyph glyph-name="nine" unicode="9" horiz-adv-x="721" 
d="M699 1512c17.333 1.33301 35.3291 -14 53.9961 -46c2 -12.667 -36 -134.667 -114 -366c-48.667 -290 -93 -491 -133 -603c-79.333 -190 -167.666 -321.833 -264.999 -395.5s-180 -112.334 -248 -116.001s-119.833 7.66602 -155.5 33.999s-53.5 66 -53.5 119
s16.833 87.333 50.5 103s62.5 16.834 86.5 3.50098s35.667 -43.166 35 -89.499s20 -74.833 62 -85.5c163.333 -2.66699 296 148.333 398 453c54 180 88 330.333 102 451l-13 86c-1.33301 9.33301 -9 18.333 -23 27c-16 -45.333 -82.667 -136.666 -200 -273.999
c-31.333 -30.667 -76.666 -55.334 -135.999 -74.001c-57.333 6 -83.333 31 -78 75c8.66699 160 57.334 297 146.001 411c138 147.333 229.667 221 275 221c28 20.667 66.333 12.667 115 -24c14.667 29.333 46.334 59.333 95.001 90zM174.996 986l-10.001 -95.002
c16 -16.667 29.667 -24.667 41 -24l10 2c160 134.667 260 265.334 300 392.001c-13.333 47.333 -28.666 70 -45.999 68l-61 -6c-83.333 -7.33301 -161.333 -119.666 -234 -336.999z" />
    <glyph glyph-name="colon" unicode=":" horiz-adv-x="437" 
d="M292 573c35.333 -1.33301 55.333 -26.333 60 -75c-50.667 -68.667 -100.667 -102 -150 -100c-23.333 11.333 -34 33 -32 65l1 35c40 52 80.333 77 121 75zM228 208c19.333 -0.666992 36.334 -19.332 51.001 -55.999c-28.667 -78.667 -60.334 -122 -95.001 -130
c-18 1.33301 -40.667 26.666 -68 75.999c2 40 39.333 76.667 112 110z" />
    <glyph glyph-name="semicolon" unicode=";" horiz-adv-x="469" 
d="M262 234l-26.001 1.99902c-12 0.666992 -19 17.334 -21 50.001c12.667 82.667 33.167 123 61.5 121s43.833 -24.5 46.5 -67.5s-17.666 -78.167 -60.999 -105.5zM242.999 142.999c38 -21.333 44.668 -66.499 20.001 -135.499s-61 -131.5 -109 -187.5
c-68.667 -82 -130.667 -132.333 -186 -151c-22.667 10.667 -24.167 24 -4.5 40s46.667 42.5 81 79.5s59.166 73.5 74.499 109.5s23.333 71.667 24 107s1.5 60.666 2.5 75.999s10 31 27 47s40.5 21 70.5 15z" />
    <glyph glyph-name="semicolon" unicode="&#x37e;" horiz-adv-x="469" 
d="M262 234l-26.001 1.99902c-12 0.666992 -19 17.334 -21 50.001c12.667 82.667 33.167 123 61.5 121s43.833 -24.5 46.5 -67.5s-17.666 -78.167 -60.999 -105.5zM242.999 142.999c38 -21.333 44.668 -66.499 20.001 -135.499s-61 -131.5 -109 -187.5
c-68.667 -82 -130.667 -132.333 -186 -151c-22.667 10.667 -24.167 24 -4.5 40s46.667 42.5 81 79.5s59.166 73.5 74.499 109.5s23.333 71.667 24 107s1.5 60.666 2.5 75.999s10 31 27 47s40.5 21 70.5 15z" />
    <glyph glyph-name="less" unicode="&#x3c;" horiz-adv-x="959" 
d="M715 832l8 -22.999c-2.66699 -22 -76.667 -77 -222 -165l-233 -149c-4.66699 -42 51.333 -107.667 168 -197c117.333 -74 186.5 -155.333 207.5 -244s-5.33301 -101.334 -79 -38.001l-263.5 224c-54 41.333 -107 78.333 -159 111c-39.333 53.333 -40 100.5 -2 141.5
s107 87.167 207 138.5c50 30 164.667 94.333 344 193z" />
    <glyph glyph-name="equal" unicode="=" horiz-adv-x="1143" 
d="M294 269c66.667 12 119.831 17.834 159.498 17.501s72.834 -0.5 99.501 -0.5s92 -3.66699 196 -11c128.667 -32 -19.666 -61.667 -444.999 -89c-40.667 7.33301 -61 21.666 -61 42.999c0 6.66699 17 20 51 40zM351.997 483.001c66.667 12 119.833 18 159.5 18h99.5
c26.667 0 92 -4 196 -12c128.667 -31.333 -20 -60.666 -446 -87.999c-40 7.33301 -60 21.666 -60 42.999c0 6.66699 17 19.667 51 39z" />
    <glyph glyph-name="greater" unicode="&#x3e;" horiz-adv-x="938" 
d="M139 6l-8 23c2.66699 22 76.667 83.667 222 185l192 149c4.66699 42 -51.333 107.667 -168 197c-118.667 62.667 -187.5 137.667 -206.5 225s7.66699 99.5 80 36.5s147.5 -123 225.5 -180s143 -101.833 195 -134.5c39.333 -53.333 40 -100.5 2 -141.5
s-95.5 -87.5 -172.5 -139.5s-189.5 -122.667 -337.5 -212z" />
    <glyph glyph-name="question" unicode="?" horiz-adv-x="648" 
d="M428 717c169.333 154 274.501 277.832 315.501 371.499s37.167 169.334 -11.5 227.001s-118.334 71.834 -209.001 42.501s-159.667 -115.333 -207 -258c14 -82.667 -2.66699 -120.834 -50 -114.501s-61.666 65 -42.999 176s96.334 202.167 233.001 273.5
s249.667 71.666 339 0.999023s120.166 -169 92.499 -295s-115.334 -247.333 -263.001 -364s-234.167 -212.167 -259.5 -286.5s-48.5 -114.666 -69.5 -120.999s-24 40 -9 139s62.167 168.5 141.5 208.5zM275.001 133.999l54 0.000976562v-55c0 -12 -27.333 -39 -82 -81h-41
v27c0 49.333 23 85.666 69 108.999z" />
    <glyph glyph-name="at" unicode="@" horiz-adv-x="1700" 
d="M1171 467c-80.667 -60.667 -155.338 -84.332 -224.005 -70.999s-85 89.333 -49 228c-55.333 -85.333 -97.333 -141.5 -126 -168.5s-60.167 -47.333 -94.5 -61s-68.666 -16.167 -102.999 -7.5s-57.166 27.667 -68.499 57s-10.166 77 3.50098 143s47.5 134 101.5 204
s108.833 118.833 164.5 146.5s106.834 40.167 153.501 37.5c110 2 168.333 -12 175 -42c-56.667 -87.333 -96.5 -182 -119.5 -284s-15 -158.5 24 -169.5s85.5 7.16699 139.5 54.5c56.667 48.667 98.5 109.5 125.5 182.5s37.167 156.333 30.5 250
s-31.667 164.834 -75 213.501s-97.5 78.5 -162.5 89.5s-136.167 5 -213.5 -18s-149.833 -62.333 -217.5 -118s-128 -126.334 -181 -212.001s-89.5 -175.334 -109.5 -269.001s-21.5 -187.834 -4.5 -282.501s67 -169.5 150 -224.5s177.833 -74.833 284.5 -59.5
s201.334 52 284.001 110s145.334 114.833 188.001 170.5s66.5 74.334 71.5 56.001s-17.167 -58 -66.5 -119s-106.166 -116 -170.499 -165s-135.5 -87.333 -213.5 -115s-157.667 -38.5 -239 -32.5c-110 1.33301 -198.333 32.333 -265 93s-111.667 131.334 -135 212.001
s-24 184.334 -2 311.001s61.833 237 119.5 331s120 169.833 187 227.5s140.667 105.667 221 144s167.166 57.166 260.499 56.499s175.166 -28.667 245.499 -84s113.5 -133.333 129.5 -234s3.5 -205.334 -37.5 -314.001s-101.5 -197.667 -181.5 -267zM630.996 596.002
c-3.33301 -47.333 3.99805 -75 21.998 -83l27 -3c64 24.667 117.333 72.834 160 144.501s64.834 129 66.501 172s-18.666 60.167 -60.999 51.5s-84.833 -39.334 -127.5 -92.001s-71.667 -116 -87 -190z" />
    <glyph glyph-name="A" unicode="A" 
d="M704 638l-0.00195312 -9.00098c10.667 -24.667 33 -36.334 67 -35.001l104 13c15.333 2 31.833 45.667 49.5 131s39.834 174 66.501 266s38.834 149.5 36.501 172.5s-15.333 25.667 -39 8s-48 -46.667 -73 -87s-52.167 -86.666 -81.5 -138.999
s-50.833 -105.166 -64.5 -158.499s-35.5 -107.333 -65.5 -162zM1050 2.99902c-0.666992 -0.666992 -1.66504 -1.33496 -2.99805 -2.00195c-88.667 -30 -147.334 33 -176.001 189c-7.33301 52.667 -4 145 10 277c-14 23.333 -82.667 33 -206 29
c-41.333 -22.667 -80.166 -69.667 -116.499 -141s-88 -148 -155 -230s-148.667 -137.833 -245 -167.5s-171.833 -26.667 -226.5 9s-75 80.5 -61 134.5s40.667 78.333 80 73s58.166 -34.166 56.499 -86.499s34.666 -76.5 108.999 -72.5s164.5 69.333 270.5 196
c65.333 100.667 115 199.334 149 296.001l-80 -15c-90 -38.667 -116.5 -38 -79.5 2s86.167 68.667 147.5 86c49.333 8 92 62.667 128 164l140 295.5c34 70.333 73 138.333 117 204s97.333 115 160 148s106.667 48.5 132 46.5s38 -9.33301 38 -22l-87 -215l-86 -273l-55 -276
c0 -10 13 -25.667 39 -47c90.667 0 169 18.667 235 56v-19c-84.667 -74.667 -149.667 -118 -195 -130s-75.833 -46.5 -91.5 -103.5s-19.167 -123.833 -10.5 -200.5c10 -40.667 27 -70 51 -88c18.667 -2 38 -2 58 0c66 34 148 121.333 246 262h9
c0 -6.66699 3.33301 -10 10 -10c-118.667 -227.333 -222.667 -350.333 -312 -369z" />
    <glyph glyph-name="B" unicode="B" horiz-adv-x="1192" 
d="M605 945l-0.999023 -20.002c-2.66699 -38.667 12.333 -59 45 -61c67.333 11.333 124 49.833 170 115.5s73.333 143.834 82 234.501c2 106.667 -28 155.334 -90 146.001c-72.667 -28.667 -141.334 -167 -206.001 -415zM782.001 23.998
c82 31.333 144.498 62.333 187.498 93s100.5 86.334 172.5 167.001l15 -33c-130 -213.333 -318 -317.666 -564 -312.999c-71.333 4.66699 -123.666 21.334 -156.999 50.001s-44.833 54.5 -34.5 77.5s23 34.167 38 33.5s27.833 -6.83398 38.5 -18.501
s20.334 -23.834 29.001 -36.501s36.5 -18 83.5 -16s98 25.333 153 70s95.833 119.667 122.5 225s18 201 -26 287s-94 130 -150 132c-83.333 30 -132.333 -5 -147 -105c-58.667 -290.667 -123.834 -476.167 -195.501 -556.5s-150.334 -124 -236.001 -131
s-145 2.83301 -178 29.5s-44.167 59.334 -33.5 98.001s37 57.334 79 56.001s62 -22.333 60 -63s20.333 -56.834 67 -48.501s90.334 31.333 131.001 69s75.5 90.167 104.5 157.5s51.167 168.666 66.5 303.999s52.333 298.666 111 489.999c54 124 112 233.333 174 328
c28.667 42.667 15 60.167 -41 52.5s-122.667 -38.667 -200 -93s-131 -135.5 -161 -243.5c-2 -68.667 -32 -101 -90 -97c-20 8.66699 -28.667 29 -26 61c2.66699 55.333 36.667 119.666 102 192.999c90.667 108 181.667 177.167 273 207.5s157.5 45 198.5 44
s82.5 -9.16699 124.5 -24.5s77 -47 105 -95s39.667 -113 35 -195c-11.333 -88 -47.333 -164.333 -108 -229c-47.333 -47.333 -89 -82.666 -125 -105.999c100.667 -50 167.667 -131.5 201 -244.5s28.333 -225.333 -15 -337s-104.666 -191.5 -183.999 -239.5z" />
    <glyph glyph-name="C" unicode="C" horiz-adv-x="1305" 
d="M721 907l76 26.002l84 44c66 26 137 70.667 213 134c84.667 93.333 130.5 160.666 137.5 201.999s-6.16699 55.666 -39.5 42.999c-100 -20.667 -213.667 -103.667 -341 -249c-38 -47.333 -81.333 -114 -130 -200zM514 -1.99805
c-138.667 -82 -256.993 -125.824 -354.993 -131.491s-175.5 9.66602 -232.5 45.999s-87.667 87.166 -92 152.499s17 111.833 64 139.5s65.667 5.16699 56 -67.5s5.16602 -124.834 44.499 -156.501s91.833 -46.667 157.5 -45s131.5 20.167 197.5 55.5s99 66.666 99 93.999
c-24.667 44 -32.167 127 -22.5 249s54.167 276 133.5 462c-34.667 -6.66699 -87.334 -2 -158.001 14c-90 44.667 -132.333 112 -127 202s67 192.667 185 308c120 101.333 246 159 378 173c35.333 0 69.333 -6 102 -18l5 -32c13.333 -58.667 -40.667 -79.334 -162 -62.001
c-83.333 0.666992 -150.333 -15 -201 -47s-90.667 -65.333 -120 -100s-52.166 -67.167 -68.499 -97.5s-22.5 -75.166 -18.5 -134.499c32.667 -81.333 85 -114 157 -98c45.333 -8.66699 104 43.666 176 156.999c156 200.667 276.667 316 362 346
c68.667 35.333 124.334 51 167.001 47c64 -19.333 91.333 -50.666 82 -93.999c9.33301 -121.333 -113.334 -267 -368.001 -437c-88.667 -34 -158 -69.333 -208 -106c-82.667 -69.333 -141.5 -172 -176.5 -308s-39.833 -238.5 -14.5 -307.5s68.5 -102.5 129.5 -100.5
s116.167 19.833 165.5 53.5s94.166 81.667 134.499 144s68.666 135.166 84.999 218.499s-1.83398 128.666 -54.501 135.999c-70.667 6 -154.334 -59 -251.001 -195c-18 -40.667 -32.667 -69.834 -44 -87.501s-26.666 -20.834 -45.999 -9.50098
c62.667 202.667 158.667 338 288 406c50.667 25.333 99 27.666 145 6.99902c45.333 -26.667 67 -78.334 65 -155.001c0 -73.333 -21.167 -155.333 -63.5 -246s-97.5 -171.167 -165.5 -241.5s-135 -113.5 -201 -129.5c11.333 -4 24.666 -7 39.999 -9
c48 -6 99 2.83301 153 26.5s104.167 55.667 150.5 96s101.166 97.833 164.499 172.5l19 -37c-172.667 -251.333 -361.667 -365.666 -567 -342.999c-48.667 2 -102.334 22.333 -161.001 61z" />
    <glyph glyph-name="D" unicode="D" horiz-adv-x="1034" 
d="M414 158c-0.666992 -10 8.33203 -20.3311 26.999 -30.998c130.667 21.333 248.834 120 354.501 296s158.834 346.667 159.501 512c0 150.667 -27.333 257.167 -82 319.5s-105.667 66.5 -153 12.5c-54 -68.667 -91.333 -188.834 -112 -360.501
s-45.334 -316.834 -74.001 -435.501s-68.667 -220 -120 -304v-9zM446.999 27.002l46.999 -19.998c39.333 -15.333 89 -12 149 10s124 61.333 192 118l137 149l15 -33c-130 -213.333 -288.667 -316.666 -476 -309.999c-76 7.33301 -127.667 26 -155 56
c-42.667 1.33301 -121 -31.667 -235 -99h-29c-58.667 2 -85 24.667 -79 68c20 55.333 91 102.333 213 141c31.333 17.333 63 42.666 95 75.999c59.333 104.667 104.333 274.167 135 508.5s75.334 399.666 134.001 495.999s88 150.166 88 161.499c0 10 -8.33301 17 -25 21
s-45.334 3.66699 -86.001 -1s-100.334 -27.167 -179.001 -67.5s-145.334 -96.666 -200.001 -168.999s-76 -128.5 -64 -168.5c-17.333 -71.333 -48.666 -105 -93.999 -101c-20.667 9.33301 -29.667 30.666 -27 63.999c2.66699 46.667 31.667 111.334 87 194.001
c59.333 87.333 121.333 153.166 186 197.499s127.834 78.833 189.501 103.5s131.834 36.667 210.501 36c208.667 -6 328.667 -120 360 -342c23.333 -136.667 18.833 -267.167 -13.5 -391.5s-84 -238.833 -155 -343.5s-139.833 -183.167 -206.5 -235.5
s-138 -91.833 -214 -118.5z" />
    <glyph glyph-name="E" unicode="E" horiz-adv-x="1069" 
d="M834 1420c21.333 14.667 69.834 22.668 145.501 24.001s130.5 -32.667 164.5 -102l15 -51c15.333 -118 -92 -244.333 -322 -379l-171 -71c14 -31.333 37.833 -49.5 71.5 -54.5s74.667 5.83301 123 32.5s69 31.5 62 14.5s-18.833 -33 -35.5 -48s-49.667 -34.333 -99 -58
s-164 -69.834 -344 -138.501c-166.667 -87.333 -267 -170 -301 -248s-29.167 -144.833 14.5 -200.5s110.167 -86.167 199.5 -91.5l110 8c166 36.667 277.333 115.334 334 236.001c32.667 108 5.66699 160.333 -81 157c-99.333 -36 -190 -88.667 -272 -158
c-27.333 0.666992 -41.333 6.33398 -42 17.001l-1 20c171.333 165.333 303.666 242 396.999 230l20 1c61.333 4.66699 98.666 -33.333 111.999 -114v-10c2 -169.333 -108 -309.666 -330 -420.999c29.333 -19.333 -46 -39 -226 -59c-216 3.33301 -346.333 73 -391 209
c-40.667 249.333 176 437.666 650 564.999c-29.333 13.333 -54.333 39.666 -75 78.999l-95 -17c-88.667 -14.667 -167 -15.667 -235 -3c-94.667 18 -151.667 74 -171 168c-9.33301 160 90.334 299.333 299.001 418c91.333 42.667 160.833 68.167 208.5 76.5
s95.5 11.166 143.5 8.49902s88.667 -16 122 -40zM190.001 978.001c35.333 -70 117.667 -100.667 247 -92c78 26.667 116.667 72 116 136c24.667 108 67 199.667 127 275l77 79c-79.333 20.667 -173.333 8 -282 -38c-202.667 -86 -297.667 -206 -285 -360zM674.002 1095
l-29 -87.999c-6 -70 35.667 -84.667 125 -44c84 33.333 151.167 71.666 201.5 114.999s81.333 82.666 93 117.999s9.5 69.333 -6.5 102s-49.667 49.334 -101 50.001c-124 -14.667 -218.333 -99 -283 -253zM504.002 27.002l310.501 99.499c57 19 129.167 83.167 216.5 192.5
l15 -27c-108.667 -249.333 -289.334 -337.666 -542.001 -264.999z" />
    <glyph glyph-name="F" unicode="F" horiz-adv-x="907" 
d="M134 1112l-31.9961 12c48 86.667 102.5 151.334 163.5 194.001s129.667 72.834 206 90.501s138.666 25.667 186.999 24s93.5 -5.33398 135.5 -11.001s97 -7.5 165 -5.5s159.667 27 275 75l10 1v-20c-36 -51.333 -100 -90.333 -192 -117s-186.333 -33.667 -283 -21
s-164 -41.166 -202 -161.499s-59.333 -232.5 -64 -336.5c0 -30.667 28.5 -48.5 85.5 -53.5s124.333 0 202 15s170.834 44.833 279.501 89.5l11 -20c-51.333 -43.333 -105.5 -78.833 -162.5 -106.5s-112.833 -47 -167.5 -58s-114.334 -20.167 -179.001 -27.5
s-107.667 -65.5 -129 -174.5s-48.833 -201.5 -82.5 -277.5s-76.167 -136.667 -127.5 -182s-110.333 -70 -177 -74s-114.834 14.667 -144.501 56s-36.334 82 -20.001 122s45.5 60.333 87.5 61l21 -40c-16.667 -54.667 -10.334 -92.834 18.999 -114.501s63 -24.167 101 -7.5
s71.333 46 100 88s57.5 118.5 86.5 229.5s55.333 258 79 441s46.167 306.5 67.5 370.5l45 137.5c8.66699 27.667 -26.833 32.667 -106.5 15s-165.5 -88.834 -257.5 -213.501z" />
    <glyph glyph-name="G" unicode="G" horiz-adv-x="1325" 
d="M321 257c11.333 115.333 34.0029 202.331 68.0029 260.998c-72.667 2 -122.334 7 -149.001 15c-137.333 22 -196.166 108 -176.499 258s134.167 306.333 343.5 469c155.333 103.333 299 162 431 176c64.667 2 102 -12.667 112 -44
c23.333 -67.333 -35.334 -82.666 -176.001 -45.999l-73 -2c-120 -42.667 -237.667 -117 -353 -223c-128.667 -127.333 -194.667 -253.666 -198 -378.999c15.333 -110 110.666 -142.333 285.999 -97c43.333 106 124 233.333 242 382c138 150.667 236 244.167 294 280.5
s105.5 59.333 142.5 69s73.5 16.167 109.5 19.5s68.667 -7.5 98 -32.5s45.666 -61.167 48.999 -108.5s-11.167 -104.5 -43.5 -171.5s-101.5 -146 -207.5 -237s-208.333 -157.167 -307 -198.5s-169 -68 -211 -80s-74 -38 -96 -78c-67.333 -122.667 -80 -235.667 -38 -339
c42.667 -72.667 123 -89 241 -49c94 44.667 162.667 90 206 136s77.666 91.333 102.999 136c36.667 59.333 59.667 111.333 69 156l72 120c42.667 -2 60 -28.667 52 -80c-8.66699 -54.667 -45 -167.667 -109 -339c0.666992 36.667 -71 -2 -215 -116
c-129.333 -102 -236 -154.5 -320 -157.5s-147.667 20.5 -191 70.5s-61.666 126.333 -54.999 229zM569.003 656.998l90 21l179 78c114 50 215.833 126.833 305.5 230.5s125.167 193.5 106.5 269.5l-51 23c-114.667 -20 -230 -89.833 -346 -209.5
s-210.667 -257.167 -284 -412.5zM1148 390.998c2 -6.66699 -25 -147.002 -81 -421.002c-67.333 -247.333 -138.333 -422.333 -213 -525c-114.667 -162.667 -265.667 -241 -453 -235c-78.667 9.33301 -138 51.333 -178 126c-44.667 128.667 -22 206.334 68 233.001l60 -10
c46.667 -41.333 50 -84.666 10 -129.999c-14.667 -68 2.83301 -112.833 52.5 -134.5s106.334 -18.5 170.001 9.5s126.167 87 187.5 177c60 95.333 116.333 242.333 169 441c13.333 140 19.666 213.333 18.999 220l-1 11l-10 -1c-12 -1.33301 -26.333 -5 -43 -11z
M1069 126.996c56.667 18.667 128.667 82.667 216 192l15 -27c-64 -147.333 -153.333 -238.333 -268 -273l30 105c2 0.666992 4.33301 1.66699 7 3z" />
    <glyph glyph-name="H" unicode="H" horiz-adv-x="1424" 
d="M555 571c-60 -36.667 -130 -102.167 -210 -196.5s-121.167 -176 -123.5 -245s16.167 -104.833 55.5 -107.5s76.833 14.833 112.5 52.5s68.167 88.5 97.5 152.5s54 139.667 74 227s18 126.333 -6 117zM1047 867c-71.333 -51.333 -112.003 -167.333 -122.003 -348
s3.66699 -299 41 -355s83.833 -79.833 139.5 -71.5s121.834 49.166 198.501 122.499c50 60.667 86.333 106.334 109 137.001l10 -20v-11c-63.333 -136 -153 -238.667 -269 -308c-51.333 -20 -98 -24.333 -140 -13c-87.333 16.667 -147.666 73.334 -180.999 170.001
c-41.333 140 -29 345 37 615c-61.333 -40 -118.333 -83.333 -171 -130c-22.667 -148 -65.834 -293 -129.501 -435s-145.5 -236.667 -245.5 -284s-167.333 -21.333 -202 78c-15.333 133.333 73.334 303 266.001 509l155.5 146c41 38.667 70 97.167 87 175.5
s31.833 149.833 44.5 214.5s19 121 19 169c-22.667 26 -73.5 43 -152.5 51s-161.167 -18.333 -246.5 -79s-127 -136.334 -125 -227.001c30.667 -19.333 47.167 -44 49.5 -74s-8.83398 -52.333 -33.501 -67s-52.667 -9.83398 -84 14.499s-38.166 81.833 -20.499 172.5
s84.334 172 200.001 244s266.5 94.667 452.5 68l84 70l39 -30c-76.667 -276 -120.667 -475.667 -132 -599c58.667 37.333 102 66.333 130 87s65.167 86.167 111.5 196.5s90 196.833 131 259.5s85.333 118.667 133 168s96 82.5 145 99.5s93.167 20.833 132.5 11.5
s65.333 -41.666 78 -96.999c2 -112 -64 -224.333 -198 -337l-155.5 -137.5zM1390 1492c-86 -28 -180.669 -137.999 -284.002 -329.999c-46 -92 -69.167 -149.667 -69.5 -173s32.834 -10.833 99.501 37.5s123.334 91.166 170.001 128.499s84.667 74 114 110
s48.833 63.5 58.5 82.5s17 39.333 22 61s4 40.667 -3 57s-21.167 27 -42.5 32s-43 3.16699 -65 -5.5z" />
    <glyph glyph-name="I" unicode="I" horiz-adv-x="1104" 
d="M1108 1514l22.002 11.999l19 -10c1.33301 -36.667 -40.667 -78.667 -126 -126c-132 -51.333 -223 -75 -273 -71l-49 -26c-67.333 -79.333 -123.666 -271 -168.999 -575c-18.667 -146.667 -34.334 -252.334 -47.001 -317.001s-18.667 -119 -18 -163l2 -59
c0.666992 -50 47 -85 139 -105c134.667 -13.333 262.667 41.334 384 164.001c72 75.333 102 88 90 38c-98 -184 -285.667 -291.333 -563 -322c-155.333 43.333 -268.833 67.833 -340.5 73.5s-132.334 4 -182.001 -5s-125.834 -46.167 -228.501 -111.5l-11 20v9
c40 76 156.333 143.667 349 203l157 3c69.333 50 113.333 189.333 132 418c19.333 141.333 39.666 264 60.999 368s55 210 101 318v39c-0.666992 10 -10.667 19.667 -30 29l-70 -1c-86 10 -135 15.333 -147 16c-26 8 -63.333 -21.667 -112 -89
c-37.333 -16 -62.666 -14.333 -75.999 5l13 28l45 31c58.667 67.333 87.667 118.333 87 153h40c0.666992 -21.333 119 -39.666 355 -54.999l154 9l101 21c100 28.667 163.667 54.667 191 78z" />
    <glyph glyph-name="J" unicode="J" horiz-adv-x="883" 
d="M620 1272l7.99805 59.002c-6 12.667 -9.33301 22.334 -10 29.001h-9c-93.333 -0.666992 -176.666 -5.66699 -249.999 -15s-147 -40 -221 -92l-18 -41l-25 -10l-22 11l-7 32l19 41c89.333 107.333 248.333 163 477 167c78 7.33301 141 8.16602 189 2.49902
s114.667 -7.83398 200 -6.50098c113.333 2 216.333 33.333 309 94l9 -18l-7 -14c-0.666992 -26.667 -58.667 -62.334 -174 -107.001c-81.333 -18.667 -143.5 -29.667 -186.5 -33s-78 -15 -105 -35s-50.667 -56.5 -71 -109.5s-46.5 -162 -78.5 -327s-59 -326.167 -81 -483.5
s-68 -269.666 -138 -336.999l-26 -29c46 -16 104.667 -9 176 21l105 64l137 149l15 -33c-106.667 -185.333 -278 -283 -514 -293c-88.667 -3.33301 -162 8.5 -220 35.5s-94.667 66.333 -110 118s-11.833 90.667 10.5 117s47.833 35.166 76.5 26.499
s40.834 -32.167 36.501 -70.5s4.5 -72.333 26.5 -102s60.167 -39.5 114.5 -29.5s101.5 60 141.5 150s68 197.833 84 323.5s34.167 246.5 54.5 362.5s48.5 243.667 84.5 383z" />
    <glyph glyph-name="K" unicode="K" horiz-adv-x="1407" 
d="M904 1406c-2.66699 -30 -13.5 -62.835 -32.5 -98.502s-32.833 -93.667 -41.5 -174s-15.667 -138.666 -21 -174.999s-9.83301 -70.333 -13.5 -102s2.5 -45.834 18.5 -42.501c77.333 3.33301 151.333 65.666 222 186.999s136.334 224.166 197.001 308.499
s127.667 139.333 201 165s113.666 19.834 120.999 -17.499s-13.834 -53.333 -63.501 -48s-105.5 -23.5 -167.5 -86.5s-124.333 -166.833 -187 -311.5c-67.333 -124.667 -134 -219.334 -200 -284.001c60 -71.333 94.667 -150.166 104 -236.499s20.666 -172.833 33.999 -259.5
s39.166 -129.834 77.499 -129.501s106.5 69.166 204.5 206.499c15.333 6.66699 25.666 6 30.999 -2c0.666992 -32.667 -31.333 -90.667 -96 -174c-57.333 -80 -105.666 -125.833 -144.999 -137.5s-75.833 -5.16699 -109.5 19.5s-57.334 68.834 -71.001 132.501
s-23.167 160 -28.5 289s-40 204.833 -104 227.5h-26c-45.333 -24.667 -83.833 -89.334 -115.5 -194.001s-89.667 -210.667 -174 -318s-187.166 -170.166 -308.499 -188.499s-209.333 -0.5 -264 53.5s-77.167 116.667 -67.5 188s30.167 129 61.5 173l34 -30
c-16.667 -44.667 -24.334 -92.667 -23.001 -144s24 -93.5 68 -126.5s106.333 -41.167 187 -24.5s155.667 66.834 225 150.501s123.666 183.334 162.999 299.001s69.333 237.834 90 366.501c18.667 143.333 30.667 240.833 36 292.5s4 92.834 -4 123.501
c-36 34 -93.667 57 -173 69s-154.166 -8.33301 -224.499 -61s-111.166 -122.667 -122.499 -210c16.667 -56 11 -93 -17 -111s-52.167 -17.833 -72.5 0.5s-27.166 46.833 -20.499 85.5c12.667 88.667 58.834 169.5 138.501 242.5s164.834 116.833 255.501 131.5
s186 4.66699 286 -30c42.667 39.333 73.5 57.5 92.5 54.5s34.167 -19.5 45.5 -49.5z" />
    <glyph glyph-name="L" unicode="L" horiz-adv-x="1060" 
d="M1048 1483c109.333 5.33301 163.667 -48.333 163 -161c-6.66699 -136 -84 -287.667 -232 -455c-84.667 -98 -156 -158.667 -214 -182c-32 -31.333 -58.667 -82 -80 -152c-16 -72 -28.5 -123.667 -37.5 -155s-29.833 -90 -62.5 -176c12.667 -46.667 34 -79.167 64 -97.5
s70.667 -19.833 122 -4.5c91.333 27.333 179.333 99.333 264 216h10c0 -12.667 2.66699 -19 8 -19c-50 -120 -131 -211 -243 -273c-73.333 -27.333 -137.166 -32.833 -191.499 -16.5s-108.833 29.833 -163.5 40.5s-102.667 12.5 -144 5.5s-100.333 -25.5 -177 -55.5
c-42.667 -50 -78.5 -73 -107.5 -69s-42.833 26.667 -41.5 68c24.667 46.667 63.334 81.5 116.001 104.5s96.167 39 130.5 48s74.166 18.833 119.499 29.5c103.333 42.667 163 91.334 179 146.001c24 70.667 42.167 137.667 54.5 201s-6.83398 83 -57.501 59
c-84 -21.333 -186 -19.333 -306 6c-126 45.333 -196.333 125 -211 239c-1.33301 222.667 145.334 407.667 440.001 555c146.667 57.333 227.5 60.833 242.5 10.5s-11.5 -81.5 -79.5 -93.5c-52.667 18 -141.334 -3 -266.001 -63c-108 -72 -179.167 -147.833 -213.5 -227.5
s-36.5 -159.5 -6.5 -239.5c50 -73.333 125.333 -112 226 -116l113 6c108 37.333 181 136.666 219 297.999c80.667 300.667 201.667 475 363 523zM832.001 820.001c74 53.333 144.665 127.334 211.998 222.001c52 90.667 76.333 171 73 241s-32.5 97.5 -87.5 82.5
s-101.5 -58.167 -139.5 -129.5s-69.667 -152.833 -95 -244.5s-39.166 -151.834 -41.499 -180.501s23.834 -25.667 78.501 9z" />
    <glyph glyph-name="M" unicode="M" horiz-adv-x="1400" 
d="M1549 1464c-56.667 -27.333 -112.834 -75.335 -168.501 -144.002s-110.834 -161.667 -165.501 -279s-102 -263.666 -142 -438.999s-52.5 -302.333 -37.5 -381s55.333 -106.5 121 -83.5s150.834 110.167 255.501 261.5c14.667 3.33301 20.667 -5.66699 18 -27
c-126.667 -232.667 -243.667 -356 -351 -370c-66 -4.66699 -110 22.833 -132 82.5s-26 148.834 -12 267.501s43 250.834 87 396.501s87.333 271.5 130 377.5c-24.667 -13.333 -70 -82.333 -136 -207c-38.667 -82 -79.334 -178.333 -122.001 -289
s-73.167 -194.5 -91.5 -251.5s-47.333 -117.333 -87 -181s-78.5 -111.334 -116.5 -143.001l-84.5 -71.5c-18.333 -16 -40.5 -20.333 -66.5 -13c38 99.333 65.667 205.666 83 318.999l61 405c23.333 156.667 39.5 262 48.5 316s6.16699 70 -8.5 48s-29.167 -53.667 -43.5 -95
s-33.166 -100.666 -56.499 -177.999l-49 -151c-31.333 -116.667 -61.833 -219.334 -91.5 -308.001s-64.167 -160.167 -103.5 -214.5s-83.833 -96 -133.5 -125s-103.667 -40 -162 -33s-101.5 31.333 -129.5 73s-34.833 86.834 -20.5 135.501s40.333 75.834 78 81.501
s49.334 -8.5 35.001 -42.5s-15.833 -68.667 -4.5 -104s31.5 -56.333 60.5 -63s66 1.66602 111 24.999s83.5 67.5 115.5 132.5s62.833 144.5 92.5 238.5s59.667 201 90 321s64.5 221.667 102.5 305s98 173 180 269c69.333 69.333 136 117.666 200 144.999l13 -31
c-70.667 -44 -120.667 -119.667 -150 -227c-24 -96 -44.667 -200.667 -62 -314l-60 -406.5c-22.667 -157.667 -28.167 -235.667 -16.5 -234s29.667 22.5 54 62.5s48 87 71 141s54.333 138.333 94 253s93.5 230.834 161.5 348.501s134.333 207.167 199 268.5
s135.5 105.5 212.5 132.5s120.167 27.167 129.5 0.5z" />
    <glyph glyph-name="N" unicode="N" horiz-adv-x="956" 
d="M181 35c-46.667 -51.333 -105.331 -80.665 -175.998 -87.998s-124.834 10.5 -162.501 53.5s-51.167 91.667 -40.5 146s33.334 81.5 68.001 81.5c23.333 -4.66699 36.333 -23.334 39 -56.001v-19c-8.66699 -80 20 -124 86 -132c50.667 0.666992 100 25.167 148 73.5
s86.667 136 116 263l102.5 462c39 181 118.167 345.833 237.5 494.5c81.333 75.333 133 113.333 155 114l9 1l1 -18c-68 -75.333 -112 -183 -132 -323c-14.667 -374 -38.334 -629.667 -71.001 -767l-21 -121l25 1c44.667 66.667 78.5 131.167 101.5 193.5
s52.667 194.5 89 396.5s82.666 362.5 138.999 481.5s136.166 188.5 239.499 208.5s163.833 -0.833008 181.5 -62.5s-12.166 -127.167 -89.499 -196.5c-28.667 -1.33301 -32 15.167 -10 49.5s23.333 67.166 4 98.499s-64 32.833 -134 4.5s-130.167 -125.333 -180.5 -291
s-88.166 -323.5 -113.499 -473.5s-57.333 -271.667 -96 -365s-90 -162.666 -154 -207.999c30 -1.33301 73.333 10 130 34c75.333 37.333 156 108.333 242 213l15 -33c-106.667 -185.333 -278 -283 -514 -293l-55 1c-49.333 9.33301 -75.166 26.666 -77.499 51.999
s9 39 34 41s44.833 7.16699 59.5 15.5s33.167 41.833 55.5 100.5s39.833 154.667 52.5 288c12.667 86 24 180 34 282v102c9.33301 120.667 -1.16699 148.834 -31.5 84.501s-57.833 -150.333 -82.5 -258s-44.834 -202.834 -60.501 -285.501s-36.834 -153.5 -63.501 -212.5
s-59.667 -103.5 -99 -133.5z" />
    <glyph glyph-name="O" unicode="O" horiz-adv-x="913" 
d="M900 1261c18 -131.333 18.8311 -260.333 2.49805 -387s-34.166 -223.167 -53.499 -289.5s-51.666 -148.5 -96.999 -246.5c-92 -166.667 -196 -276.667 -312 -330c-42.667 -45.333 -109.667 -52 -201 -20c-44.667 14.667 -86 53.667 -124 117
c-46 68.667 -61.667 196.167 -47 382.5s70.667 388.833 168 607.5c138 222.667 256 334 354 334h19l27 -22l29 33c62 18 111.167 14 147.5 -12s65.5 -81.667 87.5 -167zM385.998 1146c-86.667 -134.667 -145.331 -276.004 -175.998 -424.004
c-36 -186 -46.667 -324.5 -32 -415.5s39.5 -149.167 74.5 -174.5s77.5 -33.666 127.5 -24.999c83.333 7.33301 155.166 49.333 215.499 126s109.5 167.334 147.5 272.001s63.667 222 77 352s13.333 235.5 0 316.5s-34.833 132.333 -64.5 154s-60.334 25.334 -92.001 11.001
s-69.334 -56.166 -113.001 -125.499s-74.5 -169.333 -92.5 -300s-22.5 -220.5 -13.5 -269.5s7 -78 -6 -87s-27.167 16.333 -42.5 76s-20.666 136.5 -15.999 230.5s17.167 171.333 37.5 232s32 105.167 35 133.5s-4 34.5 -21 18.5s-32.167 -49.667 -45.5 -101z
M356.001 -42.0039l-100 15l-43 53l177 52c19.333 -15.333 43.5 -27.833 72.5 -37.5s79.167 0.5 150.5 30.5l105 64l137 149l15 -33c-106.667 -185.333 -278 -283 -514 -293z" />
    <glyph glyph-name="P" unicode="P" horiz-adv-x="871" 
d="M729 1357c-51.333 -30.667 -96.667 -110.332 -136 -238.999s-63.666 -244.334 -72.999 -347.001s-7 -162.834 7 -180.501s63.667 2.5 149 60.5s152 139.167 200 243.5s61.167 206.333 39.5 306s-83.834 151.834 -186.501 156.501zM566.999 494.002
c-51.333 -25.333 -92.001 -96.6689 -122.001 -214.002c-66.667 -209.333 -186 -316.333 -358 -321c-64 -6.66699 -111.333 22 -142 86c-1.33301 60.667 18.167 97.334 58.5 110.001s58.833 -3 55.5 -47s16.834 -71 60.501 -81s86.834 7.5 129.501 52.5s72.167 100 88.5 165
s29.666 137.167 39.999 216.5s27 193.5 50 342.5s70.833 314.833 143.5 497.5l37 55c4.66699 19.333 -13.166 25 -53.499 17s-90.833 -28.667 -151.5 -62s-110 -70.833 -148 -112.5s-73.667 -90 -107 -145s-50 -109.833 -50 -164.5s10.167 -91.167 30.5 -109.5
s30.5 -30.666 30.5 -36.999s-3.66699 -17.833 -11 -34.5s-24.5 -25.667 -51.5 -27s-48.833 17.667 -65.5 57s-22.5 82 -17.5 128s21.333 98.333 49 157s64.667 116.834 111 174.501s118.166 118 215.499 181s211.833 97.5 343.5 103.5s222.167 -44.5 271.5 -151.5
s52.5 -221.833 9.5 -344.5s-102 -223.334 -177 -302.001s-164.833 -142 -269.5 -190z" />
    <glyph glyph-name="Q" unicode="Q" horiz-adv-x="1023" 
d="M446 103c74 12 136.502 46.8418 187.502 104.509s100.333 143 148 256s83 247.167 106 402.5s25.667 274.833 8 358.5s-46.667 134.167 -87 151.5s-85.5 14.666 -135.5 -8.00098s-103.333 -99.334 -160 -230.001s-83.5 -308.5 -80.5 -533.5s49.167 -390.167 138.5 -495.5
s174.5 -162.666 255.5 -171.999s152.667 0.833984 215 30.501s108.833 60 139.5 91s41.667 29.5 33 -4.5s-52.5 -74.833 -131.5 -122.5s-174.167 -68.667 -285.5 -63s-207.5 55.167 -288.5 148.5s-133.667 185.666 -158 276.999s-34 195.333 -29 312s22.167 233 51.5 349
s75.5 224.167 138.5 324.5s133.833 163.666 212.5 189.999s140.834 19.333 186.501 -21s75 -117 88 -230s6.16699 -252.333 -20.5 -418s-77.5 -319.334 -152.5 -461.001s-156.833 -244.334 -245.5 -308.001s-171.334 -87.834 -248.001 -72.501s-137.334 61.5 -182.001 138.5
s-61.667 198.333 -51 364s44.667 329.667 102 492s117.833 266.666 181.5 312.999s66.167 11.166 7.5 -105.501s-102.167 -233.834 -130.5 -351.501s-45.333 -226.167 -51 -325.5s2.16602 -180.333 23.499 -243s49.833 -103.834 85.5 -123.501s78.5 -24.5 128.5 -14.5z" />
    <glyph glyph-name="R" unicode="R" horiz-adv-x="1244" 
d="M880 1506c92.667 -11.333 164.672 -61.6699 216.005 -151.003s59.166 -198.333 23.499 -327s-149.834 -262 -342.501 -400c39.333 -85.333 60.666 -153 63.999 -203s15 -126.667 35 -230c23.333 -89.333 84.333 -106.333 183 -51l132 139l9 -17v-19
c-108.667 -172 -198.667 -257.333 -270 -256c-52 -1.33301 -93.167 26.667 -123.5 84s-50 151.5 -59 282.5s-53.5 229.167 -133.5 294.5c-11.333 44 31 61.333 127 52c69.333 34.667 129.166 84.5 179.499 149.5s81 141 92 228s4.5 155.333 -19.5 205
s-62.5 82.334 -115.5 98.001s-96.167 -2.16602 -129.5 -53.499c-67.333 -72.667 -121 -203.334 -161 -392.001c-18.667 -106.667 -38.667 -247.167 -60 -421.5s-76 -316.166 -164 -425.499s-183.333 -156.666 -286 -141.999c-64 -7.33301 -111.333 21 -142 85
c-7.33301 72 10.334 110 53.001 114s68.834 -17.167 78.501 -63.5s41.167 -64.833 94.5 -55.5c86 20.667 159.333 118.334 220 293.001l118 696c27.333 95.333 62.333 179 105 251l54 82c8 30.667 -24.333 33.334 -97 8.00098s-140.834 -75.333 -204.501 -150
s-97.834 -151.834 -102.501 -231.501s-24.5 -104.167 -59.5 -73.5s-27.333 101 23 211s125.833 198 226.5 264s182.167 104.667 244.5 116s126.166 14.666 191.499 9.99902z" />
    <glyph glyph-name="S" unicode="S" horiz-adv-x="834" 
d="M746 770c-28 -147.333 -58.8359 -270.83 -92.5029 -370.497s-88.834 -185.834 -165.501 -258.501c-30.667 -42.667 -73 -79.667 -127 -111c-14 -22.667 -53 -42.667 -117 -60c-99.333 -4.66699 -179.166 19.666 -239.499 72.999s-87.666 116.666 -81.999 189.999
s40 135 103 185s123.833 72 182.5 66l-3 -27c-75.333 -20.667 -128.166 -54.167 -158.499 -100.5s-41.833 -95.5 -34.5 -147.5s33.333 -89.667 78 -113s97.834 -30.5 159.501 -21.5s129 58.667 202 149s118.5 216.5 136.5 378.5c0 44 -11.667 73.333 -35 88h-18
c-88.667 -46 -188.334 -67.667 -299.001 -65c-140.667 23.333 -216 106 -226 248c4 140.667 79.333 270.667 226 390c99.333 102 216.666 164.667 351.999 188h26c79.333 0 126.333 -25 141 -75c4 -36.667 -7 -57.5 -33 -62.5s-44.667 1.66699 -56 20
s-60.333 25.666 -147 21.999s-171.667 -47.167 -255 -130.5s-129.333 -165.833 -138 -247.5s5.5 -142 42.5 -181s83.833 -62.667 140.5 -71s123.334 0.5 200.001 26.5s123.334 87 140.001 183c18.667 97.333 46.834 187.333 84.501 270s82.667 150.5 135 203.5
s106 77.833 161 74.5s78.5 -48 70.5 -134s-41.333 -175.667 -100 -269s-143.334 -196.666 -254.001 -309.999zM760.997 955.003c4.66699 -48 52.332 -11.168 142.999 110.499s128.834 207.334 114.501 257.001s-51.5 48 -111.5 -5s-108.667 -173.833 -146 -362.5z
M772.995 230.002c-111.333 -163.333 -284 -250.666 -518 -261.999c-21.333 -0.666992 -50 2 -86 8l163 125l45 17c31.333 -13.333 58.333 -20.5 81 -21.5s48.167 3.66699 76.5 14s64.666 30.666 108.999 60.999s81.5 64.666 111.5 102.999s44.333 45.333 43 21
s-9.66602 -46.166 -24.999 -65.499z" />
    <glyph glyph-name="T" unicode="T" horiz-adv-x="1299" 
d="M962 1261c112 -29.333 196.335 -27.5 253.002 5.5s74.667 67.5 54 103.5s-61.834 46.167 -123.501 30.5s-122.834 -62.167 -183.501 -139.5zM574.002 840c56 127.333 125.001 243.333 207.001 348c-47.333 36 -108.833 67.5 -184.5 94.5s-151.167 25.5 -226.5 -4.5
c-94.667 -35.333 -142.334 -98 -143.001 -188c-0.666992 -55.333 18.333 -104 57 -146l75 -58l98 -41zM885.003 1154l-19.0039 -31.9961c-61.333 -95.333 -112.666 -186.333 -153.999 -273c104 12.667 174.333 37 211 73c66 64.667 111 81.667 135 51
s-14.333 -74.334 -115 -131.001c-71.333 -40 -160.666 -65.333 -267.999 -76c-36.667 -84.667 -64 -169.334 -82 -254.001c-28.667 -142 -34.334 -239 -17.001 -291c24.667 -70 62.334 -110.667 113.001 -122s102.334 -3.33301 155.001 24s102.334 76.333 149.001 147
c35.333 54 59 110.333 71 169l7 68c0 74.667 -18 116.334 -54 125.001c-72.667 26.667 -161 -54.333 -265 -243c-35.333 -110.667 -61.333 -118.334 -78 -23.001c57.333 181.333 149.333 306.666 276 375.999l72 28l44 -1l44 -21c35.333 -37.333 55.666 -77.333 60.999 -120
c10.667 -80.667 -0.666016 -163.667 -33.999 -249c-64 -162.667 -170.667 -281.334 -320 -356.001c-14 -4.66699 -28 -8.66699 -42 -12c44 -6 94.5 0.833008 151.5 20.5s116.167 54.167 177.5 103.5l136 149l16 -33c-130 -213.333 -298.667 -318.666 -506 -315.999l-68 11
l-116 55c-8.66699 1.33301 -17.667 3 -27 5c-75.333 -67.333 -142.5 -115.166 -201.5 -143.499s-121 -43.666 -186 -45.999s-126.167 11.5 -183.5 41.5s-96.833 69.5 -118.5 118.5s-25.667 92 -12 129s35.5 58.667 65.5 65s52.5 -3.83398 67.5 -30.501
s10.833 -68 -12.5 -124c36 -70 95.833 -107.833 179.5 -113.5s159.834 9 228.501 44s114.667 71.5 138 109.5c-34.667 30.667 -55.334 106.667 -62.001 228c7.33301 150 34.333 292.667 81 428l18 48h-10c-102.667 5.33301 -176.667 25.666 -222 60.999
c-49.333 27.333 -93.333 68.333 -132 123c-54 76 -58.833 160.167 -14.5 252.5s132.833 150.833 265.5 175.5c99.333 16 193 14 281 -6c70.667 -13.333 130 -33.333 178 -60c73.333 68.667 138.333 115.667 195 141s115.334 28.666 176.001 9.99902
s89.667 -57.167 87 -115.5s-38.334 -106.833 -107.001 -145.5s-136.167 -56.667 -202.5 -54s-116.5 6.66699 -150.5 12z" />
    <glyph glyph-name="U" unicode="U" horiz-adv-x="1106" 
d="M1066 1458l9.99902 -0.00195312c14.667 -38 8.66699 -83.667 -18 -137s-61.834 -173.5 -105.501 -360.5l-110 -477.5c-29.667 -131.333 -47.167 -219 -52.5 -263s-0.5 -74.167 14.5 -90.5s53.5 -6.5 115.5 29.5c53.333 48.667 106.333 105 159 169h21v-29l-110 -156
c-71.333 -92.667 -133.333 -141 -186 -145c-58 -14.667 -103.667 16.333 -137 93l34 235c-68 -92 -130 -167.5 -186 -226.5s-123.333 -103.833 -202 -134.5c-42 -14.667 -81 -13.334 -117 3.99902c-60 24.667 -84.333 101.334 -73 230.001
c47.333 268 90.333 476.833 129 626.5s64.167 273 76.5 370s-11.167 137.5 -70.5 121.5c-64 -14.667 -151.333 -101.334 -262 -260.001c-27.333 -8 -40.333 2 -39 30c118 180 219.833 286.667 305.5 320s141.334 25 167.001 -25s14.667 -183.167 -33 -399.5
s-89.167 -414.166 -124.5 -593.499c-44.667 -202 -37.5 -306.167 21.5 -312.5s125.5 23.834 199.5 90.501s150.667 169.334 230 308.001c30.667 100 88.334 315.333 173.001 646c43.333 200.667 100 313 170 337z" />
    <glyph glyph-name="V" unicode="V" horiz-adv-x="885" 
d="M314 27c12.667 -6.66699 27.668 -13.3398 45.001 -20.0068c39.333 -15.333 87.833 -13.5 145.5 5.5s123.167 59.833 196.5 122.5l136 149l16 -33c-130 -213.333 -289 -316.666 -477 -309.999c-92 10 -141.333 18.667 -148 26s-16.167 6.83301 -28.5 -1.5
s-29.5 -16 -51.5 -23s-41.5 -6.83301 -58.5 0.5s-16.167 32.333 2.5 75c50 40.667 95 97.667 135 171s69.5 181 88.5 323s37.333 259 55 351s39.5 197 65.5 315l27 103l-41 12c-91.333 28 -173.666 42 -246.999 42c-72.667 -10 -128 -32.333 -166 -67l-21 -1
c-14 -0.666992 -21.333 6 -22 20c16.667 50.667 80.334 94.334 191.001 131.001l139 15l145 -22c75.333 4.66699 126.333 30.334 153 77.001l54 -4c-60 -124 -103.167 -244 -129.5 -360s-47 -239.833 -62 -371.5s-27.167 -225.667 -36.5 -282s-18.5 -104.666 -27.5 -144.999
s-3.83301 -58.166 15.5 -53.499l10 1c79.333 42 141.666 108.333 186.999 199s78.166 182 98.499 274s53.666 210.667 99.999 356s105.166 265.666 176.499 360.999c134.667 192.667 291.334 278.334 470.001 257.001c96 -41.333 134.167 -78 114.5 -110
s-61.167 -26.667 -124.5 16c-63.333 17.333 -126 14.833 -188 -7.5s-123.167 -75.166 -183.5 -158.499s-106.5 -159.666 -138.5 -228.999s-63.5 -155.5 -94.5 -258.5s-59.833 -207.5 -86.5 -313.5s-73 -211.833 -139 -317.5s-164.667 -210.5 -296 -314.5z" />
    <glyph glyph-name="W" unicode="W" horiz-adv-x="1392" 
d="M1910 1718c113.333 -38 156.332 -74.1699 128.998 -108.503c-27.333 -34.333 -75.666 -25.166 -144.999 27.501l-63 -10c-151.333 -34.667 -264.333 -133.667 -339 -297c-69.333 -118 -115 -234.333 -137 -349l-92 -379c-38.667 -144.667 -109.667 -300 -213 -466
l-72 -85l-120 -99l-91 29c101.333 289.333 135 502 101 638l-22 9l-42 -2c-28.667 -65.333 -60 -131.333 -94 -198c-122.667 -220.667 -288.667 -389 -498 -505l-21 -1c-14 -0.666992 -31 5.33301 -51 18l22 71c86 59.333 140.333 154.666 163 285.999
c24.667 77.333 40.667 166 48 266l39 188l13 131l6 57c0.666992 63.333 8.66699 134.333 24 213l27 103l-41 12c-91.333 28.667 -173.666 43 -246.999 43c-72 -9.33301 -127.333 -31 -166 -65l-21 -1c-14 -0.666992 -21.333 6 -22 20c16.667 50.667 80.667 94 192 130
l139 14l145 -23c61.333 16 101.666 39 120.999 69c28.667 -2.66699 46.667 -4 54 -4c-39.333 -119.333 -66.666 -233.333 -81.999 -342l-19 -144c-8 -100.667 -12.333 -161.667 -13 -183s-9 -99.666 -25 -234.999c-12 -106 -17.333 -177 -16 -213l1 -23
c2.66699 -13.333 10 -19.666 22 -18.999h10c85.333 37.333 185.666 205.333 300.999 504c121.333 253.333 207.333 361.333 258 324c0 -7.33301 3.33301 -10.666 10 -9.99902c-56.667 -98.667 -87.334 -200 -92.001 -304l-8 -141
c0.666992 -83.333 -7.66602 -190 -24.999 -320l-35 -135l83 63l104 146c58.667 120 120 330.333 184 631c58.667 187.333 124.334 328.333 197.001 423c107.333 176.667 247 258.667 419 246zM891.999 -59.0029l-102.999 20.998l-1 91
c18.667 -15.333 47.667 -30.666 87 -45.999s122.666 2.66699 249.999 54l92 74l136 149l16 -33c-130 -213.333 -289 -316.666 -477 -309.999z" />
    <glyph glyph-name="X" unicode="X" horiz-adv-x="1263" 
d="M586 1402l8.99902 0.00195312c55.333 1.33301 97.666 9 126.999 23c32 -10 48.333 -25.667 49 -47c-29.333 -139.333 -43.666 -220.666 -42.999 -243.999l1 -19c12.667 -102.667 30 -153.667 52 -153l39 1c310 427.333 524.667 637 644 629
c16.667 0.666992 33.334 -15 50.001 -47c0.666992 -37.333 -76 -75 -230 -113l-381.5 -472.5c-74.333 -93.667 -109.833 -172.834 -106.5 -237.501c26.667 -115.333 58 -292 94 -530c17.333 -74.667 60.666 -93.667 129.999 -57l161 136l30 21
c12.667 -2 19.334 -8.33301 20.001 -19c-114.667 -163.333 -222.667 -256.333 -324 -279c-71.333 -6.66699 -112.666 28.666 -123.999 105.999c-7.33301 90 -19.666 170.333 -36.999 241l-21 106l-13 47c-10 31.333 -21.333 47 -34 47h-10
c-71.333 -117.333 -145 -220.333 -221 -309s-157 -156.334 -243 -203.001s-168.833 -71 -248.5 -73s-120.667 27.5 -123 88.5s33.167 80.833 106.5 59.5c47.333 -80.667 127.166 -85.5 239.499 -14.5s216.666 182.5 312.999 334.5s143.833 255.333 142.5 310
c-11.333 168 -21 277.667 -29 329c6 24 8.33301 53 7 87v29c2 88.667 -44 150 -138 184l-59 74c91.333 -24 148.333 -35.667 171 -35zM563.999 1311c-156 82.667 -287 73 -393 -29c-14 -51.333 -44.167 -70.333 -90.5 -57s-62.833 49 -49.5 107l67 48
c108 84 269.667 85.667 485 5c6.66699 -3.33301 13 -7 19 -11l-20 -81z" />
    <glyph glyph-name="Y" unicode="Y" horiz-adv-x="1028" 
d="M1195 1505l35 -35.001c-71.333 -152 -132.333 -328.333 -183 -529c-29.333 -181.333 -66.166 -333 -110.499 -455s-92 -219.667 -143 -293s-122.167 -130 -213.5 -170c-57.333 -30.667 -149.666 -50.667 -276.999 -60c-60.667 11.333 -103.834 31.166 -129.501 59.499
s-33.5 62.5 -23.5 102.5c22 82.667 71 97 147 43c32.667 -71.333 81 -107.333 145 -108c84.667 -1.33301 162.167 42.667 232.5 132s121.666 196.666 153.999 321.999s58.166 250.333 77.499 375l-1 18c-1.33301 33.333 -11.333 52.333 -30 57l-11 -1
c-22 -0.666992 -50 -53 -84 -157l-114 -145c-156 -181.333 -262.667 -278.333 -320 -291l-47 -11c-69.333 -2 -101.666 41.333 -96.999 130c16 84.667 50.667 212.334 104 383.001c11.333 55.333 24 111.333 38 168c16.667 82 32.667 156.333 48 223l-6 61l-144 16
c-166 -29.333 -236 -110.666 -210 -243.999c-14.667 -35.333 -33.167 -51.5 -55.5 -48.5s-42.666 13.333 -60.999 31s-20.166 53 -5.49902 106s51.5 101.5 110.5 145.5s117.167 69 174.5 75l108 -16c75.333 -17.333 139.666 -3 192.999 43
c25.333 -8.66699 38.333 -18 39 -28c-55.333 -295.333 -117.333 -554 -186 -776c-15.333 -51.333 -20.5 -89.166 -15.5 -113.499s23 -35.5 54 -33.5s101.5 61.333 211.5 178c21.333 20 52 56 92 108c28 22 69.667 96.667 125 224c-1.33301 42 50.667 97.667 156 167
c89.333 225.333 163.666 341 222.999 347zM471 -42.001l-128 4l-43 53l187 35c36 -4 67.333 -9 94 -15s75.667 6 147 36c80 42.667 160.667 113.667 242 213l15 -33c-106.667 -185.333 -278 -283 -514 -293z" />
    <glyph glyph-name="Z" unicode="Z" horiz-adv-x="994" 
d="M493 1434c178 -29.333 274 -43.999 288 -43.999l79 29c17.333 0 69.666 22.667 156.999 68h29v-39c-45.333 -24 -139.333 -161.667 -282 -413c-23.333 -32 -116 -197 -278 -495c-123.333 -150 -187.666 -247.333 -192.999 -292c0 -27.333 54 -61.333 162 -102
s193.833 -54.834 257.5 -42.501s146.834 79.5 249.501 201.5l12 -15c-58.667 -146.667 -184 -246.667 -376 -300h-20c-16.667 0 -154.667 30.333 -414 91h-19c-68.667 -6.66699 -131.334 -39.667 -188.001 -99c-26 10 -39 19.667 -39 29v10c0 76.667 72.333 149 217 217
c122 80.667 331 408.667 627 984v40c0 46 -109.333 67.333 -328 64c-61.333 0 -123.666 -29.667 -186.999 -89h-10v29c67.333 112 152.666 168 255.999 168z" />
    <glyph glyph-name="bracketleft" unicode="[" horiz-adv-x="1604" 
d="M806 2293c38.667 -126 366.665 -188.667 983.998 -188l325 -1l-81 -77c-106 -27.333 -500.333 -29.666 -1183 -6.99902l-127 -74c-48 -60 -82.667 -209 -104 -447l-16 -238c-154.667 -959.333 -238 -1540 -250 -1742l-11 -145
c-15.333 -142.667 166.334 -208 545.001 -196c79.333 -5.33301 172.666 -4.33301 279.999 3l481 6l47 -100c-349.333 -28.667 -824.666 -41.667 -1426 -39c-109.333 -19.333 -161 15.667 -155 105l5 73c178.667 611.333 300.667 1359.67 366 2245
c-2.66699 190 -1.66699 326.667 3 410c56.667 191.333 162.334 328.666 317.001 412z" />
    <glyph glyph-name="backslash" unicode="\" horiz-adv-x="687" 
d="M-24 1563c20 86.667 150.997 -229 392.997 -947c52.667 -119.333 111.334 -275.333 176.001 -468s77.834 -284.667 39.501 -276s-101.5 156 -189.5 442l-241 602c-77.333 225.333 -118.666 366.333 -123.999 423c-40 55.333 -58 130 -54 224z" />
    <glyph glyph-name="bracketright" unicode="]" horiz-adv-x="1482" 
d="M740 -1143c-38.667 170 -337.999 241.331 -897.999 213.998l-325 21l81 77c106 20.667 471.667 27.667 1097 21l127 14c48 60 82.667 209 104 447l17 238c154.667 959.333 237.667 1540 249 1742l11 175c15.333 142.667 -96 211.334 -334 206.001
c-80 5.33301 -231.667 7.66602 -455 6.99902l-368 5l-47 89c289.333 4.66699 715 11 1277 19c109.333 19.333 161 -15.667 155 -105l-5 -73c-178.667 -631.333 -300.667 -1389.67 -366 -2275c2.66699 -190 1.66699 -326.667 -3 -410
c-56.667 -191.333 -162.334 -328.666 -317.001 -411.999z" />
    <glyph glyph-name="asciicircum" unicode="^" horiz-adv-x="987" 
d="M580 1658c34 0 76.0029 -32.999 126.003 -98.999s100.5 -136.5 151.5 -211.5s70 -121 57 -138s-29.5 -14.833 -49.5 6.5s-53.333 59.666 -100 114.999s-85.667 103.5 -117 144.5s-59.833 59 -85.5 54s-67.667 -39.333 -126 -103l-160.5 -170.5
c-48.667 -50 -81.334 -74.333 -98.001 -73s-25 4.83301 -25 10.5s31.167 48.667 93.5 129s125.166 156.333 188.499 228s111.666 107.5 144.999 107.5z" />
    <glyph glyph-name="underscore" unicode="_" horiz-adv-x="1192" 
d="M889 -120c0 -16.667 -32.332 -26 -96.999 -28s-156 -5.5 -274 -10.5l-289 -12c-74.667 -3 -116.834 5.66699 -126.501 26s1.83301 39.5 34.5 57.5s102 27.5 208 28.5s216.5 -0.833008 331.5 -5.5s179.333 -11 193 -19s20.167 -20.333 19.5 -37z" />
    <glyph glyph-name="thanh_n?i_ngang" unicode="`" horiz-adv-x="1682" 
d="M1057 2016l-1669 -2l-192 36l-40 63c2341.33 -3.33301 3659 -3.33301 3953 0l-92 -72l-230 -26c-405.333 0 -982 0.333008 -1730 1zM84 -929l-1608 21.001l124 70l226 25l225 -3c268 5.33301 1309.33 4.66602 3124 -2.00098l23 -55l-117 -56
c-568 7.33301 -1233.67 7.33301 -1997 0z" />
    <glyph glyph-name="a" unicode="a" horiz-adv-x="692" 
d="M437 690l71.998 3.99805l22 -45c2.66699 -32 -16.333 -94 -57 -186l-58 -182l-14 -93c-12 -68.667 -2.33301 -100 29 -94l38 21c26.667 21.333 85.334 81.333 176.001 180c14.667 -0.666992 24 -11.667 28 -33c-112.667 -175.333 -202 -261.666 -268 -258.999
c-80.667 -17.333 -118.667 26.334 -114 131.001l34 174c-103.333 -130.667 -195.666 -221.667 -276.999 -273c-35.333 -26 -82.333 -36.333 -141 -31l-28 29l-9 35c-4 51.333 1.33301 102.666 16 153.999c16 44.667 40 95.667 72 153
c64 102.667 147.5 185.834 250.5 249.501s179.167 85.5 228.5 65.5zM60.998 154.998c70 50 124.334 99.333 163.001 148c46 46 88.667 119.333 128 220c-32 50 -78.667 55.667 -140 17c-35.333 -19.333 -76 -61.333 -122 -126c-51.333 -69.333 -85.333 -132.333 -102 -189
c-16.667 -88 7.66602 -111.333 72.999 -70z" />
    <glyph glyph-name="b" unicode="b" horiz-adv-x="556" 
d="M318 292c-0.666992 40.667 -4.99902 86.001 -12.999 136.001c-20.667 160 10.666 244.667 93.999 254c26 0 45 -23 57 -69s7.5 -109.333 -13.5 -190s-56.833 -163.334 -107.5 -248.001c-44.667 -67.333 -92 -122 -142 -164l-13 50c59.333 53.333 105.333 130.333 138 231
zM21.001 566.001c40 177.333 74.332 317.494 102.999 420.494s69.334 211.5 122.001 325.5s111.167 189.333 175.5 226s115 42.834 152 18.501s56.333 -60.666 58 -108.999s-7 -106.166 -26 -173.499s-41.5 -128.666 -67.5 -183.999s-55.5 -113.666 -88.5 -174.999
s-62 -111.5 -87 -150.5l-223.5 -335.5c-38 -91.333 -61.333 -173.666 -70 -246.999s3.33301 -119.5 36 -138.5s74.667 5.83301 126 74.5c55.333 32 61.5 15.667 18.5 -49s-96 -97.667 -159 -99s-103.833 31.5 -122.5 98.5s-18.667 148.5 0 244.5zM143 685.995
c-9.33301 -63.333 1.66797 -82 33.001 -56s84 93.833 158 203.5s137.667 238 191 385s58.666 232.667 15.999 257s-95.5 -11.5 -158.5 -107.5s-116.167 -217.667 -159.5 -365s-70 -253 -80 -317zM70.001 415.995c-69.333 -92 -104.667 -144 -106 -156
c-94.667 -121.333 -164 -190.333 -208 -207c-20.667 10 -9.66699 35 33 75l104 142c38.667 71.333 85 148.333 139 231zM120 -35.0049c-27.333 -2 -53.668 1.99902 -79.001 11.999c99.333 39.333 180.833 76.833 244.5 112.5s140.834 106.834 231.501 213.501l14 -27
c-125.333 -196 -262.333 -299.667 -411 -311z" />
    <glyph glyph-name="c" unicode="c" horiz-adv-x="467" 
d="M244 611c-124.667 -86.667 -193.333 -223.334 -206 -410.001c0 -87.333 34.333 -124.666 103 -111.999c80 19.333 188 114.333 324 285l21 -18c-128 -205.333 -238 -326.333 -330 -363c-39.333 -20 -85 -23.667 -137 -11c-46 15.333 -76.333 46 -91 92
s-18.334 90.667 -11.001 134c12 86 44.333 173.167 97 261.5s108.667 151 168 188s111 48.667 155 35s67.333 -44 70 -91s-12.833 -75.167 -46.5 -84.5s-52.167 9.5 -55.5 56.5s-23.666 59.5 -60.999 37.5z" />
    <glyph glyph-name="d" unicode="d" horiz-adv-x="757" 
d="M672 1481c26.667 68.667 55.666 100.005 86.999 94.0049s26 -64.667 -16 -176c-63.333 -214.667 -111.5 -402.334 -144.5 -563.001l-78 -379c-19 -92 -37.5 -206.667 -55.5 -344c3.33301 -46 29.333 -45.333 78 2l69 64l129 167l16 -31
c-78.667 -160.667 -169.667 -275.667 -273 -345l-48 -10c-60 18 -88.333 64.667 -85 140c34 217.333 36.333 311.333 7 282c20 62 21.833 106 5.5 132s-43.833 37.333 -82.5 34s-84 -27.5 -136 -72.5s-94.667 -100.5 -128 -166.5s-45.5 -119 -36.5 -159
s31.667 -57.5 68 -52.5s78.333 27.667 126 68s109.5 114.833 185.5 223.5c46 82 64 83.333 54 4c-66 -120.667 -138.5 -218.5 -217.5 -293.5s-138.5 -117.833 -178.5 -128.5s-72.5 -11.334 -97.5 -2.00098s-44.167 30.666 -57.5 63.999s-12.333 84.5 3 153.5
s47.333 137.333 96 205s98.834 122.5 150.501 164.5s101.167 69.167 148.5 81.5s84.666 13.166 111.999 2.49902s48 -27.334 62 -50.001l16 49c20.667 74.667 53.834 208 99.501 400s86.167 339.333 121.5 442z" />
    <glyph glyph-name="e" unicode="e" horiz-adv-x="468" 
d="M317 187l77.9961 88.0039c22 14 36.667 14.333 44 1c-119.333 -171.333 -219.333 -269 -300 -293c-66.667 -18 -117.667 -13.167 -153 14.5s-57.166 70.667 -65.499 129s-1 119.666 22 183.999s59.667 131.666 110 201.999s108.833 122.666 175.5 156.999
s117.834 41.5 153.501 21.5s51.834 -52.833 48.501 -98.5s-23.666 -88.667 -60.999 -129s-92.666 -78.333 -165.999 -114s-120.166 -64 -140.499 -85s-31 -43.5 -32 -67.5s1.66699 -47 8 -69s21.166 -39.333 44.499 -52s56.666 -10.834 99.999 5.49902s88 51.5 134 105.5z
M43.9961 326.004c126 64.667 208.171 119.668 246.504 165.001s53.666 81.166 45.999 107.499s-33.834 30.5 -78.501 12.5s-86.834 -54.5 -126.501 -109.5s-68.834 -113.5 -87.501 -175.5z" />
    <glyph glyph-name="f" unicode="f" horiz-adv-x="387" 
d="M173 810l44.9961 -1.99902c14 -22.667 10 -54.5 -12 -95.5s-43.167 -90.833 -63.5 -149.5s-56.166 -217.334 -107.499 -476.001l3 -23c3.33301 -10 9 -14.333 17 -13c99.333 52 221.333 178 366 378c14.667 24.667 26.334 39.5 35.001 44.5s7.33398 -8 -3.99902 -39
s-40.5 -81.5 -87.5 -151.5s-93 -132.167 -138 -186.5s-83.5 -97.166 -115.5 -128.499l3 -26c8 -22 15.833 -65.833 23.5 -131.5s-0.166016 -189.167 -23.499 -370.5c-50.667 -225.333 -94.334 -360.333 -131.001 -405c-54.667 -78 -114 -124 -178 -138
c-40 2.66699 -63.667 29.334 -71 80.001c-14.667 101.333 22.333 353.666 111 756.999l19 124l-1 7c-2 16.667 -6.33301 28.667 -13 36c-10 67.333 14 128.666 72 183.999c13.333 48.667 19.333 77.334 18 86.001c-10.667 3.33301 -18.667 4.66602 -24 3.99902
c-19.333 -14 -36.166 -29.667 -50.499 -47s-37.5 -38.5 -69.5 -63.5s-59.667 -35.167 -83 -30.5c50 44 89.167 82.5 117.5 115.5s58 73.667 89 122s55.333 97.666 73 147.999l59.5 176.5c22 67.333 55.333 135 100 203c5.33301 0.666992 12.333 4.33398 21 11.001z
M-128.004 -987.999c36 4.66699 78.332 73.332 126.999 205.999c34.667 131.333 55.834 256.833 63.501 376.5s5.33398 203.834 -6.99902 252.501s-26.833 73 -43.5 73s-33.5 -32.167 -50.5 -96.5l-59.5 -232.5c-22.667 -90.667 -40.334 -195.667 -53.001 -315
s-17 -194 -13 -224s16 -43.333 36 -40z" />
    <glyph glyph-name="g" unicode="g" horiz-adv-x="695" 
d="M310 -53c-37.333 -39.333 -81.5 -89 -132.5 -149s-109.333 -139.833 -175 -239.5s-112 -193.167 -139 -280.5s-31.667 -155 -14 -203s53 -59.333 106 -34s103.167 87 150.5 185s87.833 211.667 121.5 341s61.167 256 82.5 380zM42 127
c32 -34 74.002 -42.998 126.002 -26.998s96.333 52.5 133 109.5s61.667 125.833 75 206.5s-4.66699 141.5 -54 182.5s-108.333 26.667 -177 -43s-110.834 -149.834 -126.501 -240.501s-7.83398 -153.334 23.499 -188.001zM512.002 198.002
c45.333 18.667 124.665 97.002 237.998 235.002l-4 -58l-41 -76c-29.333 -51.333 -110.333 -141 -243 -269l-44 -52c-50 -264 -103.667 -468.333 -161 -613s-126.166 -260.334 -206.499 -347.001s-152.166 -122.834 -215.499 -108.501s-100.833 63 -112.5 146
s9.83301 182.333 64.5 298s112.5 210.167 173.5 283.5s117.5 137.666 169.5 192.999l197 209c6.66699 39.333 15 85 25 137c-105.333 -146 -205.666 -215 -300.999 -207s-146.333 69.667 -153 185s28.666 231 105.999 347s154.833 182.167 232.5 198.5s134 12 169 -13
s56.5 -50.333 64.5 -76s17.167 -13 27.5 38s33 77.5 68 79.5s38.833 -41.667 11.5 -131s-57.333 -202.666 -90 -339.999l4 -38c0.666992 -7.33301 7.66699 -14.333 21 -21z" />
    <glyph glyph-name="h" unicode="h" horiz-adv-x="691" 
d="M507 1197c45.333 132 52.835 214.669 22.502 248.002s-75.333 6.33301 -135 -81s-115 -219.333 -166 -396s-79.333 -286.334 -85 -329.001s8.66602 -43.834 42.999 -3.50098s85.166 111 152.499 212s123.333 217.5 168 349.5zM358.002 373.002
c47.333 138.667 46.0059 196.997 -3.99414 174.997c-32.667 -12 -78.834 -60.5 -138.501 -145.5s-112.5 -184.833 -158.5 -299.5l-38 -84c-72 -67.333 -107.333 -55.666 -106 35.001l19 95l21 97c-89.333 -112.667 -155 -177 -197 -193c-20.667 10 -9.66699 35 33 75
l104 142c29.333 44.667 63 102 101 172l31 144c32.667 134.667 64 256.667 94 366s72.667 223.333 128 342s113.666 197.834 174.999 237.501s111 47 149 22s56 -64.833 54 -119.5s-10.5 -111.834 -25.5 -171.501s-35.5 -117.167 -61.5 -172.5
s-55.5 -113.666 -88.5 -174.999s-61.833 -111.333 -86.5 -150c-22.667 -35.333 -99.334 -139 -230.001 -311l-21 -29c-16.667 -56.667 -29.667 -105.334 -39 -146.001l85 125c136 196.667 237 291.334 303 284.001c45.333 -11.333 63.666 -51.666 54.999 -120.999l-18 -61
l-80 -300c-16.667 -56 -16.834 -88.667 -0.500977 -98s32.833 -8.33301 49.5 3s40.834 34 72.501 68s65.5 78.667 101.5 134c25.333 34.667 43.666 41.334 54.999 20.001c-64.667 -122.667 -123.334 -211.167 -176.001 -265.5s-98.167 -81.833 -136.5 -82.5
s-64 9.66602 -77 30.999s-18.333 46.833 -16 76.5s10.833 71 25.5 124z" />
    <glyph glyph-name="i" unicode="i" horiz-adv-x="443" 
d="M41 341l-75.999 -95.001c-64 -75.333 -100.333 -98.333 -109 -69c59.333 75.333 109.666 146 150.999 212l43 40c37.333 10.667 34.333 -18.666 -9 -87.999zM-11.999 356.999l208.002 313l24 13c26 -0.666992 38 -21 36 -61c-54 -102 -94 -233.333 -120 -394l-15 -85
l-2 -42c1.33301 -15.333 11.666 -24.333 30.999 -27c29.333 2.66699 82 44.667 158 126l80 95l7 -28c-62.667 -128 -138.334 -220.333 -227.001 -277c-36 -15.333 -70.333 -18.333 -103 -9c-50.667 18 -69 64.333 -55 139c2.66699 40 21 127.667 55 263l-83 -26h6z
M344.003 979.999l48.001 -30c3.33301 -38.667 -45.667 -80 -147 -124c-14.667 6 -26.334 8.66699 -35.001 8l-2 34c4.66699 20 50 57.333 136 112z" />
    <glyph glyph-name="j" unicode="j" horiz-adv-x="267" 
d="M-92 -115c-66.667 -74.667 -135.166 -177.5 -205.499 -308.5s-118.5 -239.333 -144.5 -325s-33.167 -152 -21.5 -199s32.167 -68.5 61.5 -64.5s58.666 25.167 87.999 63.5s60 112 92 221s75.333 313.167 130 612.5zM3.00098 442c21.333 106 46.502 179.333 75.502 220
s55 67.167 78 79.5s37.833 -0.833984 44.5 -39.501c-72 -210 -113.667 -341.333 -125 -394s-24 -117.334 -38 -194.001c75.333 89.333 148 166.666 218 231.999c29.333 38 47.333 56.667 54 56s3.16699 -15.334 -10.5 -44.001s-31.667 -56.5 -54 -83.5
s-44.833 -56.167 -67.5 -87.5s-43.834 -59.333 -63.501 -84l-58.5 -73.5c-19.333 -24.333 -30 -42.166 -32 -53.499s-16.167 -84 -42.5 -218l-74.5 -375.5c-23.333 -116.333 -59 -214.333 -107 -294s-98.667 -130.667 -152 -153s-97.833 -24 -133.5 -5
s-56.167 70.333 -61.5 154s18 189.834 70 318.501s186.333 331.667 403 609l28 168c-2 -2.66699 -4.33301 -5 -7 -7c-38 -46.667 -98.667 -84 -182 -112c-10.667 6 -14.334 15.667 -11.001 29c86.667 52.667 156.667 132.334 210 239.001
c12.667 26.667 21.5 47.834 26.5 63.501s9.16699 32.167 12.5 49.5zM218.003 1076l34 3c5.33301 0.666992 17.666 -9.66602 36.999 -30.999c2.66699 -32 -24.666 -68.333 -81.999 -109l-34 -2c-14.667 -1.33301 -22.667 5.66699 -24 21l-3 33
c-1.33301 11.333 22.667 39.666 72 84.999z" />
    <glyph glyph-name="k" unicode="k" horiz-adv-x="761" 
d="M26 219h-1c0.666992 -0.666992 1 -0.666992 1 0zM269 422c0 -9.33301 12.333 -21.667 37 -37h10l132 141v19c0 12.667 -6.33301 19 -19 19h-19c-20.667 0 -67.667 -47.333 -141 -142zM134 479.999l-9.99805 -40.001c73.333 7.33301 175 83 305 227
c42 19.333 70.333 29 85 29c38.667 -12.667 60.667 -28.334 66 -47.001v-19c-45.333 -93.333 -131.333 -199.666 -258 -318.999c37.333 -58.667 64.166 -109.667 80.499 -153s35.166 -67.5 56.499 -72.5s52 9.33301 92 43s85 77.167 135 130.5
c36.667 50 50.334 46.333 41.001 -11c-129.333 -198 -232.333 -287.333 -309 -268c-44 4 -80 48.667 -108 134s-50.833 133 -68.5 143s-37.834 13.167 -60.501 9.5s-52.834 -17.167 -90.501 -40.5s-68.5 -106.666 -92.5 -249.999
c-57.333 -48.667 -83.666 -22.667 -78.999 78l40 209l2 21c6.66699 26.667 24.667 113.667 54 261l130 -24zM70.002 415.998c-69.333 -92 -104.667 -144 -106 -156c-94.667 -121.333 -164 -190.333 -208 -207c-20.667 10 -9.66699 35 33 75l104 142
c38.667 71.333 85 148.333 139 231zM529.001 1445c-30 33.333 -74.8311 6.33496 -134.498 -80.998s-115 -219.333 -166 -396s-79.333 -286.334 -85 -329.001s8.66602 -43.834 42.999 -3.50098s85.166 111 152.499 212s123.5 217.5 168.5 349.5s52.167 214.667 21.5 248z
M-5.99707 442l31.002 144c32.667 134.667 64 256.667 94 366s72.667 223.333 128 342s113.666 197.834 174.999 237.501s111 47 149 22s56 -64.833 54 -119.5s-10.5 -111.834 -25.5 -171.501s-35.5 -117.167 -61.5 -172.5s-55.5 -113.666 -88.5 -174.999
s-61.833 -111.333 -86.5 -150c-22.667 -35.333 -99.334 -139 -230.001 -311l-21 -29l-17 -59l-116 48c4.66699 9.33301 9.66699 18.666 15 27.999z" />
    <glyph glyph-name="l" unicode="l" horiz-adv-x="461" 
d="M73 188l9 -74.998c29.333 -52.667 81 -54.667 155 -6c51.333 39.333 117.666 117.333 198.999 234l10 1c8 -0.666992 11.333 -7.33398 10 -20.001c-53.333 -136.667 -140.333 -243.667 -261 -321l-81 -27c-85.333 -4 -135.666 53.667 -150.999 173l-3 2l8 164l52 231
l80 -150c-20.667 -78.667 -29.667 -147.334 -27 -206.001zM70 416.002c-69.333 -92 -104.667 -144 -106 -156c-94.667 -121.333 -164 -190.333 -208 -207c-20.667 10 -9.66699 35 33 75l104 142c38.667 71.333 85 148.333 139 231zM528.999 1445
c-30 33.333 -74.8311 6.33496 -134.498 -80.998s-115 -219.333 -166 -396s-79.333 -286.334 -85 -329.001s8.66602 -43.834 42.999 -3.50098s85.166 111 152.499 212s123.5 217.5 168.5 349.5s52.167 214.667 21.5 248zM-5.99902 442.004l31.002 144
c32.667 134.667 64 256.667 94 366s72.667 223.333 128 342s113.666 197.834 174.999 237.501s111 47 149 22s56 -64.833 54 -119.5s-10.5 -111.834 -25.5 -171.501s-35.5 -117.167 -61.5 -172.5s-55.5 -113.666 -88.5 -174.999s-61.833 -111.333 -86.5 -150
c-22.667 -35.333 -99.334 -139 -230.001 -311l-21 -29l-17 -59l-116 48c4.66699 9.33301 9.66699 18.666 15 27.999z" />
    <glyph glyph-name="m" unicode="m" horiz-adv-x="1126" 
d="M512 103c-20 -69.333 -44.167 -107.332 -72.5 -113.999s-41.166 9.66602 -38.499 48.999c19.333 146.667 49.666 277.334 90.999 392.001l5 58c-12 15.333 -24.667 22.333 -38 21l-41 -12c-99.333 -108 -165.333 -201 -198 -279s-52 -134.333 -58 -169
c-43.333 -71.333 -78.666 -85.333 -105.999 -42c5.33301 50 23.666 135.333 54.999 256l29 112c37.333 108 16 122.333 -64 43c-2.66699 -15.333 -50 -82.333 -142 -201l-72 -89l-32 -2l1 30c26.667 56 102.334 156 227.001 300c71.333 83.333 134.666 138.333 189.999 165
l55 -9c17.333 -46.667 6.66602 -116 -32.001 -208c82 124 163 209.667 243 257l42 3c62.667 -24.667 84.334 -95.334 65.001 -212.001zM815 -10.999c-48.667 2.66699 -74.667 29.332 -78 79.999l6 75c28.667 101.333 51 184.666 67 249.999c44.667 124.667 42 176 -8 154
l-52 -37c-65.333 -57.333 -147 -175.333 -245 -354l-43 35l144 212c136 196.667 237 291.334 303 284.001c52 -11.333 73.667 -51.666 65 -120.999l-18 -61l-80 -300c-23.333 -78 -20.333 -113 9 -105l-10 -93zM1072 300.999c10.667 0 23.999 6.66797 39.999 20.001h19
c-55.333 -126 -135.333 -227.667 -240 -305c-15.333 -7.33301 -29.666 -13.333 -42.999 -18l32 104c67.333 37.333 131.333 103.666 192 198.999z" />
    <glyph glyph-name="n" unicode="n" horiz-adv-x="830" 
d="M92 -18l-11.001 45.999l66 285l23 83c22.667 80.667 8.33398 107.334 -42.999 80.001c-130.667 -202 -220 -300.667 -268 -296c54 84.667 156 230.667 306 438c48.667 29.333 82.667 44 102 44c27.333 -18.667 42 -51 44 -97l-4 -82l-8 -63l-18 -78l-107 -336
c-16 -32.667 -43.333 -40.667 -82 -24zM514.999 -11.001c-48.667 2.66699 -74.667 29.332 -78 79.999l6 75c28.667 101.333 51 184.666 67 249.999c44.667 124.667 42 176 -8 154l-52 -37c-65.333 -57.333 -147 -175.333 -245 -354l-43 35l144 212
c136 196.667 237 291.334 303 284.001c52 -11.333 73.667 -51.666 65 -120.999l-18 -61l-80 -300c-23.333 -78 -20.333 -113 9 -105l-10 -93zM771.999 300.997c10.667 0 23.999 6.66797 39.999 20.001h19c-55.333 -126 -135.333 -227.667 -240 -305
c-15.333 -7.33301 -29.666 -13.333 -42.999 -18l32 104c67.333 37.333 131.333 103.666 192 198.999z" />
    <glyph glyph-name="o" unicode="o" horiz-adv-x="509" 
d="M241 98c-59.333 -66.667 -117.002 -102.335 -173.002 -107.002c-75.333 4.66699 -123.666 44.834 -144.999 120.501s-11 171.5 31 287.5s111.333 203 208 261c16.667 26.667 41.834 47.334 75.501 62.001s69 17.667 106 9s64 -39 81 -91s11.333 -132.833 -17 -242.5
s-83.833 -209.5 -166.5 -299.5zM24.998 271.999c-17.333 -111.333 -1.83203 -173.334 46.501 -186.001s97.166 15.666 146.499 84.999s79.833 144.5 91.5 225.5s11 140.167 -2 177.5s-37 56.833 -72 58.5s-74.5 -30.166 -118.5 -95.499s-74.667 -153.666 -92 -264.999z
M91.999 -7.00195c-27.333 -2 -53.668 1.99902 -79.001 11.999c99.333 39.333 180.833 76.833 244.5 112.5s140.834 106.834 231.501 213.501l14 -27c-125.333 -196 -262.333 -299.667 -411 -311z" />
    <glyph glyph-name="p" unicode="p" horiz-adv-x="555" 
d="M274 733c90 4 148.999 -32.332 176.999 -108.999c25.333 -61.333 28 -124 8 -188c-35.333 -128.667 -126.333 -243 -273 -343c-16 -16 -81 -57 -195 -123c-51.333 -228.667 -83 -412.5 -95 -551.5s-17.333 -240 -16 -303s6.66602 -128.167 15.999 -195.5l-14 -20
c-52.667 2.66699 -85.167 34.167 -97.5 94.5s-16.166 121.5 -11.499 183.5s14.667 157.333 30 286c30.667 210 50.334 340.5 59.001 391.5l39 219.5c57.333 267.333 98 444.666 122 531.999c91.333 81.333 175 123.333 251 126zM15.999 93.001l62.999 16.0029
c92.667 21.333 178.667 122.666 258 303.999l5 84c-2 79.333 -27.333 122.666 -76 129.999l-42 -1c-91.333 -10.667 -160.666 -188.334 -207.999 -533.001zM28.998 15.0039c58.667 35.333 112.833 58.334 162.5 69.001s100 31.5 151 62.5s104.833 72.833 161.5 125.5l14 -27
c-128.667 -176.667 -291.667 -253.334 -489 -230.001z" />
    <glyph glyph-name="q" unicode="q" horiz-adv-x="622" 
d="M544 756c4.66699 -27.333 11.334 -40.665 20.001 -39.998c-76.667 -210 -147.334 -473.333 -212.001 -790c-22.667 -146 -38.167 -261 -46.5 -345s-15.5 -181 -21.5 -291s-9 -198.5 -9 -265.5s-10.167 -105.333 -30.5 -115s-36.666 5.66602 -48.999 45.999
s-20.5 86 -24.5 137s5.33301 196.333 28 436s69.667 491.167 141 754.5c-47.333 -80.667 -134.333 -170.667 -261 -270c-52 -33.333 -98.5 -49.333 -139.5 -48s-66.833 28 -77.5 80c-10 124 31 246.833 123 368.5s179.167 206 261.5 253s139.166 57.167 170.499 30.5l16 -44
c46.667 67.333 83.667 101.666 111 102.999zM135 474.001c-55.333 -57.333 -96.6689 -112.835 -124.002 -166.502s-41.166 -105.667 -41.499 -156s25.5 -68.166 77.5 -53.499s106.667 54.834 164 120.501s100.5 138.5 129.5 218.5s15.833 120.333 -39.5 121
s-110.666 -27.333 -165.999 -84zM370.997 126.999c56.667 18.667 128.667 82.667 216 192l15 -27c-64 -147.333 -153.333 -238.333 -268 -273l30 105c2 0.666992 4.33301 1.66699 7 3z" />
    <glyph glyph-name="r" unicode="r" horiz-adv-x="728" 
d="M306 846l-39.998 -58.0029c-27.333 -39.333 -41 -73.333 -41 -102c-3.33301 -38.667 26 -64 88 -76s102.167 -29.667 120.5 -53s18.5 -69.166 0.5 -137.499s-35.333 -148.166 -52 -239.499c-1.33301 -56 15.667 -78.333 51 -67c64.667 19.333 151.334 88 260.001 206
l12 -10l4 -24c-82.667 -123.333 -165 -213 -247 -269c-36.667 -26 -75 -34.667 -115 -26c-40.667 15.333 -60.834 53.333 -60.501 114s11.333 130.334 33 209.001s25.167 129.334 10.5 152.001s-43.834 39.5 -87.501 50.5s-77.834 -0.5 -102.501 -34.5
c-73.333 -106 -125.333 -178.5 -156 -217.5s-57.167 -67.5 -79.5 -85.5s-35.5 -17.333 -39.5 2l63 104c30.667 45.333 73 119.666 127 222.999c42 236.667 125.667 349.667 251 339z" />
    <glyph glyph-name="s" unicode="s" horiz-adv-x="569" 
d="M352 818c41.333 11.333 61.0039 3.33301 59.0039 -24c-56 -76 -85 -138.333 -87 -187c-5.33301 -33.333 5 -81.666 31 -144.999c51.333 -87.333 65.5 -176.333 42.5 -267s-84.5 -155.334 -184.5 -194.001c-80 -14 -139.667 -8.83301 -179 15.5s-58.833 53.333 -58.5 87
s10.166 59 29.499 76s42.666 20 69.999 9s33.666 -45.167 18.999 -102.5c8 -27.333 28 -38 60 -32s61 26 87 60s42.5 81.333 49.5 142s-2.16699 114.167 -27.5 160.5s-51.166 63.833 -77.499 52.5s-99.333 -84.333 -219 -219s-196.5 -204.667 -230.5 -210
c-26 -10.667 -35 0.666016 -27 33.999c101.333 70.667 211.666 187.334 330.999 350.001c32 38 82.667 110.333 152 217c43.333 84 96.666 143 159.999 177zM185.004 4c36.667 39.333 82.332 72.332 136.999 98.999s127.334 93.334 218.001 200.001l14 -27
c-92 -173.333 -215 -264 -369 -272z" />
    <glyph glyph-name="t" unicode="t" horiz-adv-x="445" 
d="M83 562l-22.9971 18.9971h-56l-54 7c-50 14 -53.333 35.667 -10 65c71.333 0 120.833 4.16699 148.5 12.5s53.834 60.5 78.501 156.5c36.667 148.667 66.667 254.667 90 318l35 60c29.333 18.667 48.666 14.334 57.999 -12.999s0.333008 -72.666 -27 -135.999l-58 -184
c-18.667 -60.667 -25.334 -109 -20.001 -145c19.333 -16.667 40.666 -30.667 63.999 -42c149.333 -8.66699 223.666 -8 222.999 2l27 -7l1 -9c-2 -18 -49.333 -33.667 -142 -47l-74 -20l-64 -9c-46.667 -7.33301 -82.667 -62.333 -108 -165c-36 -128 -52 -220 -48 -276
s36.333 -63.333 97 -22c42.667 22 116.667 98.667 222 230h9l5 -38c-100 -146.667 -174.333 -239 -223 -277c-36 -37.333 -78.333 -57 -127 -59c-80 3.33301 -111.667 63.666 -95 180.999c6.66699 58.667 23.667 141 51 247c-51.333 -93.333 -101 -167.166 -149 -221.499
s-76.833 -77.833 -86.5 -70.5s-11.5 15.5 -5.5 24.5s17.333 24.5 34 46.5s43.5 60.333 80.5 115s85.833 140.334 146.5 257.001z" />
    <glyph glyph-name="u" unicode="u" horiz-adv-x="836" 
d="M619 718c38 13.333 56.002 0.666992 54.002 -38c-86.667 -247.333 -134.667 -398 -144 -452l-10 -61c-1.33301 -46 12 -71.333 40 -76c78.667 36.667 151 106.667 217 210c10.667 0 24 6.66699 40 20h19c-55.333 -126 -135.333 -227.667 -240 -305
c-116 -57.333 -179.333 -22 -190 106l20 116c-46.667 -84.667 -107 -154.334 -181 -209.001c-56.667 -39.333 -101.667 -56.166 -135 -50.499s-55.333 28 -66 67s5.33301 124.5 48 256.5l19 92c13.333 54 -15 33 -85 -63l-136 -172
c-38.667 -3.33301 -44.334 12.667 -17.001 48s51 68 71 98l231 348c69.333 36.667 108.333 38 117 4l-89 -308.5c-16.667 -55.667 -31.334 -122.167 -44.001 -199.5l6 -38l17 -7c48 6 126.333 80.333 235 223l133 310z" />
    <glyph glyph-name="v" unicode="v" horiz-adv-x="653" 
d="M-83 195c-18.667 -16 -28.6719 -8.99609 -30.0049 21.0039c108 162.667 177.5 261.334 208.5 296.001s55.5 55.667 73.5 63s34.5 5.83301 49.5 -4.5s22.5 -33.333 22.5 -69s-12 -94.334 -36 -176.001s-39.333 -143.334 -46 -185.001s-1.16699 -64.834 16.5 -69.501
s45.667 9.66602 84 42.999s72.5 76.166 102.5 128.499s53.833 107.333 71.5 165s21.667 100.167 12 127.5s-16.5 56.333 -20.5 87s2.33301 64.5 19 101.5s39.834 53.333 69.501 49s49.167 -27.5 58.5 -69.5s-6.66699 -133 -48 -273c-52 -156 -118.667 -279.333 -200 -370
c4.66699 2 14.334 5.16699 29.001 9.5s45.334 24.333 92.001 60s103.334 93.5 170.001 173.5l14 -27c-116.667 -178.667 -243 -280.667 -379 -306c-33.333 -6 -66 -7.66699 -98 -5s-57.667 14.5 -77 35.5s-26 55.167 -20 102.5s19.833 105 41.5 173s31.834 109 30.501 123
s-13.833 11 -37.5 -9s-81.167 -85 -172.5 -195z" />
    <glyph glyph-name="w" unicode="w" horiz-adv-x="976" 
d="M625 27c-22.667 -26 -43.6641 -43.3359 -62.9971 -52.0029l-12 -6l-16 1c-86 18 -127 120.667 -123 308c3.33301 56 -6.33398 66 -29.001 30s-55.167 -91 -97.5 -165s-82.833 -122.167 -121.5 -144.5s-68.334 -24.333 -89.001 -6s-26.167 49 -16.5 92s24 102.667 43 179
s29 124 30 143s-11.5 16 -37.5 -9s-87.333 -96.167 -184 -213.5c-34.667 -28 -47.667 -30.5 -39 -7.5s24.334 52.167 47.001 87.5l85.5 127c34.333 49.333 66.166 90.5 95.499 123.5s53 53.167 71 60.5s34.5 5.83301 49.5 -4.5s20.667 -38.666 17 -84.999
s-14.834 -105 -33.501 -176l-39.5 -150.5c-7.66699 -29.333 -6.33398 -45.166 3.99902 -47.499s27.833 11.834 52.5 42.501s61.667 90 111 178s82 148.167 98 180.5s35.667 52.833 59 61.5s32.5 -16.5 27.5 -75.5s-8 -120.167 -9 -183.5s4.33301 -115.666 16 -156.999
s27.167 -56.833 46.5 -46.5s44.833 42.666 76.5 96.999s59 115.5 82 183.5s29.667 115.667 20 143s-16.5 56.333 -20.5 87s2.33301 64.5 19 101.5s39.834 53.333 69.501 49s49.167 -27.5 58.5 -69.5s-6.66699 -133 -48 -273c-55.333 -164 -122 -298.333 -200 -403z
M575.003 -30.0029c-48.667 -5.33301 -54.502 4.33008 -17.502 28.9971s58.833 40.334 65.5 47.001s21.167 13.334 43.5 20.001s56.833 27.834 103.5 63.501s103.334 93.5 170.001 173.5l14 -27c-125.333 -196 -251.666 -298 -378.999 -306z" />
    <glyph glyph-name="x" unicode="x" horiz-adv-x="552" 
d="M-243 43c-52.667 -44.667 -62.9971 -45.333 -30.9971 -2c103.333 114 196.666 227.5 279.999 340.5s158.666 200 225.999 261s118.166 100.333 152.499 118s57.833 23.5 70.5 17.5s3.66699 -20.167 -27 -42.5s-85 -72.833 -163 -151.5s-247.333 -259 -508 -541z
M79.0029 838.001c4 -98 15.5 -215.831 34.5 -353.498s44.667 -236.167 77 -295.5s70.666 -81.666 114.999 -66.999s101.166 65 170.499 151c42.667 52.667 68.167 74.167 76.5 64.5s-13.5 -52.167 -65.5 -127.5s-101.833 -128.333 -149.5 -159
s-95.167 -37.334 -142.5 -20.001s-85.666 57.5 -114.999 120.5s-50.333 146.167 -63 249.5s-17.167 199.666 -13.5 288.999s28.834 138.666 75.501 147.999zM1.00293 366.003h9l57 -2c-124.667 -146 -223 -251.5 -295 -316.5s-127 -100.5 -165 -106.5
c46 38 96.833 85.5 152.5 142.5s136.167 151.167 241.5 282.5z" />
    <glyph glyph-name="y" unicode="y" horiz-adv-x="757" 
d="M440 -26c-118 -110.667 -233.832 -237.666 -347.499 -380.999s-179.167 -271 -196.5 -383s2.16699 -176.5 58.5 -193.5s122.333 22.833 198 119.5s138.167 231.667 187.5 405s82.666 317.666 99.999 432.999zM580.001 175.001l169 191.002
c10.667 1.33301 23.334 9.33301 38.001 24l9 2c-50.667 -102 -130 -212 -238 -330l-6 -32c-15.333 -38.667 -28 -87.667 -38 -147c-30 -208 -76.833 -390.5 -140.5 -547.5s-136.334 -270 -218.001 -339s-159.334 -97.667 -233.001 -86s-112.834 67.667 -117.501 168
s29.166 215.666 101.499 345.999s212.833 311.833 421.5 544.5c86.667 100.667 135.334 194.667 146.001 282l-3 25c-2 17.333 -12.667 19.666 -32 6.99902l-33 -38c-22 -34 -49.667 -71.333 -83 -112c-88 -130 -165.667 -188 -233 -174c-40.667 8.66699 -60 47.667 -58 117
c41.333 166.667 72.333 281.334 93 344.001c-2 16.667 -25.333 -7.5 -70 -72.5s-114.667 -141.5 -210 -229.5l-31 22l82 104c65.333 78.667 175 229.667 329 453c48.667 4 66 -33.333 52 -112c-44 -141.333 -81.333 -276.333 -112 -405
c-19.333 -82.667 -13.166 -118.667 18.501 -108s71.167 45 118.5 103h2l54 66v3c108.667 172 201.334 327 278.001 465c31.333 27.333 59.333 22.666 84 -14.001l-103 -334z" />
    <glyph glyph-name="z" unicode="z" horiz-adv-x="614" 
d="M471 746l32 0.00195312v-32c-50.667 -74 -122.334 -160 -215.001 -258c-71.333 -114.667 -107 -185.334 -107 -212.001s11.667 -45 35 -55s52 -36 86 -78l31 -70c62.667 58 109.167 103.333 139.5 136l90.5 97.5c30 32.333 42.333 37.5 37 15.5
c-84 -161.333 -168.667 -286.333 -254 -375c-16.667 -182 -53.334 -338.667 -110.001 -470s-106.667 -224.833 -150 -280.5s-92.666 -110.834 -147.999 -165.501c-58.667 -53.333 -118.667 -84 -180 -92c-56.667 -8 -91 7 -103 45l-6 59
c0.666992 274.667 173.667 575.667 519 903c26.667 16 21.667 60.333 -15 133l-69 44c-30 0 -80 -18 -150 -54v11c0 7.33301 -3.66699 11 -11 11c0 15.333 61 90.333 183 225c114 185.333 171 289.333 171 312c-51.333 21.333 -94 32 -128 32l-97 -11v22
c64.667 64 125.334 96 182.001 96c70.667 -21.333 117.334 -32 140.001 -32c23.333 0 55.666 14.333 96.999 43zM-237 -922.998c3.33301 -61.333 24.666 -80.668 63.999 -58.001c60.667 28 126.334 100.667 197.001 218c102 185.333 163.667 385.333 185 600l-72 -39
c-190 -175.333 -309.333 -373.666 -358 -594.999z" />
    <glyph glyph-name="braceleft" unicode="{" horiz-adv-x="1127" 
d="M596 2125c33.333 -140 317 -194.668 851 -164.001l281 -8l-70 -64c-91.333 -22.667 -432.333 -30 -1023 -22l-110 -28c-42 -49.333 -72.333 -172 -91 -368l-14 -197c-133.333 -791.333 -205.333 -1270.33 -216 -1437l-9 -119c-13.333 -117.333 143.667 -171.333 471 -162
c68.667 -4 149.667 -3 243 3l416 5l41 -82c-302.667 -29.333 -714 -40 -1234 -32c-94.667 -16 -139.334 12.667 -134.001 86l4 60c154.667 504 260.334 1121 317.001 1851c-2.66699 156.667 -1.66699 269.334 3 338.001c48.667 158 140 271.333 274 340zM2243 -708.001
c-33.333 140 -292.669 199.002 -778.002 177.002l-280 17l70 63c91.333 17.333 407.333 17.666 948 0.999023l110 28c42 49.333 72.333 172 91 368l14 197c133.333 791.333 205.333 1270.33 216 1437l9 143c13.333 118 -83 175 -289 171c-69.333 4 -200.666 3 -393.999 -3
l-318 -5l-41 82c250.667 4 619.334 12 1106 24c94 16 138.333 -12.667 133 -86l-4 -61c-154.667 -520 -260 -1145 -316 -1875c2 -156.667 1 -269.334 -3 -338.001c-49.333 -158 -140.666 -271.333 -274 -340z" />
    <glyph glyph-name="bar" unicode="|" horiz-adv-x="663" 
d="M429 1502c-40 -73.333 -67 -229.668 -81 -469.001c-14 -126 -26 -321.333 -36 -586c-26 -136.667 -33.333 -281 -22 -433c6.66699 -147.333 -15 -250 -65 -308l-38 22c-23.333 48 -5.33301 389.333 54 1024c28 506 51 765.5 69 778.5s36.5 23.333 55.5 31
s40.167 -12.166 63.5 -59.499z" />
    <glyph glyph-name="braceright" unicode="}" horiz-adv-x="914" 
d="M242 547c44.667 19.333 93.332 20.168 145.999 2.50098s92.334 -28.834 119.001 -33.501s54.334 -2.83398 83.001 5.49902s53.834 28 75.501 59s37.834 46.667 48.501 47s10.167 -14.334 -1.5 -44.001s-29.167 -59.834 -52.5 -90.501s-52.833 -53 -88.5 -67
s-72.834 -15.667 -111.501 -5s-70.834 22.334 -96.501 35.001s-53.334 20.334 -83.001 23.001s-57.5 -2.83301 -83.5 -16.5s-44.667 -22.667 -56 -27s-18 -2.66602 -20 5.00098s6.66699 22.667 26 45s51 42.833 95 61.5zM227.998 279.002
c41.333 14.667 87.501 14.166 138.501 -1.50098s89.833 -25.834 116.5 -30.501s51.667 -3.16699 75 4.5s48.5 27.334 75.5 59.001s45.833 47.667 56.5 48s10 -14.334 -2 -44.001s-28.167 -56.834 -48.5 -81.501s-47.666 -44.667 -81.999 -60s-72.833 -20 -115.5 -14
s-76.834 15.333 -102.501 28s-52.334 18.834 -80.001 18.501s-52.667 -4.16602 -75 -11.499s-44.166 -19.666 -65.499 -36.999s-31 -17.333 -29 0s15.167 38.5 39.5 63.5s57.166 44.5 98.499 58.5z" />
    <glyph glyph-name="asciitilde" unicode="~" horiz-adv-x="906" 
d="M251 571c51.333 20 104.667 9.5 160 -31.5s97.333 -68.333 126 -82s59.167 -17.334 91.5 -11.001s62.333 31.333 90 75s47.334 64.5 59.001 62.5s9.16699 -25.167 -7.5 -69.5s-39.834 -82.333 -69.501 -114s-67 -49.334 -112 -53.001s-88.667 7.66602 -131 33.999
l-108.5 69c-30 19.667 -59.333 29.334 -88 29.001s-55.167 -9.66602 -79.5 -27.999s-42.833 -29.666 -55.5 -33.999s-19.667 0 -21 13s10 34.667 34 65s61.333 55.5 112 75.5z" />
    <glyph glyph-name="uni0089" horiz-adv-x="2795" 
d="M1972 1346c73.333 -14.667 120.667 -56 142 -124s-8.66699 -168.667 -90 -302c-78.667 -132 -215 -275.667 -409 -431c-298.667 -242.667 -496.667 -421.334 -594 -536.001c-6.66699 -30 -38 22 -94 156s-113.833 265.5 -173.5 394.5s-84.667 245.5 -75 349.5
s70.834 191 183.501 261c47.333 32 105.333 44.333 174 37c69.333 -14.667 129 -65 179 -151l47 -92l140 159c115.333 112.667 243.666 198.334 384.999 257.001z" />
    <glyph glyph-name="exclamdown" unicode="&#xa1;" horiz-adv-x="347" 
d="M89 132c144 430 223 701 237 813s28 178 42 198s25.667 29.667 35 29h10c0 -7.33301 3 -17.666 9 -30.999c-9.33301 -112.667 -24.833 -229.834 -46.5 -351.501s-54.5 -263.5 -98.5 -425.5s-102.833 -273 -176.5 -333s-77.5 -26.333 -11.5 101zM409 1380l-20 1
c-13.333 3.33301 -19.666 10.666 -18.999 21.999c3.33301 46 40.666 91 111.999 135l10 -1c13.333 -0.666992 19.666 -7.66699 18.999 -21l-2 -21c-55.333 -77.333 -88.666 -115.666 -99.999 -114.999z" />
    <glyph glyph-name="cent" unicode="&#xa2;" horiz-adv-x="742" 
d="M454 715c71.333 -10.667 119.668 -33.6689 145.001 -69.002s31.333 -57.666 18 -66.999s-27.833 -6.33301 -43.5 9s-36 27.833 -61 37.5s-45.833 2.33398 -62.5 -21.999s-39.667 -128.5 -69 -312.5c-30 -136 -29 -204.667 3 -206s67.833 9 107.5 31
s81.834 49.333 126.501 82s50.334 28.167 17.001 -13.5s-74.333 -80.334 -123 -116.001s-88.834 -60.5 -120.501 -74.5s-50.334 -38.833 -56.001 -74.5s-14 -79 -25 -130s-24 -82.5 -39 -94.5s-24.667 -7.5 -29 13.5s-4 54.667 1 101l16.5 151.5
c-53.333 -2.66699 -105.333 10.833 -156 40.5s-82.5 76 -95.5 139s-8.16699 139.333 14.5 229s66.167 165.334 130.5 227.001s139.5 101.834 225.5 120.501c54.667 209.333 87.667 311.833 99 307.5s13.666 -35.333 6.99902 -93s-17 -129.834 -31 -216.501zM275.002 123.998
c12 122.667 32.667 246.666 62 371.999c34.667 105.333 28.334 146.333 -18.999 123s-92.833 -65.666 -136.5 -126.999s-68 -137.333 -73 -228s19.167 -147.667 72.5 -171s84.666 -13 93.999 31z" />
    <glyph glyph-name="sterling" unicode="&#xa3;" horiz-adv-x="902" 
d="M275 607c-186 10.667 -277.494 23.9912 -274.494 39.9912s50 28 141 36s144.833 32.5 161.5 73.5s31.667 98.167 45 171.5s33.5 141.833 60.5 205.5s69 123 126 178s110 88.5 159 100.5s84 13.5 105 4.5s27.5 -22.167 19.5 -39.5s-28.5 -27 -61.5 -29
s-66.833 -11.5 -101.5 -28.5s-65.5 -42.167 -92.5 -75.5s-50.333 -74 -70 -122s-34.334 -98.5 -44.001 -151.5s-16.5 -101.833 -20.5 -146.5s-4.66699 -74.167 -2 -88.5s27.667 -24.666 75 -30.999s102.166 -8.16602 164.499 -5.49902s94.166 -4.5 95.499 -21.5
s-19.834 -29.667 -63.501 -38s-102.834 -12.333 -177.501 -12s-120.334 -24.167 -137.001 -73.5s-28 -90 -34 -122l-23.5 -125c-9.66699 -51.333 -1.33398 -96.166 24.999 -134.499s70.833 -63.166 133.5 -74.499s119.5 -6.66602 170.5 14.001s94.667 45.334 131 74.001
s50.5 29.834 42.5 3.50098s-42.5 -61.666 -103.5 -105.999s-118.5 -72.5 -172.5 -84.5s-122.167 -2.66699 -204.5 28s-155.166 42.5 -218.499 35.5s-113 -20 -149 -39s-61.5 -29.667 -76.5 -32s-22.167 6.66699 -21.5 27s29.667 45.5 87 75.5s115.5 70.333 174.5 121
s102.833 181.334 131.5 392.001z" />
    <glyph glyph-name="currency" unicode="&#xa4;" horiz-adv-x="655" 
d="M563 618c22 0 29.998 -14.999 23.998 -44.999c-0.666992 -15.333 -14.5 -37 -41.5 -65s-40.5 -47.333 -40.5 -58c34 -45.333 49.5 -97.666 46.5 -156.999s-18.5 -109 -46.5 -149c57.333 -64.667 86 -104.334 86 -119.001c0 -22 -10.667 -38.333 -32 -49
c-16 0 -53.333 35.333 -112 106c-10 9.33301 -28.5 5.5 -55.5 -11.5s-61 -25 -102 -24s-81.833 11.5 -122.5 31.5l-88 -94c-18.667 -12 -34.667 -15 -48 -9s-16.666 22 -9.99902 48c0 11.333 29.333 51.666 88 120.999c-33.333 92 -24.666 175.667 26.001 251
c-58 68 -91.333 120.667 -100 158c0 24.667 14.667 39.667 44 45c16.667 -10 36 -28 58 -54l70 -55c44 25.333 86.667 38 128 38s75.333 -8.33301 102 -25zM313.998 408.001c-44.667 -5.33301 -79.5 -25.833 -104.5 -61.5s-31.5 -77.334 -19.5 -125.001
s47.167 -74 105.5 -79s102 9.83301 131 44.5s41.167 71.834 36.5 111.501s-19.5 69.167 -44.5 88.5s-59.833 26.333 -104.5 21z" />
    <glyph glyph-name="yen" unicode="&#xa5;" horiz-adv-x="897" 
d="M564 777c-12 -33.333 6.50293 -52.668 55.5029 -58.001s116.833 -9.66602 203.5 -12.999c113.333 -22.667 94.5 -36.834 -56.5 -42.501s-230.333 -18 -238 -37s-13.834 -53.5 -18.501 -103.5c22 -3.33301 111.333 -10 268 -20c110.667 -22 17 -40 -281 -54
c-13.333 -137.333 -28 -248.5 -44 -333.5s-41 -138.5 -75 -160.5l-29 17c-16.667 31.333 -17.5 90.333 -2.5 177s29.167 185.334 42.5 296.001c-71.333 -2.66699 -147 -5 -227 -7c-44.667 7.33301 -67 20 -67 38c0 6 19.333 17 58 33c102 9.33301 178.667 13.666 230 12.999
c12.667 0 21 12.5 25 37.5s4 54.5 0 88.5c-56.667 -2 -123.334 -4 -200.001 -6c-45.333 6.66699 -68 19.334 -68 38.001c0 5.33301 19.333 16.333 58 33c102.667 8.66699 167.167 16.5 193.5 23.5s16.5 46.667 -29.5 119s-93 150.5 -141 234.5l-197 333
c40 20.667 82.833 0.5 128.5 -60.5l164.5 -228c64 -91 114.667 -173.167 152 -246.5c14.667 -42 34.667 -38 60 12l223 287c131.333 176 231.5 275.667 300.5 299s64.167 -7.16699 -14.5 -91.5s-211.334 -255.5 -398.001 -513.5z" />
    <glyph glyph-name="section" unicode="&#xa7;" horiz-adv-x="1201" 
d="M751 435c81.333 -51.333 123.168 -113.332 125.501 -185.999s-29.834 -136.167 -96.501 -190.5s-142.167 -87.666 -226.5 -99.999s-159.333 -12.833 -225 -1.5s-129 33.833 -190 67.5s-102 76.667 -123 129s-21.667 95.666 -2 129.999s49 58.333 88 72
s71.5 8.5 97.5 -15.5c-66.667 -68.667 -78.667 -130.5 -36 -185.5s103.334 -90.5 182.001 -106.5s153.667 -14.167 225 5.5s121.5 58.334 150.5 116.001s15.5 111 -40.5 160s-133.333 87.167 -232 114.5s-187.834 67.666 -267.501 120.999s-109.167 129.166 -88.5 227.499
s98 160.5 232 186.5c-22 -2 -54.5 17.5 -97.5 58.5s-58.167 97.333 -45.5 169s55.334 132 128.001 181s154.834 73.5 246.501 73.5s171.167 -14.833 238.5 -44.5s112.5 -61.5 135.5 -95.5s31.5 -62.833 25.5 -86.5s-21.333 -33.334 -46 -29.001s-45.167 20 -61.5 47
s-39.166 50 -68.499 69s-67.833 35.333 -115.5 49s-104.834 13.834 -171.501 0.500977s-117.834 -41.666 -153.501 -84.999s-44.334 -89.333 -26.001 -138s68.833 -92 151.5 -130l262 -121.5c92 -43 153 -101.167 183 -174.5s24.833 -137.833 -15.5 -193.5
s-87.833 -86.834 -142.5 -93.501zM526.002 872.001c-139.333 38 -232.835 21.998 -280.502 -48.002s-34.667 -131.333 39 -184s160.834 -89.667 261.501 -111s176.334 -12.166 227.001 27.501s57 92.834 19 159.501s-126.667 118.667 -266 156z" />
    <glyph glyph-name="copyright" unicode="&#xa9;" horiz-adv-x="1743" 
d="M1183 120c-91.333 -62.667 -174.167 -100.334 -248.5 -113.001s-144 -17 -209 -13s-138.667 27.667 -221 71s-151.333 116.833 -207 220.5s-79 233.334 -70 389.001s59 294.667 150 417s189.5 208 295.5 257s214.333 71 325 66s205.5 -37 284.5 -96
s140.333 -139.333 184 -241s52.5 -253 26.5 -454s-129.333 -368.833 -310 -503.5zM400.999 398c41.333 -102.667 96.832 -179.003 166.499 -229.003s159.5 -77.167 269.5 -81.5s219.333 32.167 328 109.5s185.334 204.333 230.001 381s35.5 338.334 -27.5 485.001
s-172.5 233.334 -328.5 260.001s-299.667 -13.166 -431 -119.499s-209 -241.333 -233 -405s-15.333 -297.167 26 -400.5zM1155 545.997c0 -38 -31.1602 -78.9971 -93.4932 -122.997s-128 -66.667 -197 -68s-128 15.667 -177 51s-83.167 83 -102.5 143s-21 128.833 -5 206.5
s50.333 144.667 103 201s108.667 95.166 168 116.499s121.166 25.833 185.499 13.5s110.166 -41.5 137.499 -87.5s28.333 -74.5 3 -85.5s-47.5 -0.666992 -66.5 31s-50.833 52 -95.5 61s-93.334 2.33301 -146.001 -20s-98.834 -65 -138.501 -128
s-56.167 -132.833 -49.5 -209.5s35.167 -129.334 85.5 -158.001s101.166 -38.334 152.499 -29.001s100.166 36.333 146.499 81s76.166 46 89.499 4z" />
    <glyph glyph-name=".notdef.039" unicode="&#xab;" horiz-adv-x="1335" 
d="M614 809l6.00098 -22c-2 -22 -64 -75.667 -186 -161c-130.667 -103.333 -205.834 -161.666 -225.501 -174.999s5.5 -47 75.5 -101c164.667 -161.333 255.167 -273 271.5 -335s-6.5 -62.167 -68.5 -0.5l-191 185.5l-174.5 164c-51 47.333 -54.167 88.166 -9.5 122.499
s109 76.5 193 126.5c42 29.333 138.333 92 289 188zM929.001 809l6.00098 -22c-2 -22 -64 -75.667 -186 -161c-130.667 -103.333 -205.834 -161.666 -225.501 -174.999s5.5 -47 75.5 -101c164.667 -161.333 255.167 -273 271.5 -335s-6.5 -62.167 -68.5 -0.5l-191 185.5
l-174.5 164c-51 47.333 -54.167 88.166 -9.5 122.499s109 76.5 193 126.5c42 29.333 138.333 92 289 188z" />
    <glyph glyph-name="registered" unicode="&#xae;" horiz-adv-x="1148" 
d="M671 914c-48.667 -32 -94.166 -51.1719 -136.499 -57.5049s-78.833 -8.16602 -109.5 -5.49902s-67.167 14.834 -109.5 36.501s-77.5 57.834 -105.5 108.501s-39.667 115.334 -35 194.001s29.834 148.834 75.501 210.501s95.167 104.834 148.5 129.501s108 35.667 164 33
s105.833 -19.334 149.5 -50.001s75.167 -78.5 94.5 -143.5s20.666 -143.5 3.99902 -235.5s-63.334 -165.333 -140.001 -220zM256.001 1044c18 -46.667 45.335 -82.334 82.002 -107.001s84.5 -38.167 143.5 -40.5s116.667 17.334 173 59.001s94.666 105.667 114.999 192
s14.666 167 -17.001 242s-87.5 118.333 -167.5 130s-153 -9.33301 -219 -63s-105.333 -124 -118 -211s-10 -154.167 8 -201.5zM536.003 1427c42.667 0 71.335 -10.998 86.002 -32.998c26 -30 22.667 -73.333 -10 -130c-38.667 -48.667 -74 -80.667 -106 -96
c-6.66699 0 -12.334 -11 -17.001 -33c0 -12.667 43.333 -29.334 130 -50.001c28.667 -2 43 -9.66699 43 -23s-24.333 -24.666 -73 -33.999c-45.333 9.33301 -79 20.166 -101 32.499s-41.667 20.5 -59 24.5c-14 0 -27.667 -24.333 -41 -73l-13 -7
c-13.333 0 -20.833 14.333 -22.5 43s4.16602 85.167 17.499 169.5s36.333 132.166 69 143.499c0 13.333 12 26.5 36 39.5s44.333 21.833 61 26.5zM443.004 1198l9.99805 -7.00098c20 0 35.5 3 46.5 9s28.167 22.667 51.5 50s35 53.333 35 78s-18 37.667 -54 39
c-33.333 -1.33301 -56.666 -11.666 -69.999 -30.999s-19.666 -65.333 -18.999 -138z" />
    <glyph glyph-name="degree" unicode="&#xb0;" horiz-adv-x="532" 
d="M436 1358c-42 -20 -82.667 -23.665 -122 -10.998c-52.667 22 -86.5 56.167 -101.5 102.5s-7 93 24 140s65.667 76.667 104 89s69.333 18 93 17s48.5 -8.66699 74.5 -23s45 -37.833 57 -70.5s8 -74.834 -12 -126.501s-59 -90.834 -117 -117.501zM284 1509
c-12 -55.333 -1 -92.833 33 -112.5s68.333 -17.334 103 6.99902s56 56.833 64 97.5s7.5 72.834 -1.5 96.501s-25.833 40.5 -50.5 50.5s-52.5 3.16699 -83.5 -20.5s-52.5 -63.167 -64.5 -118.5z" />
    <glyph glyph-name="plusminus" unicode="&#xb1;" horiz-adv-x="874" 
d="M46 273h327c37.333 0 59 -9.66699 65 -29c-12 -29.333 -94 -46.333 -246 -51h-232c-10 0 -15 5 -15 15v6c43.333 39.333 77 59 101 59zM340 862c29.333 0 40.335 -18.666 33.002 -55.999l-30 -179c11.333 -0.666992 72 1 182 5c24 -18.667 36 -29.334 36 -32.001l17 -7
c-23.333 -38 -98 -55 -224 -51c-8.66699 0 -17.667 -6.33301 -27 -19l-30 -128c-1.33301 -65.333 -16.333 -94.333 -45 -87c-44.667 0 -65.334 27.333 -62.001 82l16 151c-40 -8 -60 -10 -60 -6l-62 -6h-44c-35.333 0 -53 8.66699 -53 26c40 48.667 116.333 70.667 229 66
c29.333 160.667 67.666 241 114.999 241h9z" />
    <glyph glyph-name="uni00B2" unicode="&#xb2;" horiz-adv-x="469" 
d="M613 1944c58 -12 86.6689 -47 86.002 -105c-6.66699 -45.333 -28.667 -104.333 -66 -177c-23.333 -52 -97.333 -143 -222 -273c79.333 -75.333 170.333 -98.333 273 -69c43.333 -14 24.333 -27.667 -57 -41l-148 -10c-84.667 26 -130.667 38.667 -138 38l-25 -3
c-48 -48 -77.667 -72.667 -89 -74c-22.667 -2.66699 -40 5 -52 23c-3.33301 26 19.667 92 69 198c66 43.333 113.667 31.333 143 -36l65 68c34 52 75.333 119.333 124 202c20 42 34 79.333 42 112c4.66699 64.667 -24 94 -86 88c-84.667 -21.333 -120 -74 -106 -158
c-26.667 -14.667 -45.334 -22.667 -56.001 -24c-10 -1.33301 -17.667 9.33398 -23 32.001c-1.33301 53.333 52 115.666 160 186.999c39.333 16 74.666 23.333 105.999 22z" />
    <glyph glyph-name="uni00B3" unicode="&#xb3;" horiz-adv-x="451" 
d="M492 1938c45.333 -3.33301 72.0039 -21.666 80.0039 -54.999l2 -10c-10.667 -32 -30 -60 -58 -84s-42 -43.667 -42 -59c70 -2.66699 112.333 -23.334 127 -62.001c15.333 -25.333 22.666 -56.666 21.999 -93.999l-10 -53c-21.333 -65.333 -79.333 -140.333 -174 -225
c-66 -44 -129 -74.667 -189 -92c-74 0 -115 16 -123 48l-1 5c-4.66699 20 13.666 55.333 54.999 106l58 18l21 -17l11 -36l-64 -43c-5.33301 -30 17 -38.667 67 -26l35 7c101.333 48.667 172.666 125.334 213.999 230.001c6.66699 9.33301 11 33.666 13 72.999l-6 35
c8.66699 20 -9 39.333 -53 58l-57 -3c-44.667 -31.333 -73.334 -60.666 -86.001 -87.999l-60 -18l-10 36c8 15.333 36 40.666 84 75.999c88 90 128.333 150.333 121 181l-4 17c-0.666992 4.66699 -9 8 -25 10l-28 -5c-17.333 -20 -35 -30.333 -53 -31l-10 10
c46 53.333 93.667 83.666 143 90.999z" />
    <glyph glyph-name="mu" unicode="&#xb5;" horiz-adv-x="2596" 
 />
    <glyph glyph-name="paragraph" unicode="&#xb6;" 
d="M1132 1352l-220.001 -1277c-4 -78.667 -21 -119.667 -51 -123s-41.667 18.5 -35 65.5l44.5 299c23 152.333 83.5 495.833 181.5 1030.5l-143 -1l-77 -421l-87 -511c-48 -302 -80 -457 -96 -465s-33.667 -8.66699 -53 -2s-18 75.834 4 207.501l106 621.5
c-154 -14.667 -288.167 3.16602 -402.5 53.499s-170.333 135.166 -168 254.499s44.833 207 127.5 263s170.834 89 264.501 99s196.667 14.333 309 13s206.5 -2.16602 282.5 -2.49902s124.167 -1 144.5 -2s25.5 -13.833 15.5 -38.5s-23.5 -41.334 -40.5 -50.001
s-52.5 -13.334 -106.5 -14.001z" />
    <glyph glyph-name="uni00B9" unicode="&#xb9;" horiz-adv-x="386" 
d="M76 -21c-3.33301 -26 -6.00684 -52.001 -8.00684 -78.001c-32 -314.667 -72.667 -544.334 -122 -689.001c-40 -116 -91.667 -198 -155 -246l-2 -4c-67.333 -47.333 -139.666 -64.666 -216.999 -51.999c-63.333 14 -100.166 57.667 -110.499 131s-1 146.333 28 219
s64 133.5 105 182.5s76.5 86.333 106.5 112s24.167 6.83398 -17.5 -56.499s-70.167 -113 -85.5 -149s-27.666 -87.833 -36.999 -155.5s-6.66602 -118.5 8.00098 -152.5s42.334 -51 83.001 -51c32.667 -0.666992 74.667 26.333 126 81c61.333 105.333 103 225.333 125 360
c24.667 152.667 43.834 287.5 57.501 404.5s35.5 244.833 65.5 383.5c4 20 -35.667 2.66699 -119 -52l-33 -26c-38.667 -29.333 -67.667 -47.666 -87 -54.999v34c170.667 210.667 267.167 337.167 289.5 379.5s54.333 91.166 96 146.499s72.334 86.166 92.001 92.499
s35.167 -4.5 46.5 -32.5c-106 -180 -179.333 -391 -220 -633c98.667 59.333 177.667 135.333 237 228c10.667 0 24 6.66699 40 20h19c-55.333 -126 -135.333 -227.667 -240 -305c-13.333 -9.33301 -37 -21.666 -71 -36.999zM306.993 1123l35.998 3
c6 0.666992 19.333 -10.333 40 -33c2.66699 -34.667 -26.666 -73.667 -87.999 -117l-36 -2c-16 -1.33301 -24.667 6 -26 22l-3 36c-1.33301 12 24.334 42.333 77.001 91z" />
    <glyph glyph-name=".notdef.040" unicode="&#xbb;" horiz-adv-x="1160" 
d="M558 -31l-7.00098 21.999c2 21.333 64 75 186 161c130.667 102.667 205.834 160.667 225.501 174s-5.5 47.333 -75.5 102c-171.333 147.333 -266.833 252 -286.5 314s3.16602 63.833 68.499 5.5l201.5 -175.5c69 -58.667 128.833 -111.667 179.5 -159
s53.834 -88.166 9.50098 -122.499s-108.5 -76.5 -192.5 -126.5c-42 -29.333 -138.333 -92 -289 -188zM242.999 -31.001l-7.00195 21.999c2 21.333 64 75 186 161c130.667 102.667 205.834 160.667 225.501 174s-5.5 47.333 -75.5 102
c-164.667 160.667 -255.167 272 -271.5 334s6.5 62.167 68.5 0.5l191.5 -185.5l174.5 -164c50.667 -47.333 53.834 -88.166 9.50098 -122.499s-108.5 -76.5 -192.5 -126.5c-42 -29.333 -138.333 -92 -289 -188z" />
    <glyph glyph-name=".notdef.066" unicode="&#xbc;" horiz-adv-x="1693" 
d="M789 662c92 128 150.001 223.666 174.001 286.999l40 75c13.333 47.333 45.333 70.333 96 69c58.667 -10 -23 -159.333 -245 -448c-46.667 -53.333 -78.334 -94.666 -95.001 -123.999c-1.33301 -7.33301 -2 -14 -2 -20l-78 12c21.333 39.333 58 89 110 149z
M796.001 501.999c132.667 8.66699 217.334 49.333 254.001 122c62 156 110.667 272 146 348l59 130c100.667 70.667 110.667 22.667 30 -144l-97 -185l-31 -90c-46.667 -90.667 -38 -118.667 26 -84l72 33l88 50l-13 -53l-75 -59l-57 -28c-43.333 -18 -73 -34 -89 -48
c-42.667 -149.333 -68.334 -280.333 -77.001 -393c32 -93.333 5 -136.333 -81 -129c-22.667 7.33301 -34.667 21 -36 41c-7.33301 47.333 7.33398 139.666 44.001 276.999c66.667 152 55.667 210.333 -33 175l-91 -30c-94.667 -37.333 -162 -66.666 -202 -87.999
c-8.66699 0 -21.334 8 -38.001 24c6 23.333 35.333 77 88 161l76 -21c-2 -21.333 10.333 -24.333 37 -9zM1081 1589c-18 -53.333 -89.667 -179.667 -215 -379l-367 -525c-148.667 -255.333 -242.5 -382.833 -281.5 -382.5s-5.66699 85.833 100 256.5
s197.167 307.667 274.5 411c394 636 591 910 591 822c-17.333 -91.333 -51.333 -159 -102 -203zM764.001 1996c-78.667 -107.333 -145.332 -237.334 -199.999 -390.001c-52.667 -127.333 -102.667 -261.666 -150 -402.999c-16.667 -84.667 -10.667 -131.667 18 -141l-13 -80
c-48 -33.333 -91.333 -31 -130 7l5 72l54 182c57.333 124.667 95.333 224 114 298l40 96l-45 -38l-121 -142l-90 -128l-28 -15l-53 6l8 58l84 78l63 56c91.333 106.667 202 275 332 505c8.66699 40.667 30.167 64.667 64.5 72s50.166 -23.667 47.499 -93z" />
    <glyph glyph-name="onehalf" unicode="&#xbd;" horiz-adv-x="1693" 
d="M1295 1018c60.667 -28 79.6709 -88.334 57.0039 -181.001c-26 -70 -77 -156.667 -153 -260c-50.667 -74.667 -176 -200.334 -376 -377.001c92 -124 209.667 -181.333 353 -172c50.667 -38 21 -53 -89 -45l-196 38c-116.667 46.667 -180.334 70.667 -191.001 72l-33 5
c-80.667 -60 -128.334 -89.333 -143.001 -88c-30.667 4 -50.334 23 -59.001 57c5.33301 42.667 60.333 140.334 165 293.001c102 46 159.333 9.33301 172 -110l110 85c63.333 71.333 142.333 165 237 281c41.333 60 73.666 114.667 96.999 164c30 102 4 159.333 -78 172
c-117.333 -3.33301 -183.333 -74.666 -198 -213.999c-39.333 -14.667 -66.333 -21 -81 -19c-12.667 1.33301 -18.334 21.333 -17.001 60c18.667 86 111.334 166.333 278.001 241c56.667 12 105 11.333 145 -2zM1081 1589c-18 -53.333 -89.667 -179.667 -215 -379l-367 -525
c-148.667 -255.333 -242.5 -382.833 -281.5 -382.5s-5.66699 85.833 100 256.5s197.167 307.667 274.5 411c394 636 591 910 591 822c-17.333 -91.333 -51.333 -159 -102 -203zM764.004 1996c-78.667 -107.333 -145.332 -237.334 -199.999 -390.001
c-52.667 -127.333 -102.667 -261.666 -150 -402.999c-16.667 -84.667 -10.667 -131.667 18 -141l-13 -80c-48 -33.333 -91.333 -31 -130 7l5 72l54 182c57.333 124.667 95.333 224 114 298l40 96l-45 -38l-121 -142l-90 -128l-28 -15l-53 6l8 58l84 78l63 56
c91.333 106.667 202 275 332 505c8.66699 40.667 30.167 64.667 64.5 72s50.166 -23.667 47.499 -93z" />
    <glyph glyph-name="threequarters" unicode="&#xbe;" horiz-adv-x="1693" 
d="M655 2120c46.667 -24.667 67.6631 -67 62.9961 -127l-1 -17c-24.667 -51.333 -56.667 -91.833 -96 -121.5s-62.333 -58.167 -69 -85.5c73.333 -31.333 110 -83 110 -155c6.66699 -50 2 -106.667 -14 -170l-32 -88c-48.667 -103.333 -140.334 -208.666 -275.001 -315.999
c-87.333 -48.667 -166.666 -76 -237.999 -82c-79.333 29.333 -116.666 73 -111.999 131l1 8c2.66699 36.667 36.334 90 101.001 160l69 9l16 -37l-3 -68l-85 -47c-18.667 -49.333 1.33301 -73 60 -71l41 -3c127.333 44 234 147 320 309c10.667 13.333 25 53.666 43 120.999
l8 63c16.667 30.667 5.33398 70.334 -33.999 119.001l-62 18c-60 -36 -102.333 -74.667 -127 -116l-71 -8l4 67c14.667 22 54.667 54 120 96c130 119.333 197.333 206.666 202 261.999l2 32c0.666992 7.33301 -6.66602 16 -21.999 26l-32 3
c-26.667 -27.333 -49.667 -38 -69 -32l-7 21c70.667 72.667 133.667 105.667 189 99zM788.996 662c92 128 150.001 223.666 174.001 286.999l40 75c13.333 47.333 45.333 70.333 96 69c58.667 -10 -23 -159.333 -245 -448c-46.667 -53.333 -78.334 -94.666 -95.001 -123.999
c-1.33301 -7.33301 -2 -14 -2 -20l-78 12c21.333 39.333 58 89 110 149zM795.997 501.999c133.333 8.66699 218.335 49.333 255.002 122c61.333 156 109.666 272 144.999 348l60 130c100 70.667 109.667 22.667 29 -144l-96 -185l-32 -90
c-46 -90.667 -37.333 -118.667 26 -84l72 33l88 50l-12 -53l-76 -59l-57 -28c-43.333 -18 -73 -34 -89 -48c-42.667 -149.333 -68.334 -280.333 -77.001 -393c32 -93.333 5 -136.333 -81 -129c-22.667 7.33301 -34.667 21 -36 41
c-7.33301 47.333 7.33398 139.666 44.001 276.999c66.667 152 55.667 210.333 -33 175l-91 -30c-94.667 -37.333 -162 -66.666 -202 -87.999c-8.66699 0 -21.334 8 -38.001 24c6 23.333 35.333 77 88 161l76 -21c-2 -21.333 10.333 -24.333 37 -9zM1081 1589
c-18 -53.333 -89.333 -179.667 -214 -379l-368 -525c-148.667 -255.333 -242.5 -382.833 -281.5 -382.5s-5.66699 85.833 100 256.5s197.167 307.667 274.5 411c394 636 591 910 591 822c-17.333 -91.333 -51.333 -159 -102 -203z" />
    <glyph glyph-name="questiondown" unicode="&#xbf;" horiz-adv-x="776" 
d="M579 770c-169.333 -154 -274.501 -277.832 -315.501 -371.499s-37.167 -169.334 11.5 -227.001s118.334 -71.834 209.001 -42.501s159.667 115.333 207 258c-14 82.667 2.66699 120.834 50 114.501s61.666 -65 42.999 -176s-96.334 -202.167 -233.001 -273.5
s-249.667 -71.666 -339 -0.999023s-120.166 169 -92.499 295s115.334 247.333 263.001 364s234.167 212.167 259.5 286.5s48.5 114.666 69.5 120.999s24 -40 9 -139s-62.167 -168.5 -141.5 -208.5zM731.999 1353l-54 -0.000976562v55c0 12 27.333 39 82 81h41v-27
c0 -49.333 -23 -85.666 -69 -108.999z" />
    <glyph glyph-name=".notdef.065" unicode="&#xc0;" 
d="M704 638l-0.00195312 -9.00098c10.667 -24.667 33 -36.334 67 -35.001l104 13c15.333 2 31.833 45.667 49.5 131s39.834 174 66.501 266s38.834 149.5 36.501 172.5s-15.333 25.667 -39 8s-48 -46.667 -73 -87s-52.167 -86.666 -81.5 -138.999
s-50.833 -105.166 -64.5 -158.499s-35.5 -107.333 -65.5 -162zM1050 2.99902c-0.666992 -0.666992 -1.66504 -1.33496 -2.99805 -2.00195c-88.667 -30 -147.334 33 -176.001 189c-7.33301 52.667 -4 145 10 277c-14 23.333 -82.667 33 -206 29
c-41.333 -22.667 -80.166 -69.667 -116.499 -141s-88 -148 -155 -230s-148.667 -137.833 -245 -167.5s-171.833 -26.667 -226.5 9s-75 80.5 -61 134.5s40.667 78.333 80 73s58.166 -34.166 56.499 -86.499s34.666 -76.5 108.999 -72.5s164.5 69.333 270.5 196
c65.333 100.667 115 199.334 149 296.001l-80 -15c-90 -38.667 -116.5 -38 -79.5 2s86.167 68.667 147.5 86c49.333 8 92 62.667 128 164l140 295.5c34 70.333 73 138.333 117 204s97.333 115 160 148s106.667 48.5 132 46.5s38 -9.33301 38 -22l-87 -215l-86 -273l-55 -276
c0 -10 13 -25.667 39 -47c90.667 0 169 18.667 235 56v-19c-84.667 -74.667 -149.667 -118 -195 -130s-75.833 -46.5 -91.5 -103.5s-19.167 -123.833 -10.5 -200.5c10 -40.667 27 -70 51 -88c18.667 -2 38 -2 58 0c66 34 148 121.333 246 262h9
c0 -6.66699 3.33301 -10 10 -10c-118.667 -227.333 -222.667 -350.333 -312 -369zM1015 1785c8.66699 15.333 23.666 20.666 44.999 15.999c55.333 -34.667 111.333 -63.667 168 -87l262 -135c-4 -29.333 -73.333 -28.666 -208 2.00098
c-165.333 61.333 -243.666 107.333 -234.999 138c-16 16 -26.667 38 -32 66z" />
    <glyph glyph-name=".notdef.064" unicode="&#xc1;" 
d="M704 638l-0.00195312 -9.00098c10.667 -24.667 33 -36.334 67 -35.001l104 13c15.333 2 31.833 45.667 49.5 131s39.834 174 66.501 266s38.834 149.5 36.501 172.5s-15.333 25.667 -39 8s-48 -46.667 -73 -87s-52.167 -86.666 -81.5 -138.999
s-50.833 -105.166 -64.5 -158.499s-35.5 -107.333 -65.5 -162zM1050 2.99902c-0.666992 -0.666992 -1.66504 -1.33496 -2.99805 -2.00195c-88.667 -30 -147.334 33 -176.001 189c-7.33301 52.667 -4 145 10 277c-14 23.333 -82.667 33 -206 29
c-41.333 -22.667 -80.166 -69.667 -116.499 -141s-88 -148 -155 -230s-148.667 -137.833 -245 -167.5s-171.833 -26.667 -226.5 9s-75 80.5 -61 134.5s40.667 78.333 80 73s58.166 -34.166 56.499 -86.499s34.666 -76.5 108.999 -72.5s164.5 69.333 270.5 196
c65.333 100.667 115 199.334 149 296.001l-80 -15c-90 -38.667 -116.5 -38 -79.5 2s86.167 68.667 147.5 86c49.333 8 92 62.667 128 164l140 295.5c34 70.333 73 138.333 117 204s97.333 115 160 148s106.667 48.5 132 46.5s38 -9.33301 38 -22l-87 -215l-86 -273l-55 -276
c0 -10 13 -25.667 39 -47c90.667 0 169 18.667 235 56v-19c-84.667 -74.667 -149.667 -118 -195 -130s-75.833 -46.5 -91.5 -103.5s-19.167 -123.833 -10.5 -200.5c10 -40.667 27 -70 51 -88c18.667 -2 38 -2 58 0c66 34 148 121.333 246 262h9
c0 -6.66699 3.33301 -10 10 -10c-118.667 -227.333 -222.667 -350.333 -312 -369zM1280 1724c-5.33301 -46.667 -77.001 -121.998 -215.001 -225.998c-119.333 -64.667 -185 -83.667 -197 -57l190 167c82.667 71.333 145.334 134.666 188.001 189.999
c19.333 10 35.333 9 48 -3c2 -12.667 -2.66699 -36.334 -14 -71.001z" />
    <glyph glyph-name="AA" unicode="&#xc2;" 
d="M704 638l-0.00195312 -9.00098c10.667 -24.667 33 -36.334 67 -35.001l104 13c15.333 2 31.833 45.667 49.5 131s39.834 174 66.501 266s38.834 149.5 36.501 172.5s-15.333 25.667 -39 8s-48 -46.667 -73 -87s-52.167 -86.666 -81.5 -138.999
s-50.833 -105.166 -64.5 -158.499s-35.5 -107.333 -65.5 -162zM1050 2.99902c-0.666992 -0.666992 -1.66504 -1.33496 -2.99805 -2.00195c-88.667 -30 -147.334 33 -176.001 189c-7.33301 52.667 -4 145 10 277c-14 23.333 -82.667 33 -206 29
c-41.333 -22.667 -80.166 -69.667 -116.499 -141s-88 -148 -155 -230s-148.667 -137.833 -245 -167.5s-171.833 -26.667 -226.5 9s-75 80.5 -61 134.5s40.667 78.333 80 73s58.166 -34.166 56.499 -86.499s34.666 -76.5 108.999 -72.5s164.5 69.333 270.5 196
c65.333 100.667 115 199.334 149 296.001l-80 -15c-90 -38.667 -116.5 -38 -79.5 2s86.167 68.667 147.5 86c49.333 8 92 62.667 128 164l140 295.5c34 70.333 73 138.333 117 204s97.333 115 160 148s106.667 48.5 132 46.5s38 -9.33301 38 -22l-87 -215l-86 -273l-55 -276
c0 -10 13 -25.667 39 -47c90.667 0 169 18.667 235 56v-19c-84.667 -74.667 -149.667 -118 -195 -130s-75.833 -46.5 -91.5 -103.5s-19.167 -123.833 -10.5 -200.5c10 -40.667 27 -70 51 -88c18.667 -2 38 -2 58 0c66 34 148 121.333 246 262h9
c0 -6.66699 3.33301 -10 10 -10c-118.667 -227.333 -222.667 -350.333 -312 -369zM1362 1424c-29.333 4 -62.332 20.8311 -98.999 50.498s-68.834 58.167 -96.501 85.5s-107.167 -14.667 -238.5 -126c-45.333 -22.667 -77 -34.167 -95 -34.5s-34.5 5.33398 -49.5 17.001
s-20.333 28.834 -16 51.501s26.5 38.334 66.5 47.001c84.667 15.333 177.667 80 279 194l46 32l30 -6c76 -142.667 149 -237.334 219 -284.001l-13 -16z" />
    <glyph glyph-name=".notdef.062" unicode="&#xc3;" 
d="M704 638l-0.00195312 -9.00098c10.667 -24.667 33 -36.334 67 -35.001l104 13c15.333 2 31.833 45.667 49.5 131s39.834 174 66.501 266s38.834 149.5 36.501 172.5s-15.333 25.667 -39 8s-48 -46.667 -73 -87s-52.167 -86.666 -81.5 -138.999
s-50.833 -105.166 -64.5 -158.499s-35.5 -107.333 -65.5 -162zM1050 2.99902c-0.666992 -0.666992 -1.66504 -1.33496 -2.99805 -2.00195c-88.667 -30 -147.334 33 -176.001 189c-7.33301 52.667 -4 145 10 277c-14 23.333 -82.667 33 -206 29
c-41.333 -22.667 -80.166 -69.667 -116.499 -141s-88 -148 -155 -230s-148.667 -137.833 -245 -167.5s-171.833 -26.667 -226.5 9s-75 80.5 -61 134.5s40.667 78.333 80 73s58.166 -34.166 56.499 -86.499s34.666 -76.5 108.999 -72.5s164.5 69.333 270.5 196
c65.333 100.667 115 199.334 149 296.001l-80 -15c-90 -38.667 -116.5 -38 -79.5 2s86.167 68.667 147.5 86c49.333 8 92 62.667 128 164l140 295.5c34 70.333 73 138.333 117 204s97.333 115 160 148s106.667 48.5 132 46.5s38 -9.33301 38 -22l-87 -215l-86 -273l-55 -276
c0 -10 13 -25.667 39 -47c90.667 0 169 18.667 235 56v-19c-84.667 -74.667 -149.667 -118 -195 -130s-75.833 -46.5 -91.5 -103.5s-19.167 -123.833 -10.5 -200.5c10 -40.667 27 -70 51 -88c18.667 -2 38 -2 58 0c66 34 148 121.333 246 262h9
c0 -6.66699 3.33301 -10 10 -10c-118.667 -227.333 -222.667 -350.333 -312 -369zM1229 1566c-37.333 4 -66.999 12.8301 -88.999 26.4971s-44.167 21.667 -66.5 24s-44.833 -4.66699 -67.5 -21s-43 -33.833 -61 -52.5s-36.333 -26.167 -55 -22.5s-29.167 15.167 -31.5 34.5
s4.66699 40.833 21 64.5s40.666 44.334 72.999 62.001s64.666 26.334 96.999 26.001s67.5 -10.5 105.5 -30.5s71.333 -30.833 100 -32.5s54.334 6 77.001 23s42.167 37.333 58.5 61s27.5 26.834 33.5 9.50098s-1.83301 -42 -23.5 -74s-46.167 -57.167 -73.5 -75.5
s-60 -25.833 -98 -22.5z" />
    <glyph glyph-name="Adieresis" unicode="&#xc4;" 
d="M704 638l-0.00195312 -9.00098c10.667 -24.667 33 -36.334 67 -35.001l104 13c15.333 2 31.833 45.667 49.5 131s39.834 174 66.501 266s38.834 149.5 36.501 172.5s-15.333 25.667 -39 8s-48 -46.667 -73 -87s-52.167 -86.666 -81.5 -138.999
s-50.833 -105.166 -64.5 -158.499s-35.5 -107.333 -65.5 -162zM1050 2.99902c-0.666992 -0.666992 -1.66504 -1.33496 -2.99805 -2.00195c-88.667 -30 -147.334 33 -176.001 189c-7.33301 52.667 -4 145 10 277c-14 23.333 -82.667 33 -206 29
c-41.333 -22.667 -80.166 -69.667 -116.499 -141s-88 -148 -155 -230s-148.667 -137.833 -245 -167.5s-171.833 -26.667 -226.5 9s-75 80.5 -61 134.5s40.667 78.333 80 73s58.166 -34.166 56.499 -86.499s34.666 -76.5 108.999 -72.5s164.5 69.333 270.5 196
c65.333 100.667 115 199.334 149 296.001l-80 -15c-90 -38.667 -116.5 -38 -79.5 2s86.167 68.667 147.5 86c49.333 8 92 62.667 128 164l140 295.5c34 70.333 73 138.333 117 204s97.333 115 160 148s106.667 48.5 132 46.5s38 -9.33301 38 -22l-87 -215l-86 -273l-55 -276
c0 -10 13 -25.667 39 -47c90.667 0 169 18.667 235 56v-19c-84.667 -74.667 -149.667 -118 -195 -130s-75.833 -46.5 -91.5 -103.5s-19.167 -123.833 -10.5 -200.5c10 -40.667 27 -70 51 -88c18.667 -2 38 -2 58 0c66 34 148 121.333 246 262h9
c0 -6.66699 3.33301 -10 10 -10c-118.667 -227.333 -222.667 -350.333 -312 -369zM898 1665c-4 30 14 50 54 60c64 -32.667 98.333 -69.667 103 -111c-6 -21.333 -22.333 -33.333 -49 -36l-30 -3c-48.667 26 -74.667 56 -78 90zM1210 1661c-2 16 11.333 32.666 40 49.999
c69.333 -13.333 109.666 -34 120.999 -62c1.33301 -15.333 -17 -37.666 -55 -66.999c-33.333 -3.33301 -68.666 23 -105.999 79z" />
    <glyph glyph-name="Aring" unicode="&#xc5;" 
d="M704 638l-0.00195312 -9.00098c10.667 -24.667 33 -36.334 67 -35.001l104 13c15.333 2 31.833 45.667 49.5 131s39.834 174 66.501 266s38.834 149.5 36.501 172.5s-15.333 25.667 -39 8s-48 -46.667 -73 -87s-52.167 -86.666 -81.5 -138.999
s-50.833 -105.166 -64.5 -158.499s-35.5 -107.333 -65.5 -162zM1050 2.99902c-0.666992 -0.666992 -1.66504 -1.33496 -2.99805 -2.00195c-88.667 -30 -147.334 33 -176.001 189c-7.33301 52.667 -4 145 10 277c-14 23.333 -82.667 33 -206 29
c-41.333 -22.667 -80.166 -69.667 -116.499 -141s-88 -148 -155 -230s-148.667 -137.833 -245 -167.5s-171.833 -26.667 -226.5 9s-75 80.5 -61 134.5s40.667 78.333 80 73s58.166 -34.166 56.499 -86.499s34.666 -76.5 108.999 -72.5s164.5 69.333 270.5 196
c65.333 100.667 115 199.334 149 296.001l-80 -15c-90 -38.667 -116.5 -38 -79.5 2s86.167 68.667 147.5 86c49.333 8 92 62.667 128 164l140 295.5c34 70.333 73 138.333 117 204s97.333 115 160 148s106.667 48.5 132 46.5s38 -9.33301 38 -22l-87 -215l-86 -273l-55 -276
c0 -10 13 -25.667 39 -47c90.667 0 169 18.667 235 56v-19c-84.667 -74.667 -149.667 -118 -195 -130s-75.833 -46.5 -91.5 -103.5s-19.167 -123.833 -10.5 -200.5c10 -40.667 27 -70 51 -88c18.667 -2 38 -2 58 0c66 34 148 121.333 246 262h9
c0 -6.66699 3.33301 -10 10 -10c-118.667 -227.333 -222.667 -350.333 -312 -369zM1203 1504c-34.667 -16.667 -68.3379 -20 -101.005 -10c-43.333 18.667 -71.166 47.167 -83.499 85.5s-5.66602 77 20.001 116s54.334 63.5 86.001 73.5s57.167 14.5 76.5 13.5
s39.833 -7.33301 61.5 -19s37.334 -31 47.001 -58s6.33398 -61.833 -9.99902 -104.5s-48.5 -75 -96.5 -97zM1077 1629c-10 -46 -0.834961 -77 27.498 -93s56.833 -14 85.5 6s46.334 46.667 53.001 80s6.16699 59.833 -1.5 79.5s-21.667 33.667 -42 42
s-43.166 2.83301 -68.499 -16.5s-43.333 -52 -54 -98z" />
    <glyph glyph-name="AE" unicode="&#xc6;" horiz-adv-x="1482" 
 />
    <glyph glyph-name="Ccedilla" unicode="&#xc7;" horiz-adv-x="2540" 
 />
    <glyph glyph-name=".notdef.054" unicode="&#xc8;" horiz-adv-x="1069" 
d="M598 1818c10 14.667 26.001 18.6641 48.001 11.9971c53.333 -37.333 108.666 -69.333 165.999 -96l285 -138c7.33301 -21.333 3.33301 -35.5 -12 -42.5s-39.333 -10.5 -72 -10.5c-30 12.667 -55 21.334 -75 26.001l-6 2c-31.333 8 -65.333 15 -102 21
c-148 78.667 -216 132.334 -204 161.001c-14.667 16.667 -24 38.334 -28 65.001zM834.001 1420c21.333 14.667 69.834 22.668 145.501 24.001s130.5 -32.667 164.5 -102l15 -51c15.333 -118 -92 -244.333 -322 -379l-171 -71c14 -31.333 37.833 -49.5 71.5 -54.5
s74.667 5.83301 123 32.5s69 31.5 62 14.5s-18.833 -33 -35.5 -48s-49.667 -34.333 -99 -58s-164 -69.834 -344 -138.501c-166.667 -87.333 -267 -170 -301 -248s-29.167 -144.833 14.5 -200.5s110.167 -86.167 199.5 -91.5l110 8c166 36.667 277.333 115.334 334 236.001
c32.667 108 5.66699 160.333 -81 157c-99.333 -36 -190 -88.667 -272 -158c-27.333 0.666992 -41.333 6.33398 -42 17.001l-1 20c171.333 165.333 303.666 242 396.999 230l20 1c61.333 4.66699 98.666 -33.333 111.999 -114v-10c2 -169.333 -108 -309.666 -330 -420.999
c29.333 -19.333 -46 -39 -226 -59c-216 3.33301 -346.333 73 -391 209c-40.667 249.333 176 437.666 650 564.999c-29.333 13.333 -54.333 39.666 -75 78.999l-95 -17c-88.667 -14.667 -167 -15.667 -235 -3c-94.667 18 -151.667 74 -171 168
c-9.33301 160 90.334 299.333 299.001 418c91.333 42.667 160.833 68.167 208.5 76.5s95.5 11.166 143.5 8.49902s88.667 -16 122 -40zM190.002 977.998c35.333 -70 117.667 -100.667 247 -92c78 26.667 116.667 72 116 136c24.667 108 67 199.667 127 275l77 79
c-79.333 20.667 -173.333 8 -282 -38c-202.667 -86 -297.667 -206 -285 -360zM674.003 1095l-29 -87.999c-6 -70 35.667 -84.667 125 -44c84 33.333 151.167 71.666 201.5 114.999s81.333 82.666 93 117.999s9.5 69.333 -6.5 102s-49.667 49.334 -101 50.001
c-124 -14.667 -218.333 -99 -283 -253zM504.003 26.999l310.501 99.499c57 19 129.167 83.167 216.5 192.5l15 -27c-108.667 -249.333 -289.334 -337.666 -542.001 -264.999z" />
    <glyph glyph-name=".notdef.053" unicode="&#xc9;" horiz-adv-x="1069" 
d="M1233 1810c15.333 -26.667 -45.333 -88.333 -182 -185c-36 -10 -69 -21.333 -99 -34l-5 -2c-20 -7.33301 -44 -19.333 -72 -36c-32 -4 -56 -3.5 -72 1.5s-22 18.5 -18 40.5l265 173c54 34 105 73 153 117c20.667 8.66699 37 6.66699 49 -6
c0 -27.333 -6.33301 -50.333 -19 -69zM834.001 1420c21.333 14.667 69.834 22.668 145.501 24.001s130.5 -32.667 164.5 -102l15 -51c15.333 -118 -92 -244.333 -322 -379l-171 -71c14 -31.333 37.833 -49.5 71.5 -54.5s74.667 5.83301 123 32.5s69 31.5 62 14.5
s-18.833 -33 -35.5 -48s-49.667 -34.333 -99 -58s-164 -69.834 -344 -138.501c-166.667 -87.333 -267 -170 -301 -248s-29.167 -144.833 14.5 -200.5s110.167 -86.167 199.5 -91.5l110 8c166 36.667 277.333 115.334 334 236.001c32.667 108 5.66699 160.333 -81 157
c-99.333 -36 -190 -88.667 -272 -158c-27.333 0.666992 -41.333 6.33398 -42 17.001l-1 20c171.333 165.333 303.666 242 396.999 230l20 1c61.333 4.66699 98.666 -33.333 111.999 -114v-10c2 -169.333 -108 -309.666 -330 -420.999c29.333 -19.333 -46 -39 -226 -59
c-216 3.33301 -346.333 73 -391 209c-40.667 249.333 176 437.666 650 564.999c-29.333 13.333 -54.333 39.666 -75 78.999l-95 -17c-88.667 -14.667 -167 -15.667 -235 -3c-94.667 18 -151.667 74 -171 168c-9.33301 160 90.334 299.333 299.001 418
c91.333 42.667 160.833 68.167 208.5 76.5s95.5 11.166 143.5 8.49902s88.667 -16 122 -40zM190.002 978.002c35.333 -70 117.667 -100.667 247 -92c78 26.667 116.667 72 116 136c24.667 108 67 199.667 127 275l77 79c-79.333 20.667 -173.333 8 -282 -38
c-202.667 -86 -297.667 -206 -285 -360zM674.003 1095l-29 -87.999c-6 -70 35.667 -84.667 125 -44c84 33.333 151.167 71.666 201.5 114.999s81.333 82.666 93 117.999s9.5 69.333 -6.5 102s-49.667 49.334 -101 50.001c-124 -14.667 -218.333 -99 -283 -253z
M504.003 27.0029l310.501 99.499c57 19 129.167 83.167 216.5 192.5l15 -27c-108.667 -249.333 -289.334 -337.666 -542.001 -264.999z" />
    <glyph glyph-name=".notdef.049" unicode="&#xca;" horiz-adv-x="1069" 
d="M1196 1548l-72 33.999l-65 64c-46.667 80.667 -141 63.667 -283 -51l-97 -54l-95 -38l-39 29l26 42l66 30c102 54.667 205.333 129.334 310 224.001l52 32l33 -6l150 -214l93 -70l-15 -25zM834 1420c21.333 14.667 69.834 22.668 145.501 24.001
s130.5 -32.667 164.5 -102l15 -51c15.333 -118 -92 -244.333 -322 -379l-171 -71c14 -31.333 37.833 -49.5 71.5 -54.5s74.667 5.83301 123 32.5s69 31.5 62 14.5s-18.833 -33 -35.5 -48s-49.667 -34.333 -99 -58s-164 -69.834 -344 -138.501
c-166.667 -87.333 -267 -170 -301 -248s-29.167 -144.833 14.5 -200.5s110.167 -86.167 199.5 -91.5l110 8c166 36.667 277.333 115.334 334 236.001c32.667 108 5.66699 160.333 -81 157c-99.333 -36 -190 -88.667 -272 -158c-27.333 0.666992 -41.333 6.33398 -42 17.001
l-1 20c171.333 165.333 303.666 242 396.999 230l20 1c61.333 4.66699 98.666 -33.333 111.999 -114v-10c2 -169.333 -108 -309.666 -330 -420.999c29.333 -19.333 -46 -39 -226 -59c-216 3.33301 -346.333 73 -391 209c-40.667 249.333 176 437.666 650 564.999
c-29.333 13.333 -54.333 39.666 -75 78.999l-95 -17c-88.667 -14.667 -167 -15.667 -235 -3c-94.667 18 -151.667 74 -171 168c-9.33301 160 90.334 299.333 299.001 418c91.333 42.667 160.833 68.167 208.5 76.5s95.5 11.166 143.5 8.49902s88.667 -16 122 -40z
M190.001 978c35.333 -70 117.667 -100.667 247 -92c78 26.667 116.667 72 116 136c24.667 108 67 199.667 127 275l77 79c-79.333 20.667 -173.333 8 -282 -38c-202.667 -86 -297.667 -206 -285 -360zM674.002 1095l-29 -87.999c-6 -70 35.667 -84.667 125 -44
c84 33.333 151.167 71.666 201.5 114.999s81.333 82.666 93 117.999s9.5 69.333 -6.5 102s-49.667 49.334 -101 50.001c-124 -14.667 -218.333 -99 -283 -253zM504.002 27.001l310.501 99.499c57 19 129.167 83.167 216.5 192.5l15 -27
c-108.667 -249.333 -289.334 -337.666 -542.001 -264.999z" />
    <glyph glyph-name="Edieresis" unicode="&#xcb;" horiz-adv-x="1069" 
d="M834 1420c21.333 14.667 69.834 22.668 145.501 24.001s130.5 -32.667 164.5 -102l15 -51c15.333 -118 -92 -244.333 -322 -379l-171 -71c14 -31.333 37.833 -49.5 71.5 -54.5s74.667 5.83301 123 32.5s69 31.5 62 14.5s-18.833 -33 -35.5 -48s-49.667 -34.333 -99 -58
s-164 -69.834 -344 -138.501c-166.667 -87.333 -267 -170 -301 -248s-29.167 -144.833 14.5 -200.5s110.167 -86.167 199.5 -91.5l110 8c166 36.667 277.333 115.334 334 236.001c32.667 108 5.66699 160.333 -81 157c-99.333 -36 -190 -88.667 -272 -158
c-27.333 0.666992 -41.333 6.33398 -42 17.001l-1 20c171.333 165.333 303.666 242 396.999 230l20 1c61.333 4.66699 98.666 -33.333 111.999 -114v-10c2 -169.333 -108 -309.666 -330 -420.999c29.333 -19.333 -46 -39 -226 -59c-216 3.33301 -346.333 73 -391 209
c-40.667 249.333 176 437.666 650 564.999c-29.333 13.333 -54.333 39.666 -75 78.999l-95 -17c-88.667 -14.667 -167 -15.667 -235 -3c-94.667 18 -151.667 74 -171 168c-9.33301 160 90.334 299.333 299.001 418c91.333 42.667 160.833 68.167 208.5 76.5
s95.5 11.166 143.5 8.49902s88.667 -16 122 -40zM190.001 978.001c35.333 -70 117.667 -100.667 247 -92c78 26.667 116.667 72 116 136c24.667 108 67 199.667 127 275l77 79c-79.333 20.667 -173.333 8 -282 -38c-202.667 -86 -297.667 -206 -285 -360zM674.002 1095
l-29 -87.999c-6 -70 35.667 -84.667 125 -44c84 33.333 151.167 71.666 201.5 114.999s81.333 82.666 93 117.999s9.5 69.333 -6.5 102s-49.667 49.334 -101 50.001c-124 -14.667 -218.333 -99 -283 -253zM504.002 27.002l310.501 99.499c57 19 129.167 83.167 216.5 192.5
l15 -27c-108.667 -249.333 -289.334 -337.666 -542.001 -264.999zM538.003 1671c-6 29.333 10.667 50.333 50 63c66 -28.667 102.333 -63.667 109 -105c-4.66699 -21.333 -20 -34.333 -46 -39l-30 -5c-50 23.333 -77.667 52 -83 86zM849.003 1686
c-2.66699 15.333 9.66699 32.666 37 51.999c70 -9.33301 111.667 -27.666 125 -54.999c2 -14.667 -15 -38 -51 -70c-33.333 -5.33301 -70.333 19 -111 73z" />
    <glyph glyph-name=".notdef.030" unicode="&#xcc;" horiz-adv-x="1104" 
d="M1108 1514l22.002 11.999l19 -10c1.33301 -36.667 -40.667 -78.667 -126 -126c-132 -51.333 -223 -75 -273 -71l-49 -26c-67.333 -79.333 -123.666 -271 -168.999 -575c-18.667 -146.667 -34.334 -252.334 -47.001 -317.001s-18.667 -119 -18 -163l2 -59
c0.666992 -50 47 -85 139 -105c134.667 -13.333 262.667 41.334 384 164.001c72 75.333 102 88 90 38c-98 -184 -285.667 -291.333 -563 -322c-155.333 43.333 -268.833 67.833 -340.5 73.5s-132.334 4 -182.001 -5s-125.834 -46.167 -228.501 -111.5l-11 20v9
c40 76 156.333 143.667 349 203l157 3c69.333 50 113.333 189.333 132 418c19.333 141.333 39.666 264 60.999 368s55 210 101 318v39c-0.666992 10 -10.667 19.667 -30 29l-70 -1c-86 10 -135 15.333 -147 16c-26 8 -63.333 -21.667 -112 -89
c-37.333 -16 -62.666 -14.333 -75.999 5l13 28l45 31c58.667 67.333 87.667 118.333 87 153h40c0.666992 -21.333 119 -39.666 355 -54.999l154 9l101 21c100 28.667 163.667 54.667 191 78zM497.002 1860c8 16.667 22.999 23.666 44.999 20.999
c60 -31.333 120 -56.666 180 -75.999l280 -118c-1.33301 -30.667 -72.666 -35.667 -213.999 -15c-174.667 50 -258.667 91 -252 123c-18 15.333 -31 37 -39 65z" />
    <glyph glyph-name=".notdef.029" unicode="&#xcd;" horiz-adv-x="1104" 
d="M1108 1514l22.002 11.999l19 -10c1.33301 -36.667 -40.667 -78.667 -126 -126c-132 -51.333 -223 -75 -273 -71l-49 -26c-67.333 -79.333 -123.666 -271 -168.999 -575c-18.667 -146.667 -34.334 -252.334 -47.001 -317.001s-18.667 -119 -18 -163l2 -59
c0.666992 -50 47 -85 139 -105c134.667 -13.333 262.667 41.334 384 164.001c72 75.333 102 88 90 38c-98 -184 -285.667 -291.333 -563 -322c-155.333 43.333 -268.833 67.833 -340.5 73.5s-132.334 4 -182.001 -5s-125.834 -46.167 -228.501 -111.5l-11 20v9
c40 76 156.333 143.667 349 203l157 3c69.333 50 113.333 189.333 132 418c19.333 141.333 39.666 264 60.999 368s55 210 101 318v39c-0.666992 10 -10.667 19.667 -30 29l-70 -1c-86 10 -135 15.333 -147 16c-26 8 -63.333 -21.667 -112 -89
c-37.333 -16 -62.666 -14.333 -75.999 5l13 28l45 31c58.667 67.333 87.667 118.333 87 153h40c0.666992 -21.333 119 -39.666 355 -54.999l154 9l101 21c100 28.667 163.667 54.667 191 78zM962.002 1960l-35.999 -109.999c-56.667 -106.667 -96.334 -172 -119.001 -196
l-6 -2c-14 -16.667 -31 -38.334 -51 -65.001c-28 -18 -50.5 -28 -67.5 -30s-28.5 8.66699 -34.5 32l176 272c86 209.333 132 242.333 138 99z" />
    <glyph glyph-name="Icircumflex" unicode="&#xce;" horiz-adv-x="1104" 
d="M1108 1514l22.002 11.999l19 -10c1.33301 -36.667 -40.667 -78.667 -126 -126c-132 -51.333 -223 -75 -273 -71l-49 -26c-67.333 -79.333 -123.666 -271 -168.999 -575c-18.667 -146.667 -34.334 -252.334 -47.001 -317.001s-18.667 -119 -18 -163l2 -59
c0.666992 -50 47 -85 139 -105c134.667 -13.333 262.667 41.334 384 164.001c72 75.333 102 88 90 38c-98 -184 -285.667 -291.333 -563 -322c-155.333 43.333 -268.833 67.833 -340.5 73.5s-132.334 4 -182.001 -5s-125.834 -46.167 -228.501 -111.5l-11 20v9
c40 76 156.333 143.667 349 203l157 3c69.333 50 113.333 189.333 132 418c19.333 141.333 39.666 264 60.999 368s55 210 101 318v39c-0.666992 10 -10.667 19.667 -30 29l-70 -1c-86 10 -135 15.333 -147 16c-26 8 -63.333 -21.667 -112 -89
c-37.333 -16 -62.666 -14.333 -75.999 5l13 28l45 31c58.667 67.333 87.667 118.333 87 153h40c0.666992 -21.333 119 -39.666 355 -54.999l154 9l101 21c100 28.667 163.667 54.667 191 78zM855.002 1705l-53 53c-38.667 66.667 -116.334 52.667 -233.001 -42l-80 -44
c-52 -21.333 -83.333 -28 -94 -20s-12.5 17.833 -5.5 29.5s28.833 25.5 65.5 41.5c84 45.333 169 107 255 185l43 26l27 -5l123 -176c38 -44 54.833 -69.5 50.5 -76.5s-15.166 -10 -32.499 -9s-39.333 13.5 -66 37.5z" />
    <glyph glyph-name="Idieresis" unicode="&#xcf;" horiz-adv-x="1104" 
d="M1108 1514l22.002 11.999l19 -10c1.33301 -36.667 -40.667 -78.667 -126 -126c-132 -51.333 -223 -75 -273 -71l-49 -26c-67.333 -79.333 -123.666 -271 -168.999 -575c-18.667 -146.667 -34.334 -252.334 -47.001 -317.001s-18.667 -119 -18 -163l2 -59
c0.666992 -50 47 -85 139 -105c134.667 -13.333 262.667 41.334 384 164.001c72 75.333 102 88 90 38c-98 -184 -285.667 -291.333 -563 -322c-155.333 43.333 -268.833 67.833 -340.5 73.5s-132.334 4 -182.001 -5s-125.834 -46.167 -228.501 -111.5l-11 20v9
c40 76 156.333 143.667 349 203l157 3c69.333 50 113.333 189.333 132 418c19.333 141.333 39.666 264 60.999 368s55 210 101 318v39c-0.666992 10 -10.667 19.667 -30 29l-70 -1c-86 10 -135 15.333 -147 16c-26 8 -63.333 -21.667 -112 -89
c-37.333 -16 -62.666 -14.333 -75.999 5l13 28l45 31c58.667 67.333 87.667 118.333 87 153h40c0.666992 -21.333 119 -39.666 355 -54.999l154 9l101 21c100 28.667 163.667 54.667 191 78zM424.002 1695c-4 30 14 50 54 60c64 -32.667 98.333 -69.667 103 -111
c-6 -21.333 -22.333 -33.333 -49 -36l-30 -3c-48.667 26 -74.667 56 -78 90zM736.002 1691c-2 16 11.333 32.666 40 49.999c69.333 -13.333 109.666 -34 120.999 -62c1.33301 -15.333 -17 -37.666 -55 -66.999c-33.333 -3.33301 -68.666 23 -105.999 79z" />
    <glyph glyph-name="Ntilde" unicode="&#xd1;" horiz-adv-x="956" 
d="M181 35c-46.667 -51.333 -105.331 -80.665 -175.998 -87.998s-124.834 10.5 -162.501 53.5s-51.167 91.667 -40.5 146s33.334 81.5 68.001 81.5c23.333 -4.66699 36.333 -23.334 39 -56.001v-19c-8.66699 -80 20 -124 86 -132c50.667 0.666992 100 25.167 148 73.5
s86.667 136 116 263l102.5 462c39 181 118.167 345.833 237.5 494.5c81.333 75.333 133 113.333 155 114l9 1l1 -18c-68 -75.333 -112 -183 -132 -323c-14.667 -374 -38.334 -629.667 -71.001 -767l-21 -121l25 1c44.667 66.667 78.5 131.167 101.5 193.5
s52.667 194.5 89 396.5s82.666 362.5 138.999 481.5s136.166 188.5 239.499 208.5s163.833 -0.833008 181.5 -62.5s-12.166 -127.167 -89.499 -196.5c-28.667 -1.33301 -32 15.167 -10 49.5s23.333 67.166 4 98.499s-64 32.833 -134 4.5s-130.167 -125.333 -180.5 -291
s-88.166 -323.5 -113.499 -473.5s-57.333 -271.667 -96 -365s-90 -162.666 -154 -207.999c30 -1.33301 73.333 10 130 34c75.333 37.333 156 108.333 242 213l15 -33c-106.667 -185.333 -278 -283 -514 -293l-55 1c-49.333 9.33301 -75.166 26.666 -77.499 51.999
s9 39 34 41s44.833 7.16699 59.5 15.5s33.167 41.833 55.5 100.5s39.833 154.667 52.5 288c12.667 86 24 180 34 282v102c9.33301 120.667 -1.16699 148.834 -31.5 84.501s-57.833 -150.333 -82.5 -258s-44.834 -202.834 -60.501 -285.501s-36.834 -153.5 -63.501 -212.5
s-59.667 -103.5 -99 -133.5zM1046 1636c-32.667 4.66699 -57.3301 13.334 -73.9971 26.001s-29 19.667 -37 21s-19.5 2.66602 -34.5 3.99902s-32.667 -4.16699 -53 -16.5l-60.5 -36c-20 -11.667 -38.333 -16.667 -55 -15s-23.5 9.16699 -20.5 22.5s12.667 30 29 50
s37.5 38.667 63.5 56s52.667 27.666 80 30.999s60.666 -5.66699 99.999 -27s71.333 -32.833 96 -34.5s46.834 6 66.501 23s36.5 37.333 50.5 61s23.667 26.834 29 9.50098s-2.33398 -42.333 -23.001 -75s-43.834 -58.5 -69.501 -77.5s-54.834 -26.5 -87.501 -22.5z" />
    <glyph glyph-name=".notdef.043" unicode="&#xd2;" horiz-adv-x="913" 
d="M900 1261c18 -131.333 18.8311 -260.333 2.49805 -387s-34.166 -223.167 -53.499 -289.5s-51.666 -148.5 -96.999 -246.5c-92 -166.667 -196 -276.667 -312 -330c-42.667 -45.333 -109.667 -52 -201 -20c-44.667 14.667 -86 53.667 -124 117
c-46 68.667 -61.667 196.167 -47 382.5s70.667 388.833 168 607.5c138 222.667 256 334 354 334h19l27 -22l29 33c62 18 111.167 14 147.5 -12s65.5 -81.667 87.5 -167zM385.998 1146c-86.667 -134.667 -145.331 -276.004 -175.998 -424.004
c-36 -186 -46.667 -324.5 -32 -415.5s39.5 -149.167 74.5 -174.5s77.5 -33.666 127.5 -24.999c83.333 7.33301 155.166 49.333 215.499 126s109.5 167.334 147.5 272.001s63.667 222 77 352s13.333 235.5 0 316.5s-34.833 132.333 -64.5 154s-60.334 25.334 -92.001 11.001
s-69.334 -56.166 -113.001 -125.499s-74.5 -169.333 -92.5 -300s-22.5 -220.5 -13.5 -269.5s7 -78 -6 -87s-27.167 16.333 -42.5 76s-20.666 136.5 -15.999 230.5s17.167 171.333 37.5 232s32 105.167 35 133.5s-4 34.5 -21 18.5s-32.167 -49.667 -45.5 -101z
M356.001 -42.0039l-100 15l-43 53l177 52c19.333 -15.333 43.5 -27.833 72.5 -37.5s79.167 0.5 150.5 30.5l105 64l137 149l15 -33c-106.667 -185.333 -278 -283 -514 -293zM513.001 1824c9.33301 16.667 25.6689 22.666 49.002 17.999
c59.333 -37.333 119.666 -68.666 180.999 -93.999l284 -146c-4.66699 -32 -79.667 -31.333 -225 2c-178.667 66 -263.334 115.667 -254.001 149c-17.333 17.333 -29 41 -35 71z" />
    <glyph glyph-name=".notdef.042" unicode="&#xd3;" horiz-adv-x="913" 
d="M900 1261c18 -131.333 18.8311 -260.333 2.49805 -387s-34.166 -223.167 -53.499 -289.5s-51.666 -148.5 -96.999 -246.5c-92 -166.667 -196 -276.667 -312 -330c-42.667 -45.333 -109.667 -52 -201 -20c-44.667 14.667 -86 53.667 -124 117
c-46 68.667 -61.667 196.167 -47 382.5s70.667 388.833 168 607.5c138 222.667 256 334 354 334h19l27 -22l29 33c62 18 111.167 14 147.5 -12s65.5 -81.667 87.5 -167zM385.998 1146c-86.667 -134.667 -145.331 -276.004 -175.998 -424.004
c-36 -186 -46.667 -324.5 -32 -415.5s39.5 -149.167 74.5 -174.5s77.5 -33.666 127.5 -24.999c83.333 7.33301 155.166 49.333 215.499 126s109.5 167.334 147.5 272.001s63.667 222 77 352s13.333 235.5 0 316.5s-34.833 132.333 -64.5 154s-60.334 25.334 -92.001 11.001
s-69.334 -56.166 -113.001 -125.499s-74.5 -169.333 -92.5 -300s-22.5 -220.5 -13.5 -269.5s7 -78 -6 -87s-27.167 16.333 -42.5 76s-20.666 136.5 -15.999 230.5s17.167 171.333 37.5 232s32 105.167 35 133.5s-4 34.5 -21 18.5s-32.167 -49.667 -45.5 -101z
M356.001 -42.0039l-100 15l-43 53l177 52c19.333 -15.333 43.5 -27.833 72.5 -37.5s79.167 0.5 150.5 30.5l105 64l137 149l15 -33c-106.667 -185.333 -278 -283 -514 -293zM984.001 1891c-1.33301 -47.333 -66.332 -128.666 -194.999 -243.999
c-113.333 -74.667 -177 -99.334 -191 -74.001l175 183c76 78 133 146.333 171 205c18 12 34 12.667 48 2c3.33301 -12.667 0.666016 -36.667 -8.00098 -72z" />
    <glyph glyph-name=".notdef.036" unicode="&#xd4;" horiz-adv-x="913" 
d="M900 1261c18 -131.333 18.8311 -260.333 2.49805 -387s-34.166 -223.167 -53.499 -289.5s-51.666 -148.5 -96.999 -246.5c-92 -166.667 -196 -276.667 -312 -330c-42.667 -45.333 -109.667 -52 -201 -20c-44.667 14.667 -86 53.667 -124 117
c-46 68.667 -61.667 196.167 -47 382.5s70.667 388.833 168 607.5c138 222.667 256 334 354 334h19l27 -22l29 33c62 18 111.167 14 147.5 -12s65.5 -81.667 87.5 -167zM385.998 1146c-86.667 -134.667 -145.331 -276.004 -175.998 -424.004
c-36 -186 -46.667 -324.5 -32 -415.5s39.5 -149.167 74.5 -174.5s77.5 -33.666 127.5 -24.999c83.333 7.33301 155.166 49.333 215.499 126s109.5 167.334 147.5 272.001s63.667 222 77 352s13.333 235.5 0 316.5s-34.833 132.333 -64.5 154s-60.334 25.334 -92.001 11.001
s-69.334 -56.166 -113.001 -125.499s-74.5 -169.333 -92.5 -300s-22.5 -220.5 -13.5 -269.5s7 -78 -6 -87s-27.167 16.333 -42.5 76s-20.666 136.5 -15.999 230.5s17.167 171.333 37.5 232s32 105.167 35 133.5s-4 34.5 -21 18.5s-32.167 -49.667 -45.5 -101z
M356.001 -42.0039l-100 15l-43 53l177 52c19.333 -15.333 43.5 -27.833 72.5 -37.5s79.167 0.5 150.5 30.5l105 64l137 149l15 -33c-106.667 -185.333 -278 -283 -514 -293zM962.001 1538l-72 33.999l-65 64c-46.667 80.667 -141 63.667 -283 -51l-97 -54l-95 -38l-39 29
l26 42l66 30c102 54.667 205.333 129.334 310 224.001l52 32l33 -6l150 -214l93 -70l-15 -25z" />
    <glyph glyph-name=".notdef.038" unicode="&#xd5;" horiz-adv-x="913" 
d="M900 1261c18 -131.333 18.8311 -260.333 2.49805 -387s-34.166 -223.167 -53.499 -289.5s-51.666 -148.5 -96.999 -246.5c-92 -166.667 -196 -276.667 -312 -330c-42.667 -45.333 -109.667 -52 -201 -20c-44.667 14.667 -86 53.667 -124 117
c-46 68.667 -61.667 196.167 -47 382.5s70.667 388.833 168 607.5c138 222.667 256 334 354 334h19l27 -22l29 33c62 18 111.167 14 147.5 -12s65.5 -81.667 87.5 -167zM385.998 1146c-86.667 -134.667 -145.331 -276.004 -175.998 -424.004
c-36 -186 -46.667 -324.5 -32 -415.5s39.5 -149.167 74.5 -174.5s77.5 -33.666 127.5 -24.999c83.333 7.33301 155.166 49.333 215.499 126s109.5 167.334 147.5 272.001s63.667 222 77 352s13.333 235.5 0 316.5s-34.833 132.333 -64.5 154s-60.334 25.334 -92.001 11.001
s-69.334 -56.166 -113.001 -125.499s-74.5 -169.333 -92.5 -300s-22.5 -220.5 -13.5 -269.5s7 -78 -6 -87s-27.167 16.333 -42.5 76s-20.666 136.5 -15.999 230.5s17.167 171.333 37.5 232s32 105.167 35 133.5s-4 34.5 -21 18.5s-32.167 -49.667 -45.5 -101z
M356.001 -42.0039l-100 15l-43 53l177 52c19.333 -15.333 43.5 -27.833 72.5 -37.5s79.167 0.5 150.5 30.5l105 64l137 149l15 -33c-106.667 -185.333 -278 -283 -514 -293zM944.001 1666c-37.333 4 -66.999 12.8301 -88.999 26.4971s-44.167 21.667 -66.5 24
s-44.833 -4.66699 -67.5 -21s-43 -33.833 -61 -52.5s-36.333 -26.167 -55 -22.5s-29.167 15.167 -31.5 34.5s4.66699 40.833 21 64.5s40.666 44.334 72.999 62.001s64.666 26.334 96.999 26.001s67.5 -10.5 105.5 -30.5s71.333 -30.833 100 -32.5s54.334 6 77.001 23
s42.167 37.333 58.5 61s27.5 26.834 33.5 9.50098s-1.83301 -42 -23.5 -74s-46.167 -57.167 -73.5 -75.5s-60 -25.833 -98 -22.5z" />
    <glyph glyph-name="Odieresis" unicode="&#xd6;" horiz-adv-x="913" 
d="M900 1261c18 -131.333 18.8311 -260.333 2.49805 -387s-34.166 -223.167 -53.499 -289.5s-51.666 -148.5 -96.999 -246.5c-92 -166.667 -196 -276.667 -312 -330c-42.667 -45.333 -109.667 -52 -201 -20c-44.667 14.667 -86 53.667 -124 117
c-46 68.667 -61.667 196.167 -47 382.5s70.667 388.833 168 607.5c138 222.667 256 334 354 334h19l27 -22l29 33c62 18 111.167 14 147.5 -12s65.5 -81.667 87.5 -167zM385.998 1146c-86.667 -134.667 -145.331 -276.004 -175.998 -424.004
c-36 -186 -46.667 -324.5 -32 -415.5s39.5 -149.167 74.5 -174.5s77.5 -33.666 127.5 -24.999c83.333 7.33301 155.166 49.333 215.499 126s109.5 167.334 147.5 272.001s63.667 222 77 352s13.333 235.5 0 316.5s-34.833 132.333 -64.5 154s-60.334 25.334 -92.001 11.001
s-69.334 -56.166 -113.001 -125.499s-74.5 -169.333 -92.5 -300s-22.5 -220.5 -13.5 -269.5s7 -78 -6 -87s-27.167 16.333 -42.5 76s-20.666 136.5 -15.999 230.5s17.167 171.333 37.5 232s32 105.167 35 133.5s-4 34.5 -21 18.5s-32.167 -49.667 -45.5 -101z
M356.001 -42.0039l-100 15l-43 53l177 52c19.333 -15.333 43.5 -27.833 72.5 -37.5s79.167 0.5 150.5 30.5l105 64l137 149l15 -33c-106.667 -185.333 -278 -283 -514 -293zM444.001 1725c-4 30 14 50 54 60c64 -32.667 98.333 -69.667 103 -111
c-6 -21.333 -22.333 -33.333 -49 -36l-30 -3c-48.667 26 -74.667 56 -78 90zM756.001 1721c-2 16 11.333 32.666 40 49.999c69.333 -13.333 109.666 -34 120.999 -62c1.33301 -15.333 -17 -37.666 -55 -66.999c-33.333 -3.33301 -68.666 23 -105.999 79z" />
    <glyph glyph-name="Oslash" unicode="&#xd8;" horiz-adv-x="913" 
d="M900 1261c18 -131.333 18.8301 -260.333 2.49707 -387s-34.166 -223.167 -53.499 -289.5s-51.666 -148.5 -96.999 -246.5c-92 -166.667 -182.167 -274.667 -270.5 -324s-169.166 -58 -242.499 -26c-44.667 14.667 -86 53.667 -124 117
c-46 68.667 -61.667 196.167 -47 382.5s70.667 388.833 168 607.5c138 222.667 256 334 354 334h19l27 -22l29 33c62 18 111.167 14 147.5 -12s65.5 -81.667 87.5 -167zM209.997 722c-36 -186 -46.665 -324.501 -31.998 -415.501s39.5 -149.167 74.5 -174.5
s77.5 -33.666 127.5 -24.999c83.333 7.33301 155.166 49.333 215.499 126s109.5 167.334 147.5 272.001s63.667 222 77 352s10.666 236.833 -8.00098 320.5s-40.167 135 -64.5 154s-51.666 29.667 -81.999 32s-63.333 -4.33398 -99 -20.001s-71.334 -39.667 -107.001 -72
s-78.5 -95 -128.5 -188s-90.333 -213.5 -121 -361.5zM1057 1378c-20.667 -53.333 -123.668 -206.333 -309.001 -459l-394 -515c-260.667 -376 -410.667 -563 -450 -561s23 118 187 348s287.333 395.667 370 497c475.333 682.667 711.333 979.667 708 891
c-21.333 -92 -58.666 -159 -111.999 -201z" />
    <glyph glyph-name=".notdef.025" unicode="&#xd9;" horiz-adv-x="1106" 
d="M1066 1458l9.99902 -0.00195312c14.667 -38 8.66699 -83.667 -18 -137s-61.834 -173.5 -105.501 -360.5l-110 -477.5c-29.667 -131.333 -47.167 -219 -52.5 -263s-0.5 -74.167 14.5 -90.5s53.5 -6.5 115.5 29.5c53.333 48.667 106.333 105 159 169h21v-29l-110 -156
c-71.333 -92.667 -133.333 -141 -186 -145c-58 -14.667 -103.667 16.333 -137 93l34 235c-68 -92 -130 -167.5 -186 -226.5s-123.333 -103.833 -202 -134.5c-42 -14.667 -81 -13.334 -117 3.99902c-60 24.667 -84.333 101.334 -73 230.001
c47.333 268 90.333 476.833 129 626.5s64.167 273 76.5 370s-11.167 137.5 -70.5 121.5c-64 -14.667 -151.333 -101.334 -262 -260.001c-27.333 -8 -40.333 2 -39 30c118 180 219.833 286.667 305.5 320s141.334 25 167.001 -25s14.667 -183.167 -33 -399.5
s-89.167 -414.166 -124.5 -593.499c-44.667 -202 -37.5 -306.167 21.5 -312.5s125.5 23.834 199.5 90.501s150.667 169.334 230 308.001c30.667 100 88.334 315.333 173.001 646c43.333 200.667 100 313 170 337zM587.999 1929c10 18 27.666 24.332 52.999 18.999
c64 -40.667 129.333 -74.667 196 -102l306 -158c-4.66699 -34 -85.667 -33.333 -243 2c-193.333 72.667 -284.666 126.667 -273.999 162c-19.333 18.667 -32 44.334 -38 77.001z" />
    <glyph glyph-name=".notdef.024" unicode="&#xda;" horiz-adv-x="1106" 
d="M1066 1458l9.99902 -0.00195312c14.667 -38 8.66699 -83.667 -18 -137s-61.834 -173.5 -105.501 -360.5l-110 -477.5c-29.667 -131.333 -47.167 -219 -52.5 -263s-0.5 -74.167 14.5 -90.5s53.5 -6.5 115.5 29.5c53.333 48.667 106.333 105 159 169h21v-29l-110 -156
c-71.333 -92.667 -133.333 -141 -186 -145c-58 -14.667 -103.667 16.333 -137 93l34 235c-68 -92 -130 -167.5 -186 -226.5s-123.333 -103.833 -202 -134.5c-42 -14.667 -81 -13.334 -117 3.99902c-60 24.667 -84.333 101.334 -73 230.001
c47.333 268 90.333 476.833 129 626.5s64.167 273 76.5 370s-11.167 137.5 -70.5 121.5c-64 -14.667 -151.333 -101.334 -262 -260.001c-27.333 -8 -40.333 2 -39 30c118 180 219.833 286.667 305.5 320s141.334 25 167.001 -25s14.667 -183.167 -33 -399.5
s-89.167 -414.166 -124.5 -593.499c-44.667 -202 -37.5 -306.167 21.5 -312.5s125.5 23.834 199.5 90.501s150.667 169.334 230 308.001c30.667 100 88.334 315.333 173.001 646c43.333 200.667 100 313 170 337zM1024 1962
c-1.33301 -50 -69.668 -135.668 -205.001 -257.001c-119.333 -78 -186.333 -104 -201 -78l184 193c80 82 140 153.667 180 215c18.667 12.667 35.334 13.667 50.001 3c4 -13.333 1.33301 -38.666 -8 -75.999z" />
    <glyph glyph-name="Ucircumflex" unicode="&#xdb;" horiz-adv-x="1106" 
d="M1066 1458l9.99902 -0.00195312c14.667 -38 8.66699 -83.667 -18 -137s-61.834 -173.5 -105.501 -360.5l-110 -477.5c-29.667 -131.333 -47.167 -219 -52.5 -263s-0.5 -74.167 14.5 -90.5s53.5 -6.5 115.5 29.5c53.333 48.667 106.333 105 159 169h21v-29l-110 -156
c-71.333 -92.667 -133.333 -141 -186 -145c-58 -14.667 -103.667 16.333 -137 93l34 235c-68 -92 -130 -167.5 -186 -226.5s-123.333 -103.833 -202 -134.5c-42 -14.667 -81 -13.334 -117 3.99902c-60 24.667 -84.333 101.334 -73 230.001
c47.333 268 90.333 476.833 129 626.5s64.167 273 76.5 370s-11.167 137.5 -70.5 121.5c-64 -14.667 -151.333 -101.334 -262 -260.001c-27.333 -8 -40.333 2 -39 30c118 180 219.833 286.667 305.5 320s141.334 25 167.001 -25s14.667 -183.167 -33 -399.5
s-89.167 -414.166 -124.5 -593.499c-44.667 -202 -37.5 -306.167 21.5 -312.5s125.5 23.834 199.5 90.501s150.667 169.334 230 308.001c30.667 100 88.334 315.333 173.001 646c43.333 200.667 100 313 170 337zM917.999 1705l-53 53
c-38.667 66.667 -116.334 52.667 -233.001 -42l-80 -44c-52 -21.333 -83.333 -28 -94 -20s-12.5 17.833 -5.5 29.5s28.833 25.5 65.5 41.5c84 45.333 169 107 255 185l43 26l27 -5l123 -176c38 -44 54.833 -69.5 50.5 -76.5s-15.166 -10 -32.499 -9s-39.333 13.5 -66 37.5z
" />
    <glyph glyph-name="Udieresis" unicode="&#xdc;" horiz-adv-x="1106" 
d="M1066 1458l9.99902 -0.00195312c14.667 -38 8.66699 -83.667 -18 -137s-61.834 -173.5 -105.501 -360.5l-110 -477.5c-29.667 -131.333 -47.167 -219 -52.5 -263s-0.5 -74.167 14.5 -90.5s53.5 -6.5 115.5 29.5c53.333 48.667 106.333 105 159 169h21v-29l-110 -156
c-71.333 -92.667 -133.333 -141 -186 -145c-58 -14.667 -103.667 16.333 -137 93l34 235c-68 -92 -130 -167.5 -186 -226.5s-123.333 -103.833 -202 -134.5c-42 -14.667 -81 -13.334 -117 3.99902c-60 24.667 -84.333 101.334 -73 230.001
c47.333 268 90.333 476.833 129 626.5s64.167 273 76.5 370s-11.167 137.5 -70.5 121.5c-64 -14.667 -151.333 -101.334 -262 -260.001c-27.333 -8 -40.333 2 -39 30c118 180 219.833 286.667 305.5 320s141.334 25 167.001 -25s14.667 -183.167 -33 -399.5
s-89.167 -414.166 -124.5 -593.499c-44.667 -202 -37.5 -306.167 21.5 -312.5s125.5 23.834 199.5 90.501s150.667 169.334 230 308.001c30.667 100 88.334 315.333 173.001 646c43.333 200.667 100 313 170 337zM527.999 1715c-4 30 14 50 54 60
c64 -32.667 98.333 -69.667 103 -111c-6 -21.333 -22.333 -33.333 -49 -36l-30 -3c-48.667 26 -74.667 56 -78 90zM839.999 1711c-2 16 11.333 32.666 40 49.999c69.333 -13.333 109.666 -34 120.999 -62c1.33301 -15.333 -17 -37.666 -55 -66.999
c-33.333 -3.33301 -68.666 23 -105.999 79z" />
    <glyph glyph-name="Ysac" unicode="&#xdd;" horiz-adv-x="1028" 
d="M1131 1916c-5.33301 -46.667 -77.001 -121.998 -215.001 -225.998c-119.333 -64.667 -185 -83.667 -197 -57l190 167c82.667 71.333 145.334 134.666 188.001 189.999c19.333 10 35.333 9 48 -3c2 -12.667 -2.66699 -36.334 -14 -71.001zM1195 1505l35 -35.001
c-71.333 -152 -132.333 -328.333 -183 -529c-29.333 -181.333 -66.166 -333 -110.499 -455s-92 -219.667 -143 -293s-122.167 -130 -213.5 -170c-57.333 -30.667 -149.666 -50.667 -276.999 -60c-60.667 11.333 -103.834 31.166 -129.501 59.499s-33.5 62.5 -23.5 102.5
c22 82.667 71 97 147 43c32.667 -71.333 81 -107.333 145 -108c84.667 -1.33301 162.167 42.667 232.5 132s121.666 196.666 153.999 321.999s58.166 250.333 77.499 375l-1 18c-1.33301 33.333 -11.333 52.333 -30 57l-11 -1c-22 -0.666992 -50 -53 -84 -157l-114 -145
c-156 -181.333 -262.667 -278.333 -320 -291l-47 -11c-69.333 -2 -101.666 41.333 -96.999 130c16 84.667 50.667 212.334 104 383.001c11.333 55.333 24 111.333 38 168c16.667 82 32.667 156.333 48 223l-6 61l-144 16c-166 -29.333 -236 -110.666 -210 -243.999
c-14.667 -35.333 -33.167 -51.5 -55.5 -48.5s-42.666 13.333 -60.999 31s-20.166 53 -5.49902 106s51.5 101.5 110.5 145.5s117.167 69 174.5 75l108 -16c75.333 -17.333 139.666 -3 192.999 43c25.333 -8.66699 38.333 -18 39 -28
c-55.333 -295.333 -117.333 -554 -186 -776c-15.333 -51.333 -20.5 -89.166 -15.5 -113.499s23 -35.5 54 -33.5s101.5 61.333 211.5 178c21.333 20 52 56 92 108c28 22 69.667 96.667 125 224c-1.33301 42 50.667 97.667 156 167c89.333 225.333 163.666 341 222.999 347z
M470.999 -41.999l-128 4l-43 53l187 35c36 -4 67.333 -9 94 -15s75.667 6 147 36c80 42.667 160.667 113.667 242 213l15 -33c-106.667 -185.333 -278 -283 -514 -293z" />
    <glyph glyph-name="germandbls" unicode="&#xdf;" horiz-adv-x="646" 
d="M157 764c-9.33301 -53.333 51.667 -19.833 183 100.5s219.333 233.666 264 339.999s32.667 174.833 -36 205.5s-132.667 16.167 -192 -43.5s-101 -128 -125 -205s-43.333 -149.167 -58 -216.5s-26.667 -127.666 -36 -180.999zM17 573l-64.998 -43.999
c-82.667 -57.333 -109.834 -62.666 -81.501 -15.999s72.166 85 131.499 115c22.667 5.33301 42.334 52.666 59.001 141.999s43.834 206.833 81.501 352.5s100.167 254.667 187.5 327s183.666 88.5 288.999 48.5s137.166 -131.833 95.499 -275.5s-146.667 -281.5 -315 -413.5
s-273.5 -267.833 -315.5 -407.5s-109.333 -377.834 -202 -714.501s-190.334 -558 -293.001 -664s-122.167 -105.333 -58.5 2s120.334 226.5 170.001 357.5s155.167 527.833 316.5 1190.5zM124.002 613.001l-8 40.9961c185.333 82.667 315.5 77.667 390.5 -15
s102 -192.5 81 -299.5s-66.167 -187.333 -135.5 -241s-140.666 -79.167 -213.999 -76.5s-124 32.5 -152 89.5s-30.833 108.833 -8.5 155.5s53.666 70.334 93.999 71.001s60.166 -20.666 59.499 -63.999s-13.667 -86.666 -39 -129.999s-1.5 -61.5 71.5 -54.5s133 63 180 168
s44.833 206.333 -6.5 304s-155.666 114.834 -312.999 51.501z" />
    <glyph glyph-name="ahuyen" unicode="&#xe0;" horiz-adv-x="692" 
d="M437 690l71.998 3.99805l22 -45c2.66699 -32 -16.333 -94 -57 -186l-58 -182l-14 -93c-12 -68.667 -2.33301 -100 29 -94l38 21c26.667 21.333 85.334 81.333 176.001 180c14.667 -0.666992 24 -11.667 28 -33c-112.667 -175.333 -202 -261.666 -268 -258.999
c-80.667 -17.333 -118.667 26.334 -114 131.001l34 174c-103.333 -130.667 -195.666 -221.667 -276.999 -273c-35.333 -26 -82.333 -36.333 -141 -31l-28 29l-9 35c-4 51.333 1.33301 102.666 16 153.999c16 44.667 40 95.667 72 153
c64 102.667 147.5 185.834 250.5 249.501s179.167 85.5 228.5 65.5zM60.998 154.998c70 50 124.334 99.333 163.001 148c46 46 88.667 119.333 128 220c-32 50 -78.667 55.667 -140 17c-35.333 -19.333 -76 -61.333 -122 -126c-51.333 -69.333 -85.333 -132.333 -102 -189
c-16.667 -88 7.66602 -111.333 72.999 -70zM204.999 1060c18 38 49.666 41.832 94.999 11.499s108 -59.5 188 -87.5l216 -63c6.66699 -14 2.66699 -23 -12 -27s-36 -5 -64 -3s-54.333 2.33301 -79 1l2 6c-35.333 0 -74.666 7.33301 -117.999 22
c-113.333 18.667 -184.333 51.334 -213 98.001z" />
    <glyph glyph-name="asac" unicode="&#xe1;" horiz-adv-x="692" 
d="M642 1236c6.66699 -54 -28.998 -122.999 -106.998 -206.999c-25.333 -38.667 -51.666 -69 -78.999 -91l5 -3c-20.667 -14.667 -41.334 -31.334 -62.001 -50.001s-38 -31 -52 -37s-23 -1.33301 -27 14l132 183c45.333 71.333 76.666 133 93.999 185
s44.666 68.333 81.999 49zM437.002 690.001l71.998 3.99805l22 -45c2.66699 -32 -16.333 -94 -57 -186l-58 -182l-14 -93c-12 -68.667 -2.33301 -100 29 -94l38 21c26.667 21.333 85.334 81.333 176.001 180c14.667 -0.666992 24 -11.667 28 -33
c-112.667 -175.333 -202 -261.666 -268 -258.999c-80.667 -17.333 -118.667 26.334 -114 131.001l34 174c-103.333 -130.667 -195.666 -221.667 -276.999 -273c-35.333 -26 -82.333 -36.333 -141 -31l-28 29l-9 35c-4 51.333 1.33301 102.666 16 153.999
c16 44.667 40 95.667 72 153c64 102.667 147.5 185.834 250.5 249.501s179.167 85.5 228.5 65.5zM61 154.999c70 50 124.334 99.333 163.001 148c46 46 88.667 119.333 128 220c-32 50 -78.667 55.667 -140 17c-35.333 -19.333 -76 -61.333 -122 -126
c-51.333 -69.333 -85.333 -132.333 -102 -189c-16.667 -88 7.66602 -111.333 72.999 -70z" />
    <glyph glyph-name="aa" unicode="&#xe2;" horiz-adv-x="692" 
d="M437 690l71.998 3.99805l22 -45c2.66699 -32 -16.333 -94 -57 -186l-58 -182l-14 -93c-12 -68.667 -2.33301 -100 29 -94l38 21c26.667 21.333 85.334 81.333 176.001 180c14.667 -0.666992 24 -11.667 28 -33c-112.667 -175.333 -202 -261.666 -268 -258.999
c-80.667 -17.333 -118.667 26.334 -114 131.001l34 174c-103.333 -130.667 -195.666 -221.667 -276.999 -273c-35.333 -26 -82.333 -36.333 -141 -31l-28 29l-9 35c-4 51.333 1.33301 102.666 16 153.999c16 44.667 40 95.667 72 153
c64 102.667 147.5 185.834 250.5 249.501s179.167 85.5 228.5 65.5zM60.998 154.998c70 50 124.334 99.333 163.001 148c46 46 88.667 119.333 128 220c-32 50 -78.667 55.667 -140 17c-35.333 -19.333 -76 -61.333 -122 -126c-51.333 -69.333 -85.333 -132.333 -102 -189
c-16.667 -88 7.66602 -111.333 72.999 -70zM631.999 785.998l-47 14.001l-89 71c-32 67.333 -112.333 41.666 -241 -77.001l-59 -29l-47 -1l-39 30l11 53l52 18c74 13.333 155 69.333 243 168l40 28l26 -5l117 -186l73 -61l-11 -14z" />
    <glyph glyph-name="anga" unicode="&#xe3;" horiz-adv-x="692" 
d="M437 690l71.998 3.99805l22 -45c2.66699 -32 -16.333 -94 -57 -186l-58 -182l-14 -93c-12 -68.667 -2.33301 -100 29 -94l38 21c26.667 21.333 85.334 81.333 176.001 180c14.667 -0.666992 24 -11.667 28 -33c-112.667 -175.333 -202 -261.666 -268 -258.999
c-80.667 -17.333 -118.667 26.334 -114 131.001l34 174c-103.333 -130.667 -195.666 -221.667 -276.999 -273c-35.333 -26 -82.333 -36.333 -141 -31l-28 29l-9 35c-4 51.333 1.33301 102.666 16 153.999c16 44.667 40 95.667 72 153
c64 102.667 147.5 185.834 250.5 249.501s179.167 85.5 228.5 65.5zM60.998 154.998c70 50 124.334 99.333 163.001 148c46 46 88.667 119.333 128 220c-32 50 -78.667 55.667 -140 17c-35.333 -19.333 -76 -61.333 -122 -126c-51.333 -69.333 -85.333 -132.333 -102 -189
c-16.667 -88 7.66602 -111.333 72.999 -70zM555.999 904.998c-37.333 4 -66.999 12.8301 -88.999 26.4971s-44.167 21.667 -66.5 24s-44.833 -4.66699 -67.5 -21s-43 -33.833 -61 -52.5s-36.333 -26.167 -55 -22.5s-29.167 15.167 -31.5 34.5s4.66699 40.833 21 64.5
s40.666 44.334 72.999 62.001s64.666 26.334 96.999 26.001s67.5 -10.5 105.5 -30.5s71.333 -30.833 100 -32.5s54.334 6 77.001 23s42.167 37.333 58.5 61s27.5 26.834 33.5 9.50098s-1.83301 -42 -23.5 -74s-46.167 -57.167 -73.5 -75.5s-60 -25.833 -98 -22.5z" />
    <glyph glyph-name="adieresis" unicode="&#xe4;" horiz-adv-x="692" 
d="M437 690l71.998 3.99805l22 -45c2.66699 -32 -16.333 -94 -57 -186l-58 -182l-14 -93c-12 -68.667 -2.33301 -100 29 -94l38 21c26.667 21.333 85.334 81.333 176.001 180c14.667 -0.666992 24 -11.667 28 -33c-112.667 -175.333 -202 -261.666 -268 -258.999
c-80.667 -17.333 -118.667 26.334 -114 131.001l34 174c-103.333 -130.667 -195.666 -221.667 -276.999 -273c-35.333 -26 -82.333 -36.333 -141 -31l-28 29l-9 35c-4 51.333 1.33301 102.666 16 153.999c16 44.667 40 95.667 72 153
c64 102.667 147.5 185.834 250.5 249.501s179.167 85.5 228.5 65.5zM60.998 154.998c70 50 124.334 99.333 163.001 148c46 46 88.667 119.333 128 220c-32 50 -78.667 55.667 -140 17c-35.333 -19.333 -76 -61.333 -122 -126c-51.333 -69.333 -85.333 -132.333 -102 -189
c-16.667 -88 7.66602 -111.333 72.999 -70zM143.999 955.998c-4 30 14 50 54 60c64 -32.667 98.333 -69.667 103 -111c-6 -21.333 -22.333 -33.333 -49 -36l-30 -3c-48.667 26 -74.667 56 -78 90zM455.999 951.998c-2 16 11.333 32.666 40 49.999
c69.333 -13.333 109.666 -34 120.999 -62c1.33301 -15.333 -17 -37.666 -55 -66.999c-33.333 -3.33301 -68.666 23 -105.999 79z" />
    <glyph glyph-name="aring" unicode="&#xe5;" horiz-adv-x="692" 
d="M437 690l71.998 3.99805l22 -45c2.66699 -32 -16.333 -94 -57 -186l-58 -182l-14 -93c-12 -68.667 -2.33301 -100 29 -94l38 21c26.667 21.333 85.334 81.333 176.001 180c14.667 -0.666992 24 -11.667 28 -33c-112.667 -175.333 -202 -261.666 -268 -258.999
c-80.667 -17.333 -118.667 26.334 -114 131.001l34 174c-103.333 -130.667 -195.666 -221.667 -276.999 -273c-35.333 -26 -82.333 -36.333 -141 -31l-28 29l-9 35c-4 51.333 1.33301 102.666 16 153.999c16 44.667 40 95.667 72 153
c64 102.667 147.5 185.834 250.5 249.501s179.167 85.5 228.5 65.5zM60.998 154.998c70 50 124.334 99.333 163.001 148c46 46 88.667 119.333 128 220c-32 50 -78.667 55.667 -140 17c-35.333 -19.333 -76 -61.333 -122 -126c-51.333 -69.333 -85.333 -132.333 -102 -189
c-16.667 -88 7.66602 -111.333 72.999 -70zM417.999 825.998c-34.667 -16.667 -68.3379 -20 -101.005 -10c-43.333 18.667 -71.166 47.167 -83.499 85.5s-5.66602 77 20.001 116s54.334 63.5 86.001 73.5s57.167 14.5 76.5 13.5s39.833 -7.33301 61.5 -19
s37.334 -31 47.001 -58s6.33398 -61.833 -9.99902 -104.5s-48.5 -75 -96.5 -97zM291.995 950.998c-10 -46 -0.834961 -77 27.498 -93s56.833 -14 85.5 6s46.334 46.667 53.001 80s6.16699 59.833 -1.5 79.5s-21.667 33.667 -42 42s-43.166 2.83301 -68.499 -16.5
s-43.333 -52 -54 -98z" />
    <glyph glyph-name="ae" unicode="&#xe6;" horiz-adv-x="3112" 
 />
    <glyph glyph-name="ccedilla" unicode="&#xe7;" horiz-adv-x="467" 
d="M244 611c-124.667 -86.667 -193.333 -223.334 -206 -410.001c0 -87.333 34.333 -124.666 103 -111.999c80 19.333 188 114.333 324 285l21 -18c-128 -205.333 -238 -326.333 -330 -363c-39.333 -20 -85 -23.667 -137 -11c-46 15.333 -76.333 46 -91 92
s-18.334 90.667 -11.001 134c12 86 44.333 173.167 97 261.5s108.667 151 168 188s111 48.667 155 35s67.333 -44 70 -91s-12.833 -75.167 -46.5 -84.5s-52.167 9.5 -55.5 56.5s-23.666 59.5 -60.999 37.5zM288.001 -117c-6 -40.667 -37.835 -69.3301 -95.502 -85.9971
s-108 -10.667 -151 18s-56.167 52.167 -39.5 70.5s32.167 16.333 46.5 -6s34.5 -34.333 60.5 -36s50.667 4.16602 74 17.499s33.333 33.166 30 59.499s-30.666 47.833 -81.999 64.5s-66.666 29.5 -45.999 38.5s43 8.33301 67 -2s54.167 -25.833 90.5 -46.5
s51.5 -51.334 45.5 -92.001z" />
    <glyph glyph-name="ehuyen" unicode="&#xe8;" horiz-adv-x="468" 
d="M317 187l77.9961 88.0039c22 14 36.667 14.333 44 1c-119.333 -171.333 -219.333 -269 -300 -293c-66.667 -18 -117.667 -13.167 -153 14.5s-57.166 70.667 -65.499 129s-1 119.666 22 183.999s59.667 131.666 110 201.999s108.833 122.666 175.5 156.999
s117.834 41.5 153.501 21.5s51.834 -52.833 48.501 -98.5s-23.666 -88.667 -60.999 -129s-92.666 -78.333 -165.999 -114s-120.166 -64 -140.499 -85s-31 -43.5 -32 -67.5s1.66699 -47 8 -69s21.166 -39.333 44.499 -52s56.666 -10.834 99.999 5.49902s88 51.5 134 105.5z
M43.9961 326.004c126 64.667 208.171 119.668 246.504 165.001s53.666 81.166 45.999 107.499s-33.834 30.5 -78.501 12.5s-86.834 -54.5 -126.501 -109.5s-68.834 -113.5 -87.501 -175.5zM673 922.005c6.66699 -14 -5.83594 -22.668 -37.5029 -26.001
s-70.667 -2.33301 -117 3s-100.666 16.833 -162.999 34.5s-106.666 34.5 -132.999 50.5s-42.333 35.167 -48 57.5s-1.16699 39.166 13.5 50.499s43.167 3.33301 85.5 -24s90.333 -52.166 144 -74.499s138.834 -46.166 255.501 -71.499z" />
    <glyph glyph-name="esac" unicode="&#xe9;" horiz-adv-x="468" 
d="M317 187l77.9961 88.0039c22 14 36.667 14.333 44 1c-119.333 -171.333 -219.333 -269 -300 -293c-66.667 -18 -117.667 -13.167 -153 14.5s-57.166 70.667 -65.499 129s-1 119.666 22 183.999s59.667 131.666 110 201.999s108.833 122.666 175.5 156.999
s117.834 41.5 153.501 21.5s51.834 -52.833 48.501 -98.5s-23.666 -88.667 -60.999 -129s-92.666 -78.333 -165.999 -114s-120.166 -64 -140.499 -85s-31 -43.5 -32 -67.5s1.66699 -47 8 -69s21.166 -39.333 44.499 -52s56.666 -10.834 99.999 5.49902s88 51.5 134 105.5z
M43.9961 326.004c126 64.667 208.171 119.668 246.504 165.001s53.666 81.166 45.999 107.499s-33.834 30.5 -78.501 12.5s-86.834 -54.5 -126.501 -109.5s-68.834 -113.5 -87.501 -175.5zM258 841.005l132.001 182.999c45.333 71.333 76.666 129.833 93.999 175.5
s39.5 64.834 66.5 57.501s36.167 -33.333 27.5 -78s-36.167 -96.667 -82.5 -156s-81 -98.833 -104 -118.5s-43 -36 -60 -49s-32.5 -22.5 -46.5 -28.5s-23 -1.33301 -27 14z" />
    <glyph glyph-name="" unicode="&#xea;" horiz-adv-x="468" 
d="M317 187l77.9961 88.0039c22 14 36.667 14.333 44 1c-119.333 -171.333 -219.333 -269 -300 -293c-66.667 -18 -117.667 -13.167 -153 14.5s-57.166 70.667 -65.499 129s-1 119.666 22 183.999s59.667 131.666 110 201.999s108.833 122.666 175.5 156.999
s117.834 41.5 153.501 21.5s51.834 -52.833 48.501 -98.5s-23.666 -88.667 -60.999 -129s-92.666 -78.333 -165.999 -114s-120.166 -64 -140.499 -85s-31 -43.5 -32 -67.5s1.66699 -47 8 -69s21.166 -39.333 44.499 -52s56.666 -10.834 99.999 5.49902s88 51.5 134 105.5z
M43.9961 326.004c126 64.667 208.171 119.668 246.504 165.001s53.666 81.166 45.999 107.499s-33.834 30.5 -78.501 12.5s-86.834 -54.5 -126.501 -109.5s-68.834 -113.5 -87.501 -175.5zM81 858.005c76.667 32 134.17 66.1641 172.503 102.497l82.5 77.5
c16.667 15.333 31.5 12.833 44.5 -7.5l62.5 -97.5c28.667 -44.667 58.167 -76.5 88.5 -95.5s42.5 -33.833 36.5 -44.5s-20.5 -12.167 -43.5 -4.5s-49.333 23.334 -79 47.001s-54.334 45.834 -74.001 66.501s-59.834 7.83398 -120.501 -38.499s-100.834 -74.333 -120.501 -84
s-37.334 -15 -53.001 -16s-30 3.83301 -43 14.5s-17.167 23.667 -12.5 39s24.334 29 59.001 41z" />
    <glyph glyph-name="edieresis" unicode="&#xeb;" horiz-adv-x="468" 
d="M317 187l77.9961 88.0039c22 14 36.667 14.333 44 1c-119.333 -171.333 -219.333 -269 -300 -293c-66.667 -18 -117.667 -13.167 -153 14.5s-57.166 70.667 -65.499 129s-1 119.666 22 183.999s59.667 131.666 110 201.999s108.833 122.666 175.5 156.999
s117.834 41.5 153.501 21.5s51.834 -52.833 48.501 -98.5s-23.666 -88.667 -60.999 -129s-92.666 -78.333 -165.999 -114s-120.166 -64 -140.499 -85s-31 -43.5 -32 -67.5s1.66699 -47 8 -69s21.166 -39.333 44.499 -52s56.666 -10.834 99.999 5.49902s88 51.5 134 105.5z
M43.9961 326.004c126 64.667 208.171 119.668 246.504 165.001s53.666 81.166 45.999 107.499s-33.834 30.5 -78.501 12.5s-86.834 -54.5 -126.501 -109.5s-68.834 -113.5 -87.501 -175.5zM104 953.005c-6 29.333 10.668 50.333 50.001 63
c66 -29.333 102.333 -64.333 109 -105c-4.66699 -22 -20.334 -35 -47.001 -39l-30 -5c-50 23.333 -77.333 52 -82 86zM415.001 966.005c-2.66699 16 9.66797 33.3311 37.001 51.998c70 -9.33301 111.667 -27.666 125 -54.999c2 -15.333 -15.333 -38.666 -52 -69.999
c-32.667 -5.33301 -69.334 19 -110.001 73z" />
    <glyph glyph-name="igrave" unicode="&#xec;" horiz-adv-x="443" 
d="M41 341l-75.999 -95.001c-64 -75.333 -100.333 -98.333 -109 -69c59.333 75.333 109.666 146 150.999 212l43 40c37.333 10.667 34.333 -18.666 -9 -87.999zM-11.999 356.999l208.002 313l24 13c26 -0.666992 38 -21 36 -61c-54 -102 -94 -233.333 -120 -394l-15 -85
l-2 -42c1.33301 -15.333 11.666 -24.333 30.999 -27c29.333 2.66699 82 44.667 158 126l80 95l7 -28c-62.667 -128 -138.334 -220.333 -227.001 -277c-36 -15.333 -70.333 -18.333 -103 -9c-50.667 18 -69 64.333 -55 139c2.66699 40 21 127.667 55 263l-83 -26h6z
M334.003 949.999l48.001 -30c3.33301 -38.667 -45.667 -80 -147 -124c-14.667 6 -26.334 8.66699 -35.001 8l-2 34c4.66699 20 50 57.333 136 112zM322.004 1240c18 38 49.666 41.832 94.999 11.499s108 -59.5 188 -87.5l216 -63c6.66699 -14 2.66699 -23 -12 -27
s-36 -5 -64 -3s-54.333 2.33301 -79 1l2 6c-35.333 0 -74.666 7.33301 -117.999 22c-113.333 18.667 -184.333 51.334 -213 98.001z" />
    <glyph glyph-name="iacute" unicode="&#xed;" horiz-adv-x="443" 
d="M41 341l-75.999 -95.001c-64 -75.333 -100.333 -98.333 -109 -69c59.333 75.333 109.666 146 150.999 212l43 40c37.333 10.667 34.333 -18.666 -9 -87.999zM-11.999 356.999l208.002 313l24 13c26 -0.666992 38 -21 36 -61c-54 -102 -94 -233.333 -120 -394l-15 -85
l-2 -42c1.33301 -15.333 11.666 -24.333 30.999 -27c29.333 2.66699 82 44.667 158 126l80 95l7 -28c-62.667 -128 -138.334 -220.333 -227.001 -277c-36 -15.333 -70.333 -18.333 -103 -9c-50.667 18 -69 64.333 -55 139c2.66699 40 21 127.667 55 263l-83 -26h6z
M344.003 979.999l48.001 -30c3.33301 -38.667 -45.667 -80 -147 -124c-14.667 6 -26.334 8.66699 -35.001 8l-2 34c4.66699 20 50 57.333 136 112zM620.004 1304c20.667 -34 -2.99902 -92.999 -70.999 -176.999c-22.667 -36.667 -46.334 -66.334 -71.001 -89.001l4 -2
l-56 -45.5c-19.333 -15.667 -35.5 -26.5 -48.5 -32.5s-21.833 0.666992 -26.5 20l134 211c24.667 36 47.5 71.5 68.5 106.5s38.5 49.167 52.5 42.5z" />
    <glyph glyph-name="icircumflex.001" unicode="&#xee;" horiz-adv-x="443" 
d="M41 341l-75.999 -95.001c-64 -75.333 -100.333 -98.333 -109 -69c59.333 75.333 109.666 146 150.999 212l43 40c37.333 10.667 34.333 -18.666 -9 -87.999zM-11.999 356.999l208.002 313l24 13c26 -0.666992 38 -21 36 -61c-54 -102 -94 -233.333 -120 -394l-15 -85
l-2 -42c1.33301 -15.333 11.666 -24.333 30.999 -27c29.333 2.66699 82 44.667 158 126l80 95l7 -28c-62.667 -128 -138.334 -220.333 -227.001 -277c-36 -15.333 -70.333 -18.333 -103 -9c-50.667 18 -69 64.333 -55 139c2.66699 40 21 127.667 55 263l-83 -26h6z
M362.003 817.999l-38 37c-26.667 46 -80.667 36.333 -162 -29l-55 -31c-36.667 -14.667 -58.667 -19.167 -66 -13.5s-8.5 12.5 -3.5 20.5s20.167 17.667 45.5 29c58 31.333 117 74 177 128l30 18l19 -3l86 -123c26 -30.667 37.5 -48.334 34.5 -53.001
s-10.5 -6.66699 -22.5 -6s-27 9.33398 -45 26.001z" />
    <glyph glyph-name="idieresis" unicode="&#xef;" horiz-adv-x="443" 
d="M41 341l-75.999 -95.001c-64 -75.333 -100.333 -98.333 -109 -69c59.333 75.333 109.666 146 150.999 212l43 40c37.333 10.667 34.333 -18.666 -9 -87.999zM-11.999 356.999l208.002 313l24 13c26 -0.666992 38 -21 36 -61c-54 -102 -94 -233.333 -120 -394l-15 -85
l-2 -42c1.33301 -15.333 11.666 -24.333 30.999 -27c29.333 2.66699 82 44.667 158 126l80 95l7 -28c-62.667 -128 -138.334 -220.333 -227.001 -277c-36 -15.333 -70.333 -18.333 -103 -9c-50.667 18 -69 64.333 -55 139c2.66699 40 21 127.667 55 263l-83 -26h6z
M30.0029 950.999c-4 30 14 50 54 60c64 -32.667 98.333 -69.667 103 -111c-6 -21.333 -22.333 -33.333 -49 -36l-30 -3c-48.667 26 -74.667 56 -78 90zM342.003 946.999c-2 16 11.333 32.666 40 49.999c69.333 -13.333 109.666 -34 120.999 -62
c1.33301 -15.333 -17 -37.666 -55 -66.999c-33.333 -3.33301 -68.666 23 -105.999 79z" />
    <glyph glyph-name="ntilde" unicode="&#xf1;" horiz-adv-x="830" 
d="M92 -18l-11.001 45.999l66 285l23 83c22.667 80.667 8.33398 107.334 -42.999 80.001c-130.667 -202 -220 -300.667 -268 -296c54 84.667 156 230.667 306 438c48.667 29.333 82.667 44 102 44c27.333 -18.667 42 -51 44 -97l-4 -82l-8 -63l-18 -78l-107 -336
c-16 -32.667 -43.333 -40.667 -82 -24zM514.999 -11.001c-48.667 2.66699 -74.667 29.332 -78 79.999l6 75c28.667 101.333 51 184.666 67 249.999c44.667 124.667 42 176 -8 154l-52 -37c-65.333 -57.333 -147 -175.333 -245 -354l-43 35l144 212
c136 196.667 237 291.334 303 284.001c52 -11.333 73.667 -51.666 65 -120.999l-18 -61l-80 -300c-23.333 -78 -20.333 -113 9 -105l-10 -93zM771.999 300.997c10.667 0 23.999 6.66797 39.999 20.001h19c-55.333 -126 -135.333 -227.667 -240 -305
c-15.333 -7.33301 -29.666 -13.333 -42.999 -18l32 104c67.333 37.333 131.333 103.666 192 198.999zM536.998 851.998c-32.667 4.66699 -57.3301 13.334 -73.9971 26.001s-29 19.667 -37 21s-19.5 2.66602 -34.5 3.99902s-32.667 -4.16699 -53 -16.5l-60.5 -36
c-20 -11.667 -38.333 -16.667 -55 -15s-23.5 9.16699 -20.5 22.5s12.667 30 29 50s37.5 38.667 63.5 56s52.667 27.666 80 30.999s60.666 -5.66699 99.999 -27s71.333 -32.833 96 -34.5s46.834 6 66.501 23s36.5 37.333 50.5 61s23.667 26.834 29 9.50098
s-2.33398 -42.333 -23.001 -75s-43.834 -58.5 -69.501 -77.5s-54.834 -26.5 -87.501 -22.5z" />
    <glyph glyph-name="ograve" unicode="&#xf2;" horiz-adv-x="509" 
d="M241 98c-59.333 -66.667 -117.002 -102.335 -173.002 -107.002c-75.333 4.66699 -123.666 44.834 -144.999 120.501s-11 171.5 31 287.5s111.333 203 208 261c16.667 26.667 41.834 47.334 75.501 62.001s69 17.667 106 9s64 -39 81 -91s11.333 -132.833 -17 -242.5
s-83.833 -209.5 -166.5 -299.5zM24.998 271.999c-17.333 -111.333 -1.83203 -173.334 46.501 -186.001s97.166 15.666 146.499 84.999s79.833 144.5 91.5 225.5s11 140.167 -2 177.5s-37 56.833 -72 58.5s-74.5 -30.166 -118.5 -95.499s-74.667 -153.666 -92 -264.999z
M91.999 -7.00195c-27.333 -2 -53.668 1.99902 -79.001 11.999c99.333 39.333 180.833 76.833 244.5 112.5s140.834 106.834 231.501 213.501l14 -27c-125.333 -196 -262.333 -299.667 -411 -311zM204.997 1060c18 38 49.666 41.832 94.999 11.499s108 -59.5 188 -87.5
l216 -63c6.66699 -14 2.66699 -23 -12 -27s-36 -5 -64 -3s-54.333 2.33301 -79 1l2 6c-35.333 0 -74.666 7.33301 -117.999 22c-113.333 18.667 -184.333 51.334 -213 98.001z" />
    <glyph glyph-name="oacute" unicode="&#xf3;" horiz-adv-x="509" 
d="M241 98c-59.333 -66.667 -117.002 -102.335 -173.002 -107.002c-75.333 4.66699 -123.666 44.834 -144.999 120.501s-11 171.5 31 287.5s111.333 203 208 261c16.667 26.667 41.834 47.334 75.501 62.001s69 17.667 106 9s64 -39 81 -91s11.333 -132.833 -17 -242.5
s-83.833 -209.5 -166.5 -299.5zM24.998 271.999c-17.333 -111.333 -1.83203 -173.334 46.501 -186.001s97.166 15.666 146.499 84.999s79.833 144.5 91.5 225.5s11 140.167 -2 177.5s-37 56.833 -72 58.5s-74.5 -30.166 -118.5 -95.499s-74.667 -153.666 -92 -264.999z
M91.999 -7.00195c-27.333 -2 -53.668 1.99902 -79.001 11.999c99.333 39.333 180.833 76.833 244.5 112.5s140.834 106.834 231.501 213.501l14 -27c-125.333 -196 -262.333 -299.667 -411 -311zM601.997 1226c6.66699 -54 -28.998 -122.999 -106.998 -206.999
c-25.333 -38.667 -51.666 -69 -78.999 -91l5 -3c-20.667 -14.667 -41.334 -31.334 -62.001 -50.001s-38 -31 -52 -37s-23 -1.33301 -27 14l132 183c45.333 71.333 76.666 133 93.999 185s44.666 68.333 81.999 49z" />
    <glyph glyph-name="" unicode="&#xf4;" horiz-adv-x="516" 
d="M521 800l-44 12.999l-84 67c-29.333 63.333 -104.333 39.333 -225 -72l-55 -27l-44 -1l-37 28l11 50l48 16c69.333 12.667 145 65.334 227 158.001l38 26l24 -5l110 -174l68 -57l-10 -13zM25 271.999c-17.333 -111.333 -1.83203 -173.334 46.501 -186.001
s97.166 15.666 146.499 84.999s79.833 144.5 91.5 225.5s11 140.167 -2 177.5s-37 56.833 -72 58.5s-74.5 -30.166 -118.5 -95.499s-74.667 -153.666 -92 -264.999zM80.001 -7.00195l-12.001 -2.00195c-75.333 4.66699 -123.666 44.834 -144.999 120.501s-11 171.5 31 287.5
s111.333 203 208 261c16.667 26.667 41.834 47.334 75.501 62.001s69 17.667 106 9s64 -39 81 -91s11.5 -132.667 -16.5 -242c-26.667 -102 -76.334 -195.333 -149.001 -280c63.333 36 140 107 230 213l14 -27c-125.333 -196 -262.333 -299.667 -411 -311h-12z" />
    <glyph glyph-name="otilde" unicode="&#xf5;" horiz-adv-x="509" 
d="M241 98c-59.333 -66.667 -117.002 -102.335 -173.002 -107.002c-75.333 4.66699 -123.666 44.834 -144.999 120.501s-11 171.5 31 287.5s111.333 203 208 261c16.667 26.667 41.834 47.334 75.501 62.001s69 17.667 106 9s64 -39 81 -91s11.333 -132.833 -17 -242.5
s-83.833 -209.5 -166.5 -299.5zM24.998 271.999c-17.333 -111.333 -1.83203 -173.334 46.501 -186.001s97.166 15.666 146.499 84.999s79.833 144.5 91.5 225.5s11 140.167 -2 177.5s-37 56.833 -72 58.5s-74.5 -30.166 -118.5 -95.499s-74.667 -153.666 -92 -264.999z
M91.999 -7.00195c-27.333 -2 -53.668 1.99902 -79.001 11.999c99.333 39.333 180.833 76.833 244.5 112.5s140.834 106.834 231.501 213.501l14 -27c-125.333 -196 -262.333 -299.667 -411 -311zM515.997 924.997c-37.333 4 -66.999 12.8301 -88.999 26.4971
s-44.167 21.667 -66.5 24s-44.833 -4.66699 -67.5 -21s-43 -33.833 -61 -52.5s-36.333 -26.167 -55 -22.5s-29.167 15.167 -31.5 34.5s4.66699 40.833 21 64.5s40.666 44.334 72.999 62.001s64.666 26.334 96.999 26.001s67.5 -10.5 105.5 -30.5s71.333 -30.833 100 -32.5
s54.334 6 77.001 23s42.167 37.333 58.5 61s27.5 26.834 33.5 9.50098s-1.83301 -42 -23.5 -74s-46.167 -57.167 -73.5 -75.5s-60 -25.833 -98 -22.5z" />
    <glyph glyph-name="odieresis" unicode="&#xf6;" horiz-adv-x="509" 
d="M241 98c-59.333 -66.667 -117.002 -102.335 -173.002 -107.002c-75.333 4.66699 -123.666 44.834 -144.999 120.501s-11 171.5 31 287.5s111.333 203 208 261c16.667 26.667 41.834 47.334 75.501 62.001s69 17.667 106 9s64 -39 81 -91s11.333 -132.833 -17 -242.5
s-83.833 -209.5 -166.5 -299.5zM24.998 271.999c-17.333 -111.333 -1.83203 -173.334 46.501 -186.001s97.166 15.666 146.499 84.999s79.833 144.5 91.5 225.5s11 140.167 -2 177.5s-37 56.833 -72 58.5s-74.5 -30.166 -118.5 -95.499s-74.667 -153.666 -92 -264.999z
M91.999 -7.00195c-27.333 -2 -53.668 1.99902 -79.001 11.999c99.333 39.333 180.833 76.833 244.5 112.5s140.834 106.834 231.501 213.501l14 -27c-125.333 -196 -262.333 -299.667 -411 -311zM92.9971 950.997c-4 30 14 50 54 60c64 -32.667 98.333 -69.667 103 -111
c-6 -21.333 -22.333 -33.333 -49 -36l-30 -3c-48.667 26 -74.667 56 -78 90zM404.997 946.997c-2 16 11.333 32.666 40 49.999c69.333 -13.333 109.666 -34 120.999 -62c1.33301 -15.333 -17 -37.666 -55 -66.999c-33.333 -3.33301 -68.666 23 -105.999 79z" />
    <glyph glyph-name="divide" unicode="&#xf7;" horiz-adv-x="836" 
d="M557 372c-61.333 -2 -122.499 -4.16602 -183.499 -6.49902s-128.333 -7.33301 -202 -15s-86.334 3.66602 -38.001 33.999s104 46.833 167 49.5s106.833 3.66699 131.5 3s48.334 -1 71.001 -1c138 11.333 194.167 8 168.5 -10s-63.834 -36 -114.501 -54zM454.001 670.001
c29.333 -1.33301 46 -22.333 50 -63c-42 -57.333 -83.667 -85 -125 -83c-20 9.33301 -29 27.333 -27 54l1 29c33.333 44 67 65 101 63zM380.001 271.001c15.333 -0.666992 29.001 -16 41.001 -46c-23.333 -64 -49 -99.333 -77 -106c-14.667 1.33301 -33.334 22 -56.001 62
c1.33301 32.667 32 62.667 92 90z" />
    <glyph glyph-name="oslash" unicode="&#xf8;" horiz-adv-x="509" 
d="M162 660c16.667 26.667 41.833 47.333 75.5 62s69 17.667 106 9s64 -39 81 -91s11.333 -132.833 -17 -242.5s-64.5 -195.167 -108.5 -256.5s-85.5 -103 -124.5 -125s-87.167 -29.167 -144.5 -21.5s-94.833 48 -112.5 121s-5.5 167.5 36.5 283.5s111.333 203 208 261z
M24.999 271.999c-17.333 -111.333 -1.83203 -173.334 46.501 -186.001s97.166 15.666 146.499 84.999s79.833 144.5 91.5 225.5s11 140.167 -2 177.5s-37 56.833 -72 58.5s-74.5 -30.166 -118.5 -95.499s-74.667 -153.666 -92 -264.999zM520 724.998
c-16 -37.333 -82.668 -121.001 -200.001 -251.001l-301 -357c-117.333 -182 -193.5 -270 -228.5 -264s-0.166992 74 104.5 204l210 261c340.667 428.667 508.334 611.334 503.001 548.001c-18.667 -65.333 -48 -112.333 -88 -141z" />
    <glyph glyph-name="uhuyen" unicode="&#xf9;" horiz-adv-x="836" 
d="M619 718c38 13.333 56.002 0.666992 54.002 -38c-86.667 -247.333 -134.667 -398 -144 -452l-10 -61c-1.33301 -46 12 -71.333 40 -76c78.667 36.667 151 106.667 217 210c10.667 0 24 6.66699 40 20h19c-55.333 -126 -135.333 -227.667 -240 -305
c-116 -57.333 -179.333 -22 -190 106l20 116c-46.667 -84.667 -107 -154.334 -181 -209.001c-56.667 -39.333 -101.667 -56.166 -135 -50.499s-55.333 28 -66 67s5.33301 124.5 48 256.5l19 92c13.333 54 -15 33 -85 -63l-136 -172
c-38.667 -3.33301 -44.334 12.667 -17.001 48s51 68 71 98l231 348c69.333 36.667 108.333 38 117 4l-89 -308.5c-16.667 -55.667 -31.334 -122.167 -44.001 -199.5l6 -38l17 -7c48 6 126.333 80.333 235 223l133 310zM332.002 1092c18 38 49.666 41.832 94.999 11.499
s108 -59.5 188 -87.5l216 -63c6.66699 -14 2.66699 -23 -12 -27s-36 -5 -64 -3s-54.333 2.33301 -79 1l2 6c-35.333 0 -74.666 7.33301 -117.999 22c-113.333 18.667 -184.333 51.334 -213 98.001z" />
    <glyph glyph-name=".notdef.010" unicode="&#xfa;" horiz-adv-x="836" 
d="M619 718c38 13.333 56.002 0.666992 54.002 -38c-86.667 -247.333 -134.667 -398 -144 -452l-10 -61c-1.33301 -46 12 -71.333 40 -76c78.667 36.667 151 106.667 217 210c10.667 0 24 6.66699 40 20h19c-55.333 -126 -135.333 -227.667 -240 -305
c-116 -57.333 -179.333 -22 -190 106l20 116c-46.667 -84.667 -107 -154.334 -181 -209.001c-56.667 -39.333 -101.667 -56.166 -135 -50.499s-55.333 28 -66 67s5.33301 124.5 48 256.5l19 92c13.333 54 -15 33 -85 -63l-136 -172
c-38.667 -3.33301 -44.334 12.667 -17.001 48s51 68 71 98l231 348c69.333 36.667 108.333 38 117 4l-89 -308.5c-16.667 -55.667 -31.334 -122.167 -44.001 -199.5l6 -38l17 -7c48 6 126.333 80.333 235 223l133 310zM747.002 1226
c6.66699 -54 -28.998 -122.999 -106.998 -206.999c-25.333 -38.667 -51.666 -69 -78.999 -91l5 -3c-20.667 -14.667 -41.334 -31.334 -62.001 -50.001s-38 -31 -52 -37s-23 -1.33301 -27 14l132 183c45.333 71.333 76.666 133 93.999 185s44.666 68.333 81.999 49z" />
    <glyph glyph-name="ucircumflex" unicode="&#xfb;" horiz-adv-x="838" 
d="M629 718c38 13.333 56.001 0.666992 54.001 -38c-86.667 -247.333 -134.667 -398 -144 -452l-10 -61c-1.33301 -46 12 -71.333 40 -76c78.667 36.667 151 106.667 217 210c10.667 0 24 6.66699 40 20h19c-55.333 -126 -135.333 -227.667 -240 -305
c-116 -57.333 -179.333 -22 -190 106l20 116c-46.667 -84.667 -107 -154.334 -181 -209.001c-56.667 -39.333 -101.667 -56.166 -135 -50.499s-55.333 28 -66 67s5.33301 124.5 48 256.5l24 107c10 44 -10 29.333 -60 -44l-121 -149l-54 -26
c63.333 120.667 161.333 275 294 463c69.333 36.667 108.333 38 117 4l-89 -308.5c-16.667 -55.667 -31.334 -122.167 -44.001 -199.5l6 -38l17 -7c48 6 126.333 80.333 235 223l133 310zM583.001 926.001l-41.999 40.998c-30 52 -88.333 40 -175 -36l-62 -35
c-40.667 -16 -65.334 -21 -74.001 -15s-10.167 13.5 -4.5 22.5s22.834 20.167 51.501 33.5c65.333 34.667 129.333 83.667 192 147l34 20l21 -3l96 -138c29.333 -41.333 42.5 -64.666 39.5 -69.999s-11.333 -7.66602 -25 -6.99902s-30.834 14 -51.501 40z" />
    <glyph glyph-name="udieresis" unicode="&#xfc;" horiz-adv-x="838" 
d="M629 718c38 13.333 56.001 0.666992 54.001 -38c-86.667 -247.333 -134.667 -398 -144 -452l-10 -61c-1.33301 -46 12 -71.333 40 -76c78.667 36.667 151 106.667 217 210c10.667 0 24 6.66699 40 20h19c-55.333 -126 -135.333 -227.667 -240 -305
c-116 -57.333 -179.333 -22 -190 106l20 116c-46.667 -84.667 -107 -154.334 -181 -209.001c-56.667 -39.333 -101.667 -56.166 -135 -50.499s-55.333 28 -66 67s5.33301 124.5 48 256.5l24 107c10 44 -10 29.333 -60 -44l-121 -149l-54 -26
c63.333 120.667 161.333 275 294 463c69.333 36.667 108.333 38 117 4l-89 -308.5c-16.667 -55.667 -31.334 -122.167 -44.001 -199.5l6 -38l17 -7c48 6 126.333 80.333 235 223l133 310zM209.001 951.001c-4 30 14 50 54 60c64 -32.667 98.333 -69.667 103 -111
c-6 -21.333 -22.333 -33.333 -49 -36l-30 -3c-48.667 26 -74.667 56 -78 90zM521.001 947.001c-2 16 11.333 32.666 40 49.999c69.333 -13.333 109.666 -34 120.999 -62c1.33301 -15.333 -17 -37.666 -55 -66.999c-33.333 -3.33301 -68.666 23 -105.999 79z" />
    <glyph glyph-name="ysac" unicode="&#xfd;" horiz-adv-x="757" 
d="M809 1282c4 -54 -35.001 -121.333 -117.001 -202c-26.667 -37.333 -54.334 -66.333 -83.001 -87l5 -2c-21.333 -14 -42.833 -29.833 -64.5 -47.5s-39.667 -29.167 -54 -34.5s-22.833 -0.333008 -25.5 15l140 177c48.667 68.667 82.834 128.5 102.501 179.5
s47.834 66.167 84.501 45.5zM439.999 -26c-118 -110.667 -233.832 -237.666 -347.499 -380.999s-179.167 -271 -196.5 -383s2.16699 -176.5 58.5 -193.5s122.333 22.833 198 119.5s138.167 231.667 187.5 405s82.666 317.666 99.999 432.999zM580 175.001l169 191.002
c10.667 1.33301 23.334 9.33301 38.001 24l9 2c-50.667 -102 -130 -212 -238 -330l-6 -32c-15.333 -38.667 -28 -87.667 -38 -147c-30 -208 -76.833 -390.5 -140.5 -547.5s-136.334 -270 -218.001 -339s-159.334 -97.667 -233.001 -86s-112.834 67.667 -117.501 168
s29.166 215.666 101.499 345.999s212.833 311.833 421.5 544.5c86.667 100.667 135.334 194.667 146.001 282l-3 25c-2 17.333 -12.667 19.666 -32 6.99902l-33 -38c-22 -34 -49.667 -71.333 -83 -112c-88 -130 -165.667 -188 -233 -174c-40.667 8.66699 -60 47.667 -58 117
c41.333 166.667 72.333 281.334 93 344.001c-2 16.667 -25.333 -7.5 -70 -72.5s-114.667 -141.5 -210 -229.5l-31 22l82 104c65.333 78.667 175 229.667 329 453c48.667 4 66 -33.333 52 -112c-44 -141.333 -81.333 -276.333 -112 -405
c-19.333 -82.667 -13.166 -118.667 18.501 -108s71.167 45 118.5 103h2l54 66v3c108.667 172 201.334 327 278.001 465c31.333 27.333 59.333 22.666 84 -14.001l-103 -334z" />
    <glyph glyph-name="ydieresis" unicode="&#xff;" horiz-adv-x="757" 
d="M440 -26c-118 -110.667 -233.832 -237.666 -347.499 -380.999s-179.167 -271 -196.5 -383s2.16699 -176.5 58.5 -193.5s122.333 22.833 198 119.5s138.167 231.667 187.5 405s82.666 317.666 99.999 432.999zM580.001 175.001l169 191.002
c10.667 1.33301 23.334 9.33301 38.001 24l9 2c-50.667 -102 -130 -212 -238 -330l-6 -32c-15.333 -38.667 -28 -87.667 -38 -147c-30 -208 -76.833 -390.5 -140.5 -547.5s-136.334 -270 -218.001 -339s-159.334 -97.667 -233.001 -86s-112.834 67.667 -117.501 168
s29.166 215.666 101.499 345.999s212.833 311.833 421.5 544.5c86.667 100.667 135.334 194.667 146.001 282l-3 25c-2 17.333 -12.667 19.666 -32 6.99902l-33 -38c-22 -34 -49.667 -71.333 -83 -112c-88 -130 -165.667 -188 -233 -174c-40.667 8.66699 -60 47.667 -58 117
c41.333 166.667 72.333 281.334 93 344.001c-2 16.667 -25.333 -7.5 -70 -72.5s-114.667 -141.5 -210 -229.5l-31 22l82 104c65.333 78.667 175 229.667 329 453c48.667 4 66 -33.333 52 -112c-44 -141.333 -81.333 -276.333 -112 -405
c-19.333 -82.667 -13.166 -118.667 18.501 -108s71.167 45 118.5 103h2l54 66v3c108.667 172 201.334 327 278.001 465c31.333 27.333 59.333 22.666 84 -14.001l-103 -334zM229.001 951.003c-4 30 14 50 54 60c64 -32.667 98.333 -69.667 103 -111
c-6 -21.333 -22.333 -33.333 -49 -36l-30 -3c-48.667 26 -74.667 56 -78 90zM541.001 947.003c-2 16 11.333 32.666 40 49.999c69.333 -13.333 109.666 -34 120.999 -62c1.33301 -15.333 -17 -37.666 -55 -66.999c-33.333 -3.33301 -68.666 23 -105.999 79z" />
    <glyph glyph-name=".notdef.060" unicode="&#x102;" 
d="M704 638l-0.00195312 -9.00098c10.667 -24.667 33 -36.334 67 -35.001l104 13c15.333 2 31.833 45.667 49.5 131s39.834 174 66.501 266s38.834 149.5 36.501 172.5s-15.333 25.667 -39 8s-48 -46.667 -73 -87s-52.167 -86.666 -81.5 -138.999
s-50.833 -105.166 -64.5 -158.499s-35.5 -107.333 -65.5 -162zM1050 2.99902c-0.666992 -0.666992 -1.66504 -1.33496 -2.99805 -2.00195c-88.667 -30 -147.334 33 -176.001 189c-7.33301 52.667 -4 145 10 277c-14 23.333 -82.667 33 -206 29
c-41.333 -22.667 -80.166 -69.667 -116.499 -141s-88 -148 -155 -230s-148.667 -137.833 -245 -167.5s-171.833 -26.667 -226.5 9s-75 80.5 -61 134.5s40.667 78.333 80 73s58.166 -34.166 56.499 -86.499s34.666 -76.5 108.999 -72.5s164.5 69.333 270.5 196
c65.333 100.667 115 199.334 149 296.001l-80 -15c-90 -38.667 -116.5 -38 -79.5 2s86.167 68.667 147.5 86c49.333 8 92 62.667 128 164l140 295.5c34 70.333 73 138.333 117 204s97.333 115 160 148s106.667 48.5 132 46.5s38 -9.33301 38 -22l-87 -215l-86 -273l-55 -276
c0 -10 13 -25.667 39 -47c90.667 0 169 18.667 235 56v-19c-84.667 -74.667 -149.667 -118 -195 -130s-75.833 -46.5 -91.5 -103.5s-19.167 -123.833 -10.5 -200.5c10 -40.667 27 -70 51 -88c18.667 -2 38 -2 58 0c66 34 148 121.333 246 262h9
c0 -6.66699 3.33301 -10 10 -10c-118.667 -227.333 -222.667 -350.333 -312 -369zM1313 1659l58.001 51l11 -35c-62 -80 -132.333 -138.333 -211 -175s-142.834 -44.667 -192.501 -24s-76.5 50.5 -80.5 89.5s5.16699 66.833 27.5 83.5s44 23.667 65 21
s32.333 -15.167 34 -37.5s13.5 -39.833 35.5 -52.5s61.167 -11.167 117.5 4.5s101.5 40.5 135.5 74.5z" />
    <glyph glyph-name="a_" unicode="&#x103;" horiz-adv-x="692" 
d="M619 999l55.999 49l11 -34c-60 -77.333 -128.167 -133.833 -204.5 -169.5s-138.5 -43.334 -186.5 -23.001s-74 49.333 -78 87s4.83301 64.5 26.5 80.5s42.667 22.667 63 20s31.333 -14.667 33 -36s13.167 -38.166 34.5 -50.499s59.333 -10.833 114 4.5
s98.334 39.333 131.001 72zM436.999 690l71.998 3.99805l22 -45c2.66699 -32 -16.333 -94 -57 -186l-58 -182l-14 -93c-12 -68.667 -2.33301 -100 29 -94l38 21c26.667 21.333 85.334 81.333 176.001 180c14.667 -0.666992 24 -11.667 28 -33
c-112.667 -175.333 -202 -261.666 -268 -258.999c-80.667 -17.333 -118.667 26.334 -114 131.001l34 174c-103.333 -130.667 -195.666 -221.667 -276.999 -273c-35.333 -26 -82.333 -36.333 -141 -31l-28 29l-9 35c-4 51.333 1.33301 102.666 16 153.999
c16 44.667 40 95.667 72 153c64 102.667 147.5 185.834 250.5 249.501s179.167 85.5 228.5 65.5zM60.9971 154.998c70 50 124.334 99.333 163.001 148c46 46 88.667 119.333 128 220c-32 50 -78.667 55.667 -140 17c-35.333 -19.333 -76 -61.333 -122 -126
c-51.333 -69.333 -85.333 -132.333 -102 -189c-16.667 -88 7.66602 -111.333 72.999 -70z" />
    <glyph glyph-name="Aogonek" unicode="&#x104;" 
d="M704 638l-0.00195312 -9.00098c10.667 -24.667 33 -36.334 67 -35.001l104 13c15.333 2 31.833 45.667 49.5 131s39.834 174 66.501 266s38.834 149.5 36.501 172.5s-15.333 25.667 -39 8s-48 -46.667 -73 -87s-52.167 -86.666 -81.5 -138.999
s-50.833 -105.166 -64.5 -158.499s-35.5 -107.333 -65.5 -162zM1050 2.99902c-0.666992 -0.666992 -1.66504 -1.33496 -2.99805 -2.00195c-88.667 -30 -147.334 33 -176.001 189c-7.33301 52.667 -4 145 10 277c-14 23.333 -82.667 33 -206 29
c-41.333 -22.667 -80.166 -69.667 -116.499 -141s-88 -148 -155 -230s-148.667 -137.833 -245 -167.5s-171.833 -26.667 -226.5 9s-75 80.5 -61 134.5s40.667 78.333 80 73s58.166 -34.166 56.499 -86.499s34.666 -76.5 108.999 -72.5s164.5 69.333 270.5 196
c65.333 100.667 115 199.334 149 296.001l-80 -15c-90 -38.667 -116.5 -38 -79.5 2s86.167 68.667 147.5 86c49.333 8 92 62.667 128 164l140 295.5c34 70.333 73 138.333 117 204s97.333 115 160 148s106.667 48.5 132 46.5s38 -9.33301 38 -22l-87 -215l-86 -273l-55 -276
c0 -10 13 -25.667 39 -47c90.667 0 169 18.667 235 56v-19c-84.667 -74.667 -149.667 -118 -195 -130s-75.833 -46.5 -91.5 -103.5s-19.167 -123.833 -10.5 -200.5c10 -40.667 27 -70 51 -88c18.667 -2 38 -2 58 0c66 34 148 121.333 246 262h9
c0 -6.66699 3.33301 -10 10 -10c-118.667 -227.333 -222.667 -350.333 -312 -369zM1208 -149.002c-6.66699 -58.667 -40.667 -100 -102 -124s-115 -15.333 -161 26s-60.167 75.166 -42.5 101.499s34.167 23.333 49.5 -9s36.833 -49.666 64.5 -51.999s54 6.16699 79 25.5
s35.833 47.833 32.5 85.5s-32.5 68.5 -87.5 92.5s-71.5 42.5 -49.5 55.5s45.833 12.167 71.5 -2.5s58 -37 97 -67s55.167 -74 48.5 -132z" />
    <glyph glyph-name="aogonek" unicode="&#x105;" horiz-adv-x="692" 
d="M437 690l71.998 3.99805l22 -45c2.66699 -32 -16.333 -94 -57 -186l-58 -182l-14 -93c-12 -68.667 -2.33301 -100 29 -94l38 21c26.667 21.333 85.334 81.333 176.001 180c14.667 -0.666992 24 -11.667 28 -33c-112.667 -175.333 -202 -261.666 -268 -258.999
c-80.667 -17.333 -118.667 26.334 -114 131.001l34 174c-103.333 -130.667 -195.666 -221.667 -276.999 -273c-35.333 -26 -82.333 -36.333 -141 -31l-28 29l-9 35c-4 51.333 1.33301 102.666 16 153.999c16 44.667 40 95.667 72 153
c64 102.667 147.5 185.834 250.5 249.501s179.167 85.5 228.5 65.5zM60.998 154.998c70 50 124.334 99.333 163.001 148c46 46 88.667 119.333 128 220c-32 50 -78.667 55.667 -140 17c-35.333 -19.333 -76 -61.333 -122 -126c-51.333 -69.333 -85.333 -132.333 -102 -189
c-16.667 -88 7.66602 -111.333 72.999 -70zM523.999 -123.002c-5.33301 -51.333 -35 -87.5 -89 -108.5s-101.167 -13.5 -141.5 22.5s-52.666 65.667 -36.999 89s30.167 20.833 43.5 -7.5s32.166 -43.5 56.499 -45.5s47.5 5.33301 69.5 22s31.333 41.667 28 75
s-29 60.5 -77 81.5s-62.333 37.167 -43 48.5s40.333 10.5 63 -2.5s51 -32.5 85 -58.5s48 -64.667 42 -116z" />
    <glyph glyph-name="Ccircumflex" unicode="&#x108;" horiz-adv-x="1305" 
d="M721 907l76 26.002l84 44c66 26 137 70.667 213 134c84.667 93.333 130.5 160.666 137.5 201.999s-6.16699 55.666 -39.5 42.999c-100 -20.667 -213.667 -103.667 -341 -249c-38 -47.333 -81.333 -114 -130 -200zM514 -1.99805
c-138.667 -82 -256.993 -125.824 -354.993 -131.491s-175.5 9.66602 -232.5 45.999s-87.667 87.166 -92 152.499s17 111.833 64 139.5s65.667 5.16699 56 -67.5s5.16602 -124.834 44.499 -156.501s91.833 -46.667 157.5 -45s131.5 20.167 197.5 55.5s99 66.666 99 93.999
c-24.667 44 -32.167 127 -22.5 249s54.167 276 133.5 462c-34.667 -6.66699 -87.334 -2 -158.001 14c-90 44.667 -132.333 112 -127 202s67 192.667 185 308c120 101.333 246 159 378 173c35.333 0 69.333 -6 102 -18l5 -32c13.333 -58.667 -40.667 -79.334 -162 -62.001
c-83.333 0.666992 -150.333 -15 -201 -47s-90.667 -65.333 -120 -100s-52.166 -67.167 -68.499 -97.5s-22.5 -75.166 -18.5 -134.499c32.667 -81.333 85 -114 157 -98c45.333 -8.66699 104 43.666 176 156.999c156 200.667 276.667 316 362 346
c68.667 35.333 124.334 51 167.001 47c64 -19.333 91.333 -50.666 82 -93.999c9.33301 -121.333 -113.334 -267 -368.001 -437c-88.667 -34 -158 -69.333 -208 -106c-82.667 -69.333 -141.5 -172 -176.5 -308s-39.833 -238.5 -14.5 -307.5s68.5 -102.5 129.5 -100.5
s116.167 19.833 165.5 53.5s94.166 81.667 134.499 144s68.666 135.166 84.999 218.499s-1.83398 128.666 -54.501 135.999c-70.667 6 -154.334 -59 -251.001 -195c-18 -40.667 -32.667 -69.834 -44 -87.501s-26.666 -20.834 -45.999 -9.50098
c62.667 202.667 158.667 338 288 406c50.667 25.333 99 27.666 145 6.99902c45.333 -26.667 67 -78.334 65 -155.001c0 -73.333 -21.167 -155.333 -63.5 -246s-97.5 -171.167 -165.5 -241.5s-135 -113.5 -201 -129.5c11.333 -4 24.666 -7 39.999 -9
c48 -6 99 2.83301 153 26.5s104.167 55.667 150.5 96s101.166 97.833 164.499 172.5l19 -37c-172.667 -251.333 -361.667 -365.666 -567 -342.999c-48.667 2 -102.334 22.333 -161.001 61zM1199.01 1662.01l-56 50c-42.667 64 -119.334 45 -230.001 -57l-77 -49
c-50.667 -24.667 -81.5 -33.334 -92.5 -26.001s-13.5 17 -7.5 29s27 27 63 45c80.667 50.667 161.334 117.667 242.001 201l42 29l27 -3l134 -168c40.667 -41.333 59 -65.666 55 -72.999s-14.667 -11 -32 -11s-40 11 -68 33z" />
    <glyph glyph-name="ccircumflex" unicode="&#x109;" horiz-adv-x="467" 
d="M244 611c-124.667 -86.667 -193.333 -223.334 -206 -410.001c0 -87.333 34.333 -124.666 103 -111.999c80 19.333 188 114.333 324 285l21 -18c-128 -205.333 -238 -326.333 -330 -363c-39.333 -20 -85 -23.667 -137 -11c-46 15.333 -76.333 46 -91 92
s-18.334 90.667 -11.001 134c12 86 44.333 173.167 97 261.5s108.667 151 168 188s111 48.667 155 35s67.333 -44 70 -91s-12.833 -75.167 -46.5 -84.5s-52.167 9.5 -55.5 56.5s-23.666 59.5 -60.999 37.5zM59.001 858c76.667 32 134.17 66.1641 172.503 102.497l82.5 77.5
c16.667 15.333 31.5 12.833 44.5 -7.5l62.5 -97.5c28.667 -44.667 58.167 -76.5 88.5 -95.5s42.5 -33.833 36.5 -44.5s-20.5 -12.167 -43.5 -4.5s-49.333 23.334 -79 47.001s-54.334 45.834 -74.001 66.501s-59.834 7.83398 -120.501 -38.499s-100.834 -74.333 -120.501 -84
s-37.334 -15 -53.001 -16s-30 3.83301 -43 14.5s-17.167 23.667 -12.5 39s24.334 29 59.001 41z" />
    <glyph glyph-name="" unicode="&#x110;" horiz-adv-x="1030" 
d="M414 158c-0.666992 -10 8.33203 -20.3311 26.999 -30.998c130.667 21.333 248.834 120 354.501 296s158.834 346.667 159.501 512c0 150.667 -27.333 257.167 -82 319.5s-105.667 66.5 -153 12.5c-54 -68.667 -91.333 -188.834 -112 -360.501
s-45.334 -316.834 -74.001 -435.501s-68.667 -220 -120 -304v-9zM446.999 27.002l46.999 -19.998c39.333 -15.333 89 -12 149 10s124 61.333 192 118l137 149l15 -33c-130 -213.333 -288.667 -316.666 -476 -309.999c-76 7.33301 -127.667 26 -155 56
c-42.667 1.33301 -121 -31.667 -235 -99h-29c-58.667 2 -85 24.667 -79 68c20 55.333 91 102.333 213 141c31.333 17.333 63 42.666 95 75.999c59.333 104.667 104.333 274.167 135 508.5s75.334 399.666 134.001 495.999s88 150.166 88 161.499c0 10 -8.33301 17 -25 21
s-45.334 3.66699 -86.001 -1s-100.334 -27.167 -179.001 -67.5s-145.334 -96.666 -200.001 -168.999s-76 -128.5 -64 -168.5c-17.333 -71.333 -48.666 -105 -93.999 -101c-20.667 9.33301 -29.667 30.666 -27 63.999c2.66699 46.667 31.667 111.334 87 194.001
c59.333 87.333 121.333 153.166 186 197.499s127.834 78.833 189.501 103.5s131.834 36.667 210.501 36c208.667 -6 328.667 -120 360 -342c23.333 -136.667 18.833 -267.167 -13.5 -391.5s-84 -238.833 -155 -343.5s-139.833 -183.167 -206.5 -235.5
s-138 -91.833 -214 -118.5zM539.998 558.004c-42 -8 -80.332 -14.999 -114.999 -20.999l-118 -19.5c-44 -7 -74.167 2.16699 -90.5 27.5s-3.5 52.666 38.5 81.999l335 12c86 11.333 154.667 22.833 206 34.5s71.166 9 59.499 -8s-38 -33.333 -79 -49
s-119.833 -35.167 -236.5 -58.5z" />
    <glyph glyph-name="dd" unicode="&#x111;" horiz-adv-x="757" 
d="M524 821c-44 -8 -87.5 -12.499 -130.5 -13.499s-88.167 -0.666992 -135.5 1s-77 9.16699 -89 22.5s5.33301 37.666 52 72.999l356 -2c104.667 11.333 179.167 15.166 223.5 11.499s37 -15.667 -22 -36s-143.833 -39.166 -254.5 -56.499zM672 1481
c26.667 68.667 55.666 100.005 86.999 94.0049s26 -64.667 -16 -176c-63.333 -214.667 -111.5 -402.334 -144.5 -563.001l-78 -379c-19 -92 -37.5 -206.667 -55.5 -344c3.33301 -46 29.333 -45.333 78 2l69 64l129 167l16 -31c-78.667 -160.667 -169.667 -275.667 -273 -345
l-48 -10c-60 18 -88.333 64.667 -85 140c34 217.333 36.333 311.333 7 282c20 62 21.833 106 5.5 132s-43.833 37.333 -82.5 34s-84 -27.5 -136 -72.5s-94.667 -100.5 -128 -166.5s-45.5 -119 -36.5 -159s31.667 -57.5 68 -52.5s78.333 27.667 126 68
s109.5 114.833 185.5 223.5c46 82 64 83.333 54 4c-66 -120.667 -138.5 -218.5 -217.5 -293.5s-138.5 -117.833 -178.5 -128.5s-72.5 -11.334 -97.5 -2.00098s-44.167 30.666 -57.5 63.999s-12.333 84.5 3 153.5s47.333 137.333 96 205s98.834 122.5 150.501 164.5
s101.167 69.167 148.5 81.5s84.666 13.166 111.999 2.49902s48 -27.334 62 -50.001l16 49c20.667 74.667 53.834 208 99.501 400s86.167 339.333 121.5 442z" />
    <glyph glyph-name="Eogonek" unicode="&#x118;" horiz-adv-x="1069" 
d="M834 1420c21.333 14.667 69.834 22.668 145.501 24.001s130.5 -32.667 164.5 -102l15 -51c15.333 -118 -92 -244.333 -322 -379l-171 -71c14 -31.333 37.833 -49.5 71.5 -54.5s74.667 5.83301 123 32.5s69 31.5 62 14.5s-18.833 -33 -35.5 -48s-49.667 -34.333 -99 -58
s-164 -69.834 -344 -138.501c-166.667 -87.333 -267 -170 -301 -248s-29.167 -144.833 14.5 -200.5s110.167 -86.167 199.5 -91.5l110 8c166 36.667 277.333 115.334 334 236.001c32.667 108 5.66699 160.333 -81 157c-99.333 -36 -190 -88.667 -272 -158
c-27.333 0.666992 -41.333 6.33398 -42 17.001l-1 20c171.333 165.333 303.666 242 396.999 230l20 1c61.333 4.66699 98.666 -33.333 111.999 -114v-10c2 -169.333 -108 -309.666 -330 -420.999c29.333 -19.333 -46 -39 -226 -59c-216 3.33301 -346.333 73 -391 209
c-40.667 249.333 176 437.666 650 564.999c-29.333 13.333 -54.333 39.666 -75 78.999l-95 -17c-88.667 -14.667 -167 -15.667 -235 -3c-94.667 18 -151.667 74 -171 168c-9.33301 160 90.334 299.333 299.001 418c91.333 42.667 160.833 68.167 208.5 76.5
s95.5 11.166 143.5 8.49902s88.667 -16 122 -40zM190.001 978.001c35.333 -70 117.667 -100.667 247 -92c78 26.667 116.667 72 116 136c24.667 108 67 199.667 127 275l77 79c-79.333 20.667 -173.333 8 -282 -38c-202.667 -86 -297.667 -206 -285 -360zM674.002 1095
l-29 -87.999c-6 -70 35.667 -84.667 125 -44c84 33.333 151.167 71.666 201.5 114.999s81.333 82.666 93 117.999s9.5 69.333 -6.5 102s-49.667 49.334 -101 50.001c-124 -14.667 -218.333 -99 -283 -253zM504.002 27.002l310.501 99.499c57 19 129.167 83.167 216.5 192.5
l15 -27c-108.667 -249.333 -289.334 -337.666 -542.001 -264.999zM836.003 -182.999c-6.66699 -62.667 -42.8281 -106.667 -108.495 -132s-122.834 -16.166 -171.501 27.501s-63.667 79.5 -45 107.5s36.167 25 52.5 -9s39.333 -52.333 69 -55s57.667 6.16602 84 26.499
s37.666 50.666 33.999 90.999s-34.667 73.333 -93 99s-75.833 45.334 -52.5 59.001s48.666 12.5 75.999 -3.5s61.666 -39.667 102.999 -71s58.666 -78 51.999 -140z" />
    <glyph glyph-name="eogonek" unicode="&#x119;" horiz-adv-x="468" 
d="M317 187l77.9961 88.0039c22 14 36.667 14.333 44 1c-119.333 -171.333 -219.333 -269 -300 -293c-66.667 -18 -117.667 -13.167 -153 14.5s-57.166 70.667 -65.499 129s-1 119.666 22 183.999s59.667 131.666 110 201.999s108.833 122.666 175.5 156.999
s117.834 41.5 153.501 21.5s51.834 -52.833 48.501 -98.5s-23.666 -88.667 -60.999 -129s-92.666 -78.333 -165.999 -114s-120.166 -64 -140.499 -85s-31 -43.5 -32 -67.5s1.66699 -47 8 -69s21.166 -39.333 44.499 -52s56.666 -10.834 99.999 5.49902s88 51.5 134 105.5z
M43.9961 326.004c126 64.667 208.171 119.668 246.504 165.001s53.666 81.166 45.999 107.499s-33.834 30.5 -78.501 12.5s-86.834 -54.5 -126.501 -109.5s-68.834 -113.5 -87.501 -175.5zM311 -161.995c-6 -53.333 -36.8311 -90.835 -92.498 -112.502
s-104.334 -13.834 -146.001 23.499s-54.5 68 -38.5 92s31 21.5 45 -7.5s33.5 -44.667 58.5 -47s48.833 5.16699 71.5 22.5s32.5 43.333 29.5 78s-29.5 62.834 -79.5 84.501s-65 38.334 -45 50.001s41.667 10.834 65 -2.49902s52.666 -33.5 87.999 -60.5
s50 -67.167 44 -120.5z" />
    <glyph glyph-name=".notdef.027" unicode="&#x128;" horiz-adv-x="1104" 
d="M1108 1514l22.002 11.999l19 -10c1.33301 -36.667 -40.667 -78.667 -126 -126c-132 -51.333 -223 -75 -273 -71l-49 -26c-67.333 -79.333 -123.666 -271 -168.999 -575c-18.667 -146.667 -34.334 -252.334 -47.001 -317.001s-18.667 -119 -18 -163l2 -59
c0.666992 -50 47 -85 139 -105c134.667 -13.333 262.667 41.334 384 164.001c72 75.333 102 88 90 38c-98 -184 -285.667 -291.333 -563 -322c-155.333 43.333 -268.833 67.833 -340.5 73.5s-132.334 4 -182.001 -5s-125.834 -46.167 -228.501 -111.5l-11 20v9
c40 76 156.333 143.667 349 203l157 3c69.333 50 113.333 189.333 132 418c19.333 141.333 39.666 264 60.999 368s55 210 101 318v39c-0.666992 10 -10.667 19.667 -30 29l-70 -1c-86 10 -135 15.333 -147 16c-26 8 -63.333 -21.667 -112 -89
c-37.333 -16 -62.666 -14.333 -75.999 5l13 28l45 31c58.667 67.333 87.667 118.333 87 153h40c0.666992 -21.333 119 -39.666 355 -54.999l154 9l101 21c100 28.667 163.667 54.667 191 78zM882.002 1686c-40 4 -71.6631 13.3301 -94.9961 27.9971
s-46.833 23.167 -70.5 25.5s-47.667 -5.16699 -72 -22.5s-46 -35.833 -65 -55.5s-38.5 -27.667 -58.5 -24s-31.167 15.834 -33.5 36.501s5.16699 43.667 22.5 69s43.166 47.333 77.499 66s68.666 27.834 102.999 27.501s71.666 -11.166 111.999 -32.499
s75.833 -32.833 106.5 -34.5s58 6.5 82 24.5s44.667 39.5 62 64.5s29.166 28.333 35.499 10s-2 -44.5 -25 -78.5s-49 -60.667 -78 -80s-63.5 -27.333 -103.5 -24z" />
    <glyph glyph-name="idieresis.001" unicode="&#x129;" horiz-adv-x="443" 
d="M41 341l-75.999 -95.001c-64 -75.333 -100.333 -98.333 -109 -69c59.333 75.333 109.666 146 150.999 212l43 40c37.333 10.667 34.333 -18.666 -9 -87.999zM-11.999 356.999l208.002 313l24 13c26 -0.666992 38 -21 36 -61c-54 -102 -94 -233.333 -120 -394l-15 -85
l-2 -42c1.33301 -15.333 11.666 -24.333 30.999 -27c29.333 2.66699 82 44.667 158 126l80 95l7 -28c-62.667 -128 -138.334 -220.333 -227.001 -277c-36 -15.333 -70.333 -18.333 -103 -9c-50.667 18 -69 64.333 -55 139c2.66699 40 21 127.667 55 263l-83 -26h6z
M382.003 939.999l-63 -61l-48 -39c-42.667 14 -55.334 36.667 -38.001 68c19.333 42 42.833 71.5 70.5 88.5s56.167 27.167 85.5 30.5s65 -5.5 107 -26.5s76.167 -32.167 102.5 -33.5s50 6.16699 71 22.5s39.167 36 54.5 59s25.666 26.167 30.999 9.5s-3 -41 -25 -73
s-46.833 -57 -74.5 -75s-59 -24.833 -94 -20.5s-61.167 12.5 -78.5 24.5s-33.166 20.167 -47.499 24.5s-32.166 4.83301 -53.499 1.5zM304.003 961.999l35.999 3c6.66699 0.666992 20.334 -10.333 41.001 -33c2.66699 -36 -27.333 -76 -90 -120l-36 -2
c-16.667 -1.33301 -25.667 6 -27 22l-3 37c-1.33301 12.667 25 43.667 79 93z" />
    <glyph glyph-name="Jcircumflex" unicode="&#x134;" horiz-adv-x="883" 
d="M620 1272l7.99805 59.002c-6 12.667 -9.33301 22.334 -10 29.001h-9c-93.333 -0.666992 -176.666 -5.66699 -249.999 -15s-147 -40 -221 -92l-18 -41l-25 -10l-22 11l-7 32l19 41c89.333 107.333 248.333 163 477 167c78 7.33301 141 8.16602 189 2.49902
s114.667 -7.83398 200 -6.50098c113.333 2 216.333 33.333 309 94l9 -18l-7 -14c-0.666992 -26.667 -58.667 -62.334 -174 -107.001c-81.333 -18.667 -143.5 -29.667 -186.5 -33s-78 -15 -105 -35s-50.667 -56.5 -71 -109.5s-46.5 -162 -78.5 -327s-59 -326.167 -81 -483.5
s-68 -269.666 -138 -336.999l-26 -29c46 -16 104.667 -9 176 21l105 64l137 149l15 -33c-106.667 -185.333 -278 -283 -514 -293c-88.667 -3.33301 -162 8.5 -220 35.5s-94.667 66.333 -110 118s-11.833 90.667 10.5 117s47.833 35.166 76.5 26.499
s40.834 -32.167 36.501 -70.5s4.5 -72.333 26.5 -102s60.167 -39.5 114.5 -29.5s101.5 60 141.5 150s68 197.833 84 323.5s34.167 246.5 54.5 362.5s48.5 243.667 84.5 383zM886.998 1664l-53 53c-38.667 66.667 -116.334 52.667 -233.001 -42l-80 -44
c-52 -21.333 -83.333 -28 -94 -20s-12.5 17.833 -5.5 29.5s28.833 25.5 65.5 41.5c84 45.333 169 107 255 185l43 26l27 -5l123 -176c38 -44 54.833 -69.5 50.5 -76.5s-15.166 -10 -32.499 -9s-39.333 13.5 -66 37.5z" />
    </font>
</defs>
</svg>
